  0
SECTION
  2
BLOCKS
  0
ENDSEC
  0
SECTION
  2
ENTITIES
  0
LINE
  8
0
 10
8.61803
 20
16.1756
 11
8.33826
 21
16.4863
  0
LINE
  8
0
 10
8.33826
 20
16.4863
 11
8
 21
16.732
  0
LINE
  8
0
 10
8
 20
16.732
 11
7.61803
 21
16.9021
  0
LINE
  8
0
 10
7.61803
 20
16.9021
 11
7.20905
 21
16.989
  0
LINE
  8
0
 10
7.20905
 20
16.989
 11
-7.20905
 21
16.989
  0
LINE
  8
0
 10
-7.20905
 20
16.989
 11
-7.61803
 21
16.9021
  0
LINE
  8
0
 10
-7.61803
 20
16.9021
 11
-8
 21
16.732
  0
LINE
  8
0
 10
-8
 20
16.732
 11
-8.33826
 21
16.4863
  0
LINE
  8
0
 10
-8.33826
 20
16.4863
 11
-8.61803
 21
16.1756
  0
LINE
  8
0
 10
-8.61803
 20
16.1756
 11
-8.82709
 21
15.8135
  0
LINE
  8
0
 10
-8.82709
 20
15.8135
 11
-8.95628
 21
15.4158
  0
LINE
  8
0
 10
-8.95628
 20
15.4158
 11
-9
 21
15
  0
LINE
  8
0
 10
-9
 20
15
 11
-9
 21
-15
  0
LINE
  8
0
 10
-9
 20
-15
 11
-8.95628
 21
-15.4158
  0
LINE
  8
0
 10
-8.95628
 20
-15.4158
 11
-8.82709
 21
-15.8135
  0
LINE
  8
0
 10
-8.82709
 20
-15.8135
 11
-8.61803
 21
-16.1756
  0
LINE
  8
0
 10
-8.61803
 20
-16.1756
 11
-8.33826
 21
-16.4863
  0
LINE
  8
0
 10
-8.33826
 20
-16.4863
 11
-8
 21
-16.732
  0
LINE
  8
0
 10
-8
 20
-16.732
 11
-7.61803
 21
-16.9021
  0
LINE
  8
0
 10
-7.61803
 20
-16.9021
 11
-7.20905
 21
-16.989
  0
LINE
  8
0
 10
-7.20905
 20
-16.989
 11
7.20905
 21
-16.989
  0
LINE
  8
0
 10
7.20905
 20
-16.989
 11
7.61803
 21
-16.9021
  0
LINE
  8
0
 10
7.61803
 20
-16.9021
 11
8
 21
-16.732
  0
LINE
  8
0
 10
8
 20
-16.732
 11
8.33826
 21
-16.4863
  0
LINE
  8
0
 10
8.33826
 20
-16.4863
 11
8.61803
 21
-16.1756
  0
LINE
  8
0
 10
8.61803
 20
-16.1756
 11
8.82709
 21
-15.8135
  0
LINE
  8
0
 10
8.82709
 20
-15.8135
 11
8.95628
 21
-15.4158
  0
LINE
  8
0
 10
8.95628
 20
-15.4158
 11
9
 21
-15
  0
LINE
  8
0
 10
9
 20
-15
 11
9
 21
15
  0
LINE
  8
0
 10
9
 20
15
 11
8.95628
 21
15.4158
  0
LINE
  8
0
 10
8.95628
 20
15.4158
 11
8.82709
 21
15.8135
  0
LINE
  8
0
 10
8.82709
 20
15.8135
 11
8.61803
 21
16.1756
  0
ENDSEC
  0
SECTION
  2
OBJECTS
  0
DICTIONARY
  0
ENDSEC
  0
EOF
