  0
SECTION
  2
BLOCKS
  0
ENDSEC
  0
SECTION
  2
ENTITIES
  0
LINE
  8
0
 10
7.61803
 20
-16.9021
 11
8
 21
-16.732
  0
LINE
  8
0
 10
8
 20
-16.732
 11
8.33826
 21
-16.4863
  0
LINE
  8
0
 10
8.33826
 20
-16.4863
 11
8.61803
 21
-16.1756
  0
LINE
  8
0
 10
8.61803
 20
-16.1756
 11
8.82709
 21
-15.8135
  0
LINE
  8
0
 10
8.82709
 20
-15.8135
 11
8.95628
 21
-15.4158
  0
LINE
  8
0
 10
8.95628
 20
-15.4158
 11
9
 21
-15
  0
LINE
  8
0
 10
9
 20
-15
 11
9
 21
15
  0
LINE
  8
0
 10
9
 20
15
 11
8.95628
 21
15.4158
  0
LINE
  8
0
 10
8.95628
 20
15.4158
 11
8.82709
 21
15.8135
  0
LINE
  8
0
 10
8.82709
 20
15.8135
 11
8.61803
 21
16.1756
  0
LINE
  8
0
 10
8.61803
 20
16.1756
 11
8.33826
 21
16.4863
  0
LINE
  8
0
 10
8.33826
 20
16.4863
 11
8
 21
16.732
  0
LINE
  8
0
 10
8
 20
16.732
 11
7.61803
 21
16.9021
  0
LINE
  8
0
 10
7.61803
 20
16.9021
 11
7.20905
 21
16.989
  0
LINE
  8
0
 10
7.20905
 20
16.989
 11
-7.20905
 21
16.989
  0
LINE
  8
0
 10
-7.20905
 20
16.989
 11
-7.61803
 21
16.9021
  0
LINE
  8
0
 10
-7.61803
 20
16.9021
 11
-8
 21
16.732
  0
LINE
  8
0
 10
-8
 20
16.732
 11
-8.33826
 21
16.4863
  0
LINE
  8
0
 10
-8.33826
 20
16.4863
 11
-8.61803
 21
16.1756
  0
LINE
  8
0
 10
-8.61803
 20
16.1756
 11
-8.82709
 21
15.8135
  0
LINE
  8
0
 10
-8.82709
 20
15.8135
 11
-8.95628
 21
15.4158
  0
LINE
  8
0
 10
-8.95628
 20
15.4158
 11
-9
 21
15
  0
LINE
  8
0
 10
-9
 20
15
 11
-9
 21
-15
  0
LINE
  8
0
 10
-9
 20
-15
 11
-8.95628
 21
-15.4158
  0
LINE
  8
0
 10
-8.95628
 20
-15.4158
 11
-8.82709
 21
-15.8135
  0
LINE
  8
0
 10
-8.82709
 20
-15.8135
 11
-8.61803
 21
-16.1756
  0
LINE
  8
0
 10
-8.61803
 20
-16.1756
 11
-8.33826
 21
-16.4863
  0
LINE
  8
0
 10
-8.33826
 20
-16.4863
 11
-8
 21
-16.732
  0
LINE
  8
0
 10
-8
 20
-16.732
 11
-7.61803
 21
-16.9021
  0
LINE
  8
0
 10
-7.61803
 20
-16.9021
 11
-7.20905
 21
-16.989
  0
LINE
  8
0
 10
-7.20905
 20
-16.989
 11
7.20905
 21
-16.989
  0
LINE
  8
0
 10
7.20905
 20
-16.989
 11
7.61803
 21
-16.9021
  0
LINE
  8
0
 10
6.89494
 20
14.0005
 11
6.68944
 21
14.0442
  0
LINE
  8
0
 10
6.68944
 20
14.0442
 11
6.4975
 21
14.1296
  0
LINE
  8
0
 10
6.4975
 20
14.1296
 11
6.32751
 21
14.2531
  0
LINE
  8
0
 10
6.32751
 20
14.2531
 11
6.18694
 21
14.4093
  0
LINE
  8
0
 10
6.18694
 20
14.4093
 11
6.08188
 21
14.5912
  0
LINE
  8
0
 10
6.08188
 20
14.5912
 11
6.01695
 21
14.791
  0
LINE
  8
0
 10
6.01695
 20
14.791
 11
5.995
 21
15
  0
LINE
  8
0
 10
5.995
 20
15
 11
6.01695
 21
15.2089
  0
LINE
  8
0
 10
6.01695
 20
15.2089
 11
6.08188
 21
15.4088
  0
LINE
  8
0
 10
6.08188
 20
15.4088
 11
6.18694
 21
15.5907
  0
LINE
  8
0
 10
6.18694
 20
15.5907
 11
6.32751
 21
15.7469
  0
LINE
  8
0
 10
6.32751
 20
15.7469
 11
6.4975
 21
15.8703
  0
LINE
  8
0
 10
6.4975
 20
15.8703
 11
6.68944
 21
15.9558
  0
LINE
  8
0
 10
6.68944
 20
15.9558
 11
6.89494
 21
15.9995
  0
LINE
  8
0
 10
6.89494
 20
15.9995
 11
7.10504
 21
15.9995
  0
LINE
  8
0
 10
7.10504
 20
15.9995
 11
7.31055
 21
15.9558
  0
LINE
  8
0
 10
7.31055
 20
15.9558
 11
7.50249
 21
15.8703
  0
LINE
  8
0
 10
7.50249
 20
15.8703
 11
7.67247
 21
15.7469
  0
LINE
  8
0
 10
7.67247
 20
15.7469
 11
7.81305
 21
15.5907
  0
LINE
  8
0
 10
7.81305
 20
15.5907
 11
7.91811
 21
15.4088
  0
LINE
  8
0
 10
7.91811
 20
15.4088
 11
7.98303
 21
15.2089
  0
LINE
  8
0
 10
7.98303
 20
15.2089
 11
8.00499
 21
15
  0
LINE
  8
0
 10
8.00499
 20
15
 11
7.98303
 21
14.791
  0
LINE
  8
0
 10
7.98303
 20
14.791
 11
7.91811
 21
14.5912
  0
LINE
  8
0
 10
7.91811
 20
14.5912
 11
7.81305
 21
14.4093
  0
LINE
  8
0
 10
7.81305
 20
14.4093
 11
7.67247
 21
14.2531
  0
LINE
  8
0
 10
7.67247
 20
14.2531
 11
7.50249
 21
14.1296
  0
LINE
  8
0
 10
7.50249
 20
14.1296
 11
7.31055
 21
14.0442
  0
LINE
  8
0
 10
7.31055
 20
14.0442
 11
7.10504
 21
14.0005
  0
LINE
  8
0
 10
7.10504
 20
14.0005
 11
6.89494
 21
14.0005
  0
LINE
  8
0
 10
-7.10504
 20
14.0005
 11
-7.31055
 21
14.0442
  0
LINE
  8
0
 10
-7.31055
 20
14.0442
 11
-7.50249
 21
14.1296
  0
LINE
  8
0
 10
-7.50249
 20
14.1296
 11
-7.67247
 21
14.2531
  0
LINE
  8
0
 10
-7.67247
 20
14.2531
 11
-7.81305
 21
14.4093
  0
LINE
  8
0
 10
-7.81305
 20
14.4093
 11
-7.91811
 21
14.5912
  0
LINE
  8
0
 10
-7.91811
 20
14.5912
 11
-7.98303
 21
14.791
  0
LINE
  8
0
 10
-7.98303
 20
14.791
 11
-8.00499
 21
15
  0
LINE
  8
0
 10
-8.00499
 20
15
 11
-7.98303
 21
15.2089
  0
LINE
  8
0
 10
-7.98303
 20
15.2089
 11
-7.91811
 21
15.4088
  0
LINE
  8
0
 10
-7.91811
 20
15.4088
 11
-7.81305
 21
15.5907
  0
LINE
  8
0
 10
-7.81305
 20
15.5907
 11
-7.67247
 21
15.7469
  0
LINE
  8
0
 10
-7.67247
 20
15.7469
 11
-7.50249
 21
15.8703
  0
LINE
  8
0
 10
-7.50249
 20
15.8703
 11
-7.31055
 21
15.9558
  0
LINE
  8
0
 10
-7.31055
 20
15.9558
 11
-7.10504
 21
15.9995
  0
LINE
  8
0
 10
-7.10504
 20
15.9995
 11
-6.89494
 21
15.9995
  0
LINE
  8
0
 10
-6.89494
 20
15.9995
 11
-6.68944
 21
15.9558
  0
LINE
  8
0
 10
-6.68944
 20
15.9558
 11
-6.4975
 21
15.8703
  0
LINE
  8
0
 10
-6.4975
 20
15.8703
 11
-6.32751
 21
15.7469
  0
LINE
  8
0
 10
-6.32751
 20
15.7469
 11
-6.18694
 21
15.5907
  0
LINE
  8
0
 10
-6.18694
 20
15.5907
 11
-6.08188
 21
15.4088
  0
LINE
  8
0
 10
-6.08188
 20
15.4088
 11
-6.01695
 21
15.2089
  0
LINE
  8
0
 10
-6.01695
 20
15.2089
 11
-5.995
 21
15
  0
LINE
  8
0
 10
-5.995
 20
15
 11
-6.01695
 21
14.791
  0
LINE
  8
0
 10
-6.01695
 20
14.791
 11
-6.08188
 21
14.5912
  0
LINE
  8
0
 10
-6.08188
 20
14.5912
 11
-6.18694
 21
14.4093
  0
LINE
  8
0
 10
-6.18694
 20
14.4093
 11
-6.32751
 21
14.2531
  0
LINE
  8
0
 10
-6.32751
 20
14.2531
 11
-6.4975
 21
14.1296
  0
LINE
  8
0
 10
-6.4975
 20
14.1296
 11
-6.68944
 21
14.0442
  0
LINE
  8
0
 10
-6.68944
 20
14.0442
 11
-6.89494
 21
14.0005
  0
LINE
  8
0
 10
-6.89494
 20
14.0005
 11
-7.10504
 21
14.0005
  0
LINE
  8
0
 10
6.89494
 20
-15.9995
 11
6.68944
 21
-15.9558
  0
LINE
  8
0
 10
6.68944
 20
-15.9558
 11
6.4975
 21
-15.8703
  0
LINE
  8
0
 10
6.4975
 20
-15.8703
 11
6.32751
 21
-15.7469
  0
LINE
  8
0
 10
6.32751
 20
-15.7469
 11
6.18694
 21
-15.5907
  0
LINE
  8
0
 10
6.18694
 20
-15.5907
 11
6.08188
 21
-15.4088
  0
LINE
  8
0
 10
6.08188
 20
-15.4088
 11
6.01695
 21
-15.2089
  0
LINE
  8
0
 10
6.01695
 20
-15.2089
 11
5.995
 21
-15
  0
LINE
  8
0
 10
5.995
 20
-15
 11
6.01695
 21
-14.791
  0
LINE
  8
0
 10
6.01695
 20
-14.791
 11
6.08188
 21
-14.5912
  0
LINE
  8
0
 10
6.08188
 20
-14.5912
 11
6.18694
 21
-14.4093
  0
LINE
  8
0
 10
6.18694
 20
-14.4093
 11
6.32751
 21
-14.2531
  0
LINE
  8
0
 10
6.32751
 20
-14.2531
 11
6.4975
 21
-14.1296
  0
LINE
  8
0
 10
6.4975
 20
-14.1296
 11
6.68944
 21
-14.0442
  0
LINE
  8
0
 10
6.68944
 20
-14.0442
 11
6.89494
 21
-14.0005
  0
LINE
  8
0
 10
6.89494
 20
-14.0005
 11
7.10504
 21
-14.0005
  0
LINE
  8
0
 10
7.10504
 20
-14.0005
 11
7.31055
 21
-14.0442
  0
LINE
  8
0
 10
7.31055
 20
-14.0442
 11
7.50249
 21
-14.1296
  0
LINE
  8
0
 10
7.50249
 20
-14.1296
 11
7.67247
 21
-14.2531
  0
LINE
  8
0
 10
7.67247
 20
-14.2531
 11
7.81305
 21
-14.4093
  0
LINE
  8
0
 10
7.81305
 20
-14.4093
 11
7.91811
 21
-14.5912
  0
LINE
  8
0
 10
7.91811
 20
-14.5912
 11
7.98303
 21
-14.791
  0
LINE
  8
0
 10
7.98303
 20
-14.791
 11
8.00499
 21
-15
  0
LINE
  8
0
 10
8.00499
 20
-15
 11
7.98303
 21
-15.2089
  0
LINE
  8
0
 10
7.98303
 20
-15.2089
 11
7.91811
 21
-15.4088
  0
LINE
  8
0
 10
7.91811
 20
-15.4088
 11
7.81305
 21
-15.5907
  0
LINE
  8
0
 10
7.81305
 20
-15.5907
 11
7.67247
 21
-15.7469
  0
LINE
  8
0
 10
7.67247
 20
-15.7469
 11
7.50249
 21
-15.8703
  0
LINE
  8
0
 10
7.50249
 20
-15.8703
 11
7.31055
 21
-15.9558
  0
LINE
  8
0
 10
7.31055
 20
-15.9558
 11
7.10504
 21
-15.9995
  0
LINE
  8
0
 10
7.10504
 20
-15.9995
 11
6.89494
 21
-15.9995
  0
LINE
  8
0
 10
-7.10504
 20
-15.9995
 11
-7.31055
 21
-15.9558
  0
LINE
  8
0
 10
-7.31055
 20
-15.9558
 11
-7.50249
 21
-15.8703
  0
LINE
  8
0
 10
-7.50249
 20
-15.8703
 11
-7.67247
 21
-15.7469
  0
LINE
  8
0
 10
-7.67247
 20
-15.7469
 11
-7.81305
 21
-15.5907
  0
LINE
  8
0
 10
-7.81305
 20
-15.5907
 11
-7.91811
 21
-15.4088
  0
LINE
  8
0
 10
-7.91811
 20
-15.4088
 11
-7.98303
 21
-15.2089
  0
LINE
  8
0
 10
-7.98303
 20
-15.2089
 11
-8.00499
 21
-15
  0
LINE
  8
0
 10
-8.00499
 20
-15
 11
-7.98303
 21
-14.791
  0
LINE
  8
0
 10
-7.98303
 20
-14.791
 11
-7.91811
 21
-14.5912
  0
LINE
  8
0
 10
-7.91811
 20
-14.5912
 11
-7.81305
 21
-14.4093
  0
LINE
  8
0
 10
-7.81305
 20
-14.4093
 11
-7.67247
 21
-14.2531
  0
LINE
  8
0
 10
-7.67247
 20
-14.2531
 11
-7.50249
 21
-14.1296
  0
LINE
  8
0
 10
-7.50249
 20
-14.1296
 11
-7.31055
 21
-14.0442
  0
LINE
  8
0
 10
-7.31055
 20
-14.0442
 11
-7.10504
 21
-14.0005
  0
LINE
  8
0
 10
-7.10504
 20
-14.0005
 11
-6.89494
 21
-14.0005
  0
LINE
  8
0
 10
-6.89494
 20
-14.0005
 11
-6.68944
 21
-14.0442
  0
LINE
  8
0
 10
-6.68944
 20
-14.0442
 11
-6.4975
 21
-14.1296
  0
LINE
  8
0
 10
-6.4975
 20
-14.1296
 11
-6.32751
 21
-14.2531
  0
LINE
  8
0
 10
-6.32751
 20
-14.2531
 11
-6.18694
 21
-14.4093
  0
LINE
  8
0
 10
-6.18694
 20
-14.4093
 11
-6.08188
 21
-14.5912
  0
LINE
  8
0
 10
-6.08188
 20
-14.5912
 11
-6.01695
 21
-14.791
  0
LINE
  8
0
 10
-6.01695
 20
-14.791
 11
-5.995
 21
-15
  0
LINE
  8
0
 10
-5.995
 20
-15
 11
-6.01695
 21
-15.2089
  0
LINE
  8
0
 10
-6.01695
 20
-15.2089
 11
-6.08188
 21
-15.4088
  0
LINE
  8
0
 10
-6.08188
 20
-15.4088
 11
-6.18694
 21
-15.5907
  0
LINE
  8
0
 10
-6.18694
 20
-15.5907
 11
-6.32751
 21
-15.7469
  0
LINE
  8
0
 10
-6.32751
 20
-15.7469
 11
-6.4975
 21
-15.8703
  0
LINE
  8
0
 10
-6.4975
 20
-15.8703
 11
-6.68944
 21
-15.9558
  0
LINE
  8
0
 10
-6.68944
 20
-15.9558
 11
-6.89494
 21
-15.9995
  0
LINE
  8
0
 10
-6.89494
 20
-15.9995
 11
-7.10504
 21
-15.9995
  0
ENDSEC
  0
SECTION
  2
OBJECTS
  0
DICTIONARY
  0
ENDSEC
  0
EOF
