G04 #@! TF.GenerationSoftware,KiCad,Pcbnew,5.0.2+dfsg1-1*
G04 #@! TF.CreationDate,2019-04-22T18:48:39+01:00*
G04 #@! TF.ProjectId,hawk,6861776b-2e6b-4696-9361-645f70636258,rev?*
G04 #@! TF.SameCoordinates,Original*
G04 #@! TF.FileFunction,Paste,Top*
G04 #@! TF.FilePolarity,Positive*
%FSLAX46Y46*%
G04 Gerber Fmt 4.6, Leading zero omitted, Abs format (unit mm)*
G04 Created by KiCad (PCBNEW 5.0.2+dfsg1-1) date Mon 22 Apr 2019 18:48:39 BST*
%MOMM*%
%LPD*%
G01*
G04 APERTURE LIST*
%ADD10C,0.100000*%
%ADD11C,1.150000*%
%ADD12R,1.500000X0.600000*%
%ADD13R,0.800000X0.900000*%
G04 APERTURE END LIST*
D10*
G04 #@! TO.C,C1*
G36*
X154124505Y-77501204D02*
X154148773Y-77504804D01*
X154172572Y-77510765D01*
X154195671Y-77519030D01*
X154217850Y-77529520D01*
X154238893Y-77542132D01*
X154258599Y-77556747D01*
X154276777Y-77573223D01*
X154293253Y-77591401D01*
X154307868Y-77611107D01*
X154320480Y-77632150D01*
X154330970Y-77654329D01*
X154339235Y-77677428D01*
X154345196Y-77701227D01*
X154348796Y-77725495D01*
X154350000Y-77749999D01*
X154350000Y-78650001D01*
X154348796Y-78674505D01*
X154345196Y-78698773D01*
X154339235Y-78722572D01*
X154330970Y-78745671D01*
X154320480Y-78767850D01*
X154307868Y-78788893D01*
X154293253Y-78808599D01*
X154276777Y-78826777D01*
X154258599Y-78843253D01*
X154238893Y-78857868D01*
X154217850Y-78870480D01*
X154195671Y-78880970D01*
X154172572Y-78889235D01*
X154148773Y-78895196D01*
X154124505Y-78898796D01*
X154100001Y-78900000D01*
X153449999Y-78900000D01*
X153425495Y-78898796D01*
X153401227Y-78895196D01*
X153377428Y-78889235D01*
X153354329Y-78880970D01*
X153332150Y-78870480D01*
X153311107Y-78857868D01*
X153291401Y-78843253D01*
X153273223Y-78826777D01*
X153256747Y-78808599D01*
X153242132Y-78788893D01*
X153229520Y-78767850D01*
X153219030Y-78745671D01*
X153210765Y-78722572D01*
X153204804Y-78698773D01*
X153201204Y-78674505D01*
X153200000Y-78650001D01*
X153200000Y-77749999D01*
X153201204Y-77725495D01*
X153204804Y-77701227D01*
X153210765Y-77677428D01*
X153219030Y-77654329D01*
X153229520Y-77632150D01*
X153242132Y-77611107D01*
X153256747Y-77591401D01*
X153273223Y-77573223D01*
X153291401Y-77556747D01*
X153311107Y-77542132D01*
X153332150Y-77529520D01*
X153354329Y-77519030D01*
X153377428Y-77510765D01*
X153401227Y-77504804D01*
X153425495Y-77501204D01*
X153449999Y-77500000D01*
X154100001Y-77500000D01*
X154124505Y-77501204D01*
X154124505Y-77501204D01*
G37*
D11*
X153775000Y-78200000D03*
D10*
G36*
X156174505Y-77501204D02*
X156198773Y-77504804D01*
X156222572Y-77510765D01*
X156245671Y-77519030D01*
X156267850Y-77529520D01*
X156288893Y-77542132D01*
X156308599Y-77556747D01*
X156326777Y-77573223D01*
X156343253Y-77591401D01*
X156357868Y-77611107D01*
X156370480Y-77632150D01*
X156380970Y-77654329D01*
X156389235Y-77677428D01*
X156395196Y-77701227D01*
X156398796Y-77725495D01*
X156400000Y-77749999D01*
X156400000Y-78650001D01*
X156398796Y-78674505D01*
X156395196Y-78698773D01*
X156389235Y-78722572D01*
X156380970Y-78745671D01*
X156370480Y-78767850D01*
X156357868Y-78788893D01*
X156343253Y-78808599D01*
X156326777Y-78826777D01*
X156308599Y-78843253D01*
X156288893Y-78857868D01*
X156267850Y-78870480D01*
X156245671Y-78880970D01*
X156222572Y-78889235D01*
X156198773Y-78895196D01*
X156174505Y-78898796D01*
X156150001Y-78900000D01*
X155499999Y-78900000D01*
X155475495Y-78898796D01*
X155451227Y-78895196D01*
X155427428Y-78889235D01*
X155404329Y-78880970D01*
X155382150Y-78870480D01*
X155361107Y-78857868D01*
X155341401Y-78843253D01*
X155323223Y-78826777D01*
X155306747Y-78808599D01*
X155292132Y-78788893D01*
X155279520Y-78767850D01*
X155269030Y-78745671D01*
X155260765Y-78722572D01*
X155254804Y-78698773D01*
X155251204Y-78674505D01*
X155250000Y-78650001D01*
X155250000Y-77749999D01*
X155251204Y-77725495D01*
X155254804Y-77701227D01*
X155260765Y-77677428D01*
X155269030Y-77654329D01*
X155279520Y-77632150D01*
X155292132Y-77611107D01*
X155306747Y-77591401D01*
X155323223Y-77573223D01*
X155341401Y-77556747D01*
X155361107Y-77542132D01*
X155382150Y-77529520D01*
X155404329Y-77519030D01*
X155427428Y-77510765D01*
X155451227Y-77504804D01*
X155475495Y-77501204D01*
X155499999Y-77500000D01*
X156150001Y-77500000D01*
X156174505Y-77501204D01*
X156174505Y-77501204D01*
G37*
D11*
X155825000Y-78200000D03*
G04 #@! TD*
D10*
G04 #@! TO.C,C2*
G36*
X154774505Y-73401204D02*
X154798773Y-73404804D01*
X154822572Y-73410765D01*
X154845671Y-73419030D01*
X154867850Y-73429520D01*
X154888893Y-73442132D01*
X154908599Y-73456747D01*
X154926777Y-73473223D01*
X154943253Y-73491401D01*
X154957868Y-73511107D01*
X154970480Y-73532150D01*
X154980970Y-73554329D01*
X154989235Y-73577428D01*
X154995196Y-73601227D01*
X154998796Y-73625495D01*
X155000000Y-73649999D01*
X155000000Y-74300001D01*
X154998796Y-74324505D01*
X154995196Y-74348773D01*
X154989235Y-74372572D01*
X154980970Y-74395671D01*
X154970480Y-74417850D01*
X154957868Y-74438893D01*
X154943253Y-74458599D01*
X154926777Y-74476777D01*
X154908599Y-74493253D01*
X154888893Y-74507868D01*
X154867850Y-74520480D01*
X154845671Y-74530970D01*
X154822572Y-74539235D01*
X154798773Y-74545196D01*
X154774505Y-74548796D01*
X154750001Y-74550000D01*
X153849999Y-74550000D01*
X153825495Y-74548796D01*
X153801227Y-74545196D01*
X153777428Y-74539235D01*
X153754329Y-74530970D01*
X153732150Y-74520480D01*
X153711107Y-74507868D01*
X153691401Y-74493253D01*
X153673223Y-74476777D01*
X153656747Y-74458599D01*
X153642132Y-74438893D01*
X153629520Y-74417850D01*
X153619030Y-74395671D01*
X153610765Y-74372572D01*
X153604804Y-74348773D01*
X153601204Y-74324505D01*
X153600000Y-74300001D01*
X153600000Y-73649999D01*
X153601204Y-73625495D01*
X153604804Y-73601227D01*
X153610765Y-73577428D01*
X153619030Y-73554329D01*
X153629520Y-73532150D01*
X153642132Y-73511107D01*
X153656747Y-73491401D01*
X153673223Y-73473223D01*
X153691401Y-73456747D01*
X153711107Y-73442132D01*
X153732150Y-73429520D01*
X153754329Y-73419030D01*
X153777428Y-73410765D01*
X153801227Y-73404804D01*
X153825495Y-73401204D01*
X153849999Y-73400000D01*
X154750001Y-73400000D01*
X154774505Y-73401204D01*
X154774505Y-73401204D01*
G37*
D11*
X154300000Y-73975000D03*
D10*
G36*
X154774505Y-75451204D02*
X154798773Y-75454804D01*
X154822572Y-75460765D01*
X154845671Y-75469030D01*
X154867850Y-75479520D01*
X154888893Y-75492132D01*
X154908599Y-75506747D01*
X154926777Y-75523223D01*
X154943253Y-75541401D01*
X154957868Y-75561107D01*
X154970480Y-75582150D01*
X154980970Y-75604329D01*
X154989235Y-75627428D01*
X154995196Y-75651227D01*
X154998796Y-75675495D01*
X155000000Y-75699999D01*
X155000000Y-76350001D01*
X154998796Y-76374505D01*
X154995196Y-76398773D01*
X154989235Y-76422572D01*
X154980970Y-76445671D01*
X154970480Y-76467850D01*
X154957868Y-76488893D01*
X154943253Y-76508599D01*
X154926777Y-76526777D01*
X154908599Y-76543253D01*
X154888893Y-76557868D01*
X154867850Y-76570480D01*
X154845671Y-76580970D01*
X154822572Y-76589235D01*
X154798773Y-76595196D01*
X154774505Y-76598796D01*
X154750001Y-76600000D01*
X153849999Y-76600000D01*
X153825495Y-76598796D01*
X153801227Y-76595196D01*
X153777428Y-76589235D01*
X153754329Y-76580970D01*
X153732150Y-76570480D01*
X153711107Y-76557868D01*
X153691401Y-76543253D01*
X153673223Y-76526777D01*
X153656747Y-76508599D01*
X153642132Y-76488893D01*
X153629520Y-76467850D01*
X153619030Y-76445671D01*
X153610765Y-76422572D01*
X153604804Y-76398773D01*
X153601204Y-76374505D01*
X153600000Y-76350001D01*
X153600000Y-75699999D01*
X153601204Y-75675495D01*
X153604804Y-75651227D01*
X153610765Y-75627428D01*
X153619030Y-75604329D01*
X153629520Y-75582150D01*
X153642132Y-75561107D01*
X153656747Y-75541401D01*
X153673223Y-75523223D01*
X153691401Y-75506747D01*
X153711107Y-75492132D01*
X153732150Y-75479520D01*
X153754329Y-75469030D01*
X153777428Y-75460765D01*
X153801227Y-75454804D01*
X153825495Y-75451204D01*
X153849999Y-75450000D01*
X154750001Y-75450000D01*
X154774505Y-75451204D01*
X154774505Y-75451204D01*
G37*
D11*
X154300000Y-76025000D03*
G04 #@! TD*
D10*
G04 #@! TO.C,C3*
G36*
X158774505Y-71301204D02*
X158798773Y-71304804D01*
X158822572Y-71310765D01*
X158845671Y-71319030D01*
X158867850Y-71329520D01*
X158888893Y-71342132D01*
X158908599Y-71356747D01*
X158926777Y-71373223D01*
X158943253Y-71391401D01*
X158957868Y-71411107D01*
X158970480Y-71432150D01*
X158980970Y-71454329D01*
X158989235Y-71477428D01*
X158995196Y-71501227D01*
X158998796Y-71525495D01*
X159000000Y-71549999D01*
X159000000Y-72450001D01*
X158998796Y-72474505D01*
X158995196Y-72498773D01*
X158989235Y-72522572D01*
X158980970Y-72545671D01*
X158970480Y-72567850D01*
X158957868Y-72588893D01*
X158943253Y-72608599D01*
X158926777Y-72626777D01*
X158908599Y-72643253D01*
X158888893Y-72657868D01*
X158867850Y-72670480D01*
X158845671Y-72680970D01*
X158822572Y-72689235D01*
X158798773Y-72695196D01*
X158774505Y-72698796D01*
X158750001Y-72700000D01*
X158099999Y-72700000D01*
X158075495Y-72698796D01*
X158051227Y-72695196D01*
X158027428Y-72689235D01*
X158004329Y-72680970D01*
X157982150Y-72670480D01*
X157961107Y-72657868D01*
X157941401Y-72643253D01*
X157923223Y-72626777D01*
X157906747Y-72608599D01*
X157892132Y-72588893D01*
X157879520Y-72567850D01*
X157869030Y-72545671D01*
X157860765Y-72522572D01*
X157854804Y-72498773D01*
X157851204Y-72474505D01*
X157850000Y-72450001D01*
X157850000Y-71549999D01*
X157851204Y-71525495D01*
X157854804Y-71501227D01*
X157860765Y-71477428D01*
X157869030Y-71454329D01*
X157879520Y-71432150D01*
X157892132Y-71411107D01*
X157906747Y-71391401D01*
X157923223Y-71373223D01*
X157941401Y-71356747D01*
X157961107Y-71342132D01*
X157982150Y-71329520D01*
X158004329Y-71319030D01*
X158027428Y-71310765D01*
X158051227Y-71304804D01*
X158075495Y-71301204D01*
X158099999Y-71300000D01*
X158750001Y-71300000D01*
X158774505Y-71301204D01*
X158774505Y-71301204D01*
G37*
D11*
X158425000Y-72000000D03*
D10*
G36*
X156724505Y-71301204D02*
X156748773Y-71304804D01*
X156772572Y-71310765D01*
X156795671Y-71319030D01*
X156817850Y-71329520D01*
X156838893Y-71342132D01*
X156858599Y-71356747D01*
X156876777Y-71373223D01*
X156893253Y-71391401D01*
X156907868Y-71411107D01*
X156920480Y-71432150D01*
X156930970Y-71454329D01*
X156939235Y-71477428D01*
X156945196Y-71501227D01*
X156948796Y-71525495D01*
X156950000Y-71549999D01*
X156950000Y-72450001D01*
X156948796Y-72474505D01*
X156945196Y-72498773D01*
X156939235Y-72522572D01*
X156930970Y-72545671D01*
X156920480Y-72567850D01*
X156907868Y-72588893D01*
X156893253Y-72608599D01*
X156876777Y-72626777D01*
X156858599Y-72643253D01*
X156838893Y-72657868D01*
X156817850Y-72670480D01*
X156795671Y-72680970D01*
X156772572Y-72689235D01*
X156748773Y-72695196D01*
X156724505Y-72698796D01*
X156700001Y-72700000D01*
X156049999Y-72700000D01*
X156025495Y-72698796D01*
X156001227Y-72695196D01*
X155977428Y-72689235D01*
X155954329Y-72680970D01*
X155932150Y-72670480D01*
X155911107Y-72657868D01*
X155891401Y-72643253D01*
X155873223Y-72626777D01*
X155856747Y-72608599D01*
X155842132Y-72588893D01*
X155829520Y-72567850D01*
X155819030Y-72545671D01*
X155810765Y-72522572D01*
X155804804Y-72498773D01*
X155801204Y-72474505D01*
X155800000Y-72450001D01*
X155800000Y-71549999D01*
X155801204Y-71525495D01*
X155804804Y-71501227D01*
X155810765Y-71477428D01*
X155819030Y-71454329D01*
X155829520Y-71432150D01*
X155842132Y-71411107D01*
X155856747Y-71391401D01*
X155873223Y-71373223D01*
X155891401Y-71356747D01*
X155911107Y-71342132D01*
X155932150Y-71329520D01*
X155954329Y-71319030D01*
X155977428Y-71310765D01*
X156001227Y-71304804D01*
X156025495Y-71301204D01*
X156049999Y-71300000D01*
X156700001Y-71300000D01*
X156724505Y-71301204D01*
X156724505Y-71301204D01*
G37*
D11*
X156375000Y-72000000D03*
G04 #@! TD*
D10*
G04 #@! TO.C,D1*
G36*
X152174505Y-75101204D02*
X152198773Y-75104804D01*
X152222572Y-75110765D01*
X152245671Y-75119030D01*
X152267850Y-75129520D01*
X152288893Y-75142132D01*
X152308599Y-75156747D01*
X152326777Y-75173223D01*
X152343253Y-75191401D01*
X152357868Y-75211107D01*
X152370480Y-75232150D01*
X152380970Y-75254329D01*
X152389235Y-75277428D01*
X152395196Y-75301227D01*
X152398796Y-75325495D01*
X152400000Y-75349999D01*
X152400000Y-76000001D01*
X152398796Y-76024505D01*
X152395196Y-76048773D01*
X152389235Y-76072572D01*
X152380970Y-76095671D01*
X152370480Y-76117850D01*
X152357868Y-76138893D01*
X152343253Y-76158599D01*
X152326777Y-76176777D01*
X152308599Y-76193253D01*
X152288893Y-76207868D01*
X152267850Y-76220480D01*
X152245671Y-76230970D01*
X152222572Y-76239235D01*
X152198773Y-76245196D01*
X152174505Y-76248796D01*
X152150001Y-76250000D01*
X151249999Y-76250000D01*
X151225495Y-76248796D01*
X151201227Y-76245196D01*
X151177428Y-76239235D01*
X151154329Y-76230970D01*
X151132150Y-76220480D01*
X151111107Y-76207868D01*
X151091401Y-76193253D01*
X151073223Y-76176777D01*
X151056747Y-76158599D01*
X151042132Y-76138893D01*
X151029520Y-76117850D01*
X151019030Y-76095671D01*
X151010765Y-76072572D01*
X151004804Y-76048773D01*
X151001204Y-76024505D01*
X151000000Y-76000001D01*
X151000000Y-75349999D01*
X151001204Y-75325495D01*
X151004804Y-75301227D01*
X151010765Y-75277428D01*
X151019030Y-75254329D01*
X151029520Y-75232150D01*
X151042132Y-75211107D01*
X151056747Y-75191401D01*
X151073223Y-75173223D01*
X151091401Y-75156747D01*
X151111107Y-75142132D01*
X151132150Y-75129520D01*
X151154329Y-75119030D01*
X151177428Y-75110765D01*
X151201227Y-75104804D01*
X151225495Y-75101204D01*
X151249999Y-75100000D01*
X152150001Y-75100000D01*
X152174505Y-75101204D01*
X152174505Y-75101204D01*
G37*
D11*
X151700000Y-75675000D03*
D10*
G36*
X152174505Y-77151204D02*
X152198773Y-77154804D01*
X152222572Y-77160765D01*
X152245671Y-77169030D01*
X152267850Y-77179520D01*
X152288893Y-77192132D01*
X152308599Y-77206747D01*
X152326777Y-77223223D01*
X152343253Y-77241401D01*
X152357868Y-77261107D01*
X152370480Y-77282150D01*
X152380970Y-77304329D01*
X152389235Y-77327428D01*
X152395196Y-77351227D01*
X152398796Y-77375495D01*
X152400000Y-77399999D01*
X152400000Y-78050001D01*
X152398796Y-78074505D01*
X152395196Y-78098773D01*
X152389235Y-78122572D01*
X152380970Y-78145671D01*
X152370480Y-78167850D01*
X152357868Y-78188893D01*
X152343253Y-78208599D01*
X152326777Y-78226777D01*
X152308599Y-78243253D01*
X152288893Y-78257868D01*
X152267850Y-78270480D01*
X152245671Y-78280970D01*
X152222572Y-78289235D01*
X152198773Y-78295196D01*
X152174505Y-78298796D01*
X152150001Y-78300000D01*
X151249999Y-78300000D01*
X151225495Y-78298796D01*
X151201227Y-78295196D01*
X151177428Y-78289235D01*
X151154329Y-78280970D01*
X151132150Y-78270480D01*
X151111107Y-78257868D01*
X151091401Y-78243253D01*
X151073223Y-78226777D01*
X151056747Y-78208599D01*
X151042132Y-78188893D01*
X151029520Y-78167850D01*
X151019030Y-78145671D01*
X151010765Y-78122572D01*
X151004804Y-78098773D01*
X151001204Y-78074505D01*
X151000000Y-78050001D01*
X151000000Y-77399999D01*
X151001204Y-77375495D01*
X151004804Y-77351227D01*
X151010765Y-77327428D01*
X151019030Y-77304329D01*
X151029520Y-77282150D01*
X151042132Y-77261107D01*
X151056747Y-77241401D01*
X151073223Y-77223223D01*
X151091401Y-77206747D01*
X151111107Y-77192132D01*
X151132150Y-77179520D01*
X151154329Y-77169030D01*
X151177428Y-77160765D01*
X151201227Y-77154804D01*
X151225495Y-77151204D01*
X151249999Y-77150000D01*
X152150001Y-77150000D01*
X152174505Y-77151204D01*
X152174505Y-77151204D01*
G37*
D11*
X151700000Y-77725000D03*
G04 #@! TD*
D10*
G04 #@! TO.C,R1*
G36*
X158774505Y-69051204D02*
X158798773Y-69054804D01*
X158822572Y-69060765D01*
X158845671Y-69069030D01*
X158867850Y-69079520D01*
X158888893Y-69092132D01*
X158908599Y-69106747D01*
X158926777Y-69123223D01*
X158943253Y-69141401D01*
X158957868Y-69161107D01*
X158970480Y-69182150D01*
X158980970Y-69204329D01*
X158989235Y-69227428D01*
X158995196Y-69251227D01*
X158998796Y-69275495D01*
X159000000Y-69299999D01*
X159000000Y-69950001D01*
X158998796Y-69974505D01*
X158995196Y-69998773D01*
X158989235Y-70022572D01*
X158980970Y-70045671D01*
X158970480Y-70067850D01*
X158957868Y-70088893D01*
X158943253Y-70108599D01*
X158926777Y-70126777D01*
X158908599Y-70143253D01*
X158888893Y-70157868D01*
X158867850Y-70170480D01*
X158845671Y-70180970D01*
X158822572Y-70189235D01*
X158798773Y-70195196D01*
X158774505Y-70198796D01*
X158750001Y-70200000D01*
X157849999Y-70200000D01*
X157825495Y-70198796D01*
X157801227Y-70195196D01*
X157777428Y-70189235D01*
X157754329Y-70180970D01*
X157732150Y-70170480D01*
X157711107Y-70157868D01*
X157691401Y-70143253D01*
X157673223Y-70126777D01*
X157656747Y-70108599D01*
X157642132Y-70088893D01*
X157629520Y-70067850D01*
X157619030Y-70045671D01*
X157610765Y-70022572D01*
X157604804Y-69998773D01*
X157601204Y-69974505D01*
X157600000Y-69950001D01*
X157600000Y-69299999D01*
X157601204Y-69275495D01*
X157604804Y-69251227D01*
X157610765Y-69227428D01*
X157619030Y-69204329D01*
X157629520Y-69182150D01*
X157642132Y-69161107D01*
X157656747Y-69141401D01*
X157673223Y-69123223D01*
X157691401Y-69106747D01*
X157711107Y-69092132D01*
X157732150Y-69079520D01*
X157754329Y-69069030D01*
X157777428Y-69060765D01*
X157801227Y-69054804D01*
X157825495Y-69051204D01*
X157849999Y-69050000D01*
X158750001Y-69050000D01*
X158774505Y-69051204D01*
X158774505Y-69051204D01*
G37*
D11*
X158300000Y-69625000D03*
D10*
G36*
X158774505Y-67001204D02*
X158798773Y-67004804D01*
X158822572Y-67010765D01*
X158845671Y-67019030D01*
X158867850Y-67029520D01*
X158888893Y-67042132D01*
X158908599Y-67056747D01*
X158926777Y-67073223D01*
X158943253Y-67091401D01*
X158957868Y-67111107D01*
X158970480Y-67132150D01*
X158980970Y-67154329D01*
X158989235Y-67177428D01*
X158995196Y-67201227D01*
X158998796Y-67225495D01*
X159000000Y-67249999D01*
X159000000Y-67900001D01*
X158998796Y-67924505D01*
X158995196Y-67948773D01*
X158989235Y-67972572D01*
X158980970Y-67995671D01*
X158970480Y-68017850D01*
X158957868Y-68038893D01*
X158943253Y-68058599D01*
X158926777Y-68076777D01*
X158908599Y-68093253D01*
X158888893Y-68107868D01*
X158867850Y-68120480D01*
X158845671Y-68130970D01*
X158822572Y-68139235D01*
X158798773Y-68145196D01*
X158774505Y-68148796D01*
X158750001Y-68150000D01*
X157849999Y-68150000D01*
X157825495Y-68148796D01*
X157801227Y-68145196D01*
X157777428Y-68139235D01*
X157754329Y-68130970D01*
X157732150Y-68120480D01*
X157711107Y-68107868D01*
X157691401Y-68093253D01*
X157673223Y-68076777D01*
X157656747Y-68058599D01*
X157642132Y-68038893D01*
X157629520Y-68017850D01*
X157619030Y-67995671D01*
X157610765Y-67972572D01*
X157604804Y-67948773D01*
X157601204Y-67924505D01*
X157600000Y-67900001D01*
X157600000Y-67249999D01*
X157601204Y-67225495D01*
X157604804Y-67201227D01*
X157610765Y-67177428D01*
X157619030Y-67154329D01*
X157629520Y-67132150D01*
X157642132Y-67111107D01*
X157656747Y-67091401D01*
X157673223Y-67073223D01*
X157691401Y-67056747D01*
X157711107Y-67042132D01*
X157732150Y-67029520D01*
X157754329Y-67019030D01*
X157777428Y-67010765D01*
X157801227Y-67004804D01*
X157825495Y-67001204D01*
X157849999Y-67000000D01*
X158750001Y-67000000D01*
X158774505Y-67001204D01*
X158774505Y-67001204D01*
G37*
D11*
X158300000Y-67575000D03*
G04 #@! TD*
D10*
G04 #@! TO.C,R2*
G36*
X149874505Y-75101204D02*
X149898773Y-75104804D01*
X149922572Y-75110765D01*
X149945671Y-75119030D01*
X149967850Y-75129520D01*
X149988893Y-75142132D01*
X150008599Y-75156747D01*
X150026777Y-75173223D01*
X150043253Y-75191401D01*
X150057868Y-75211107D01*
X150070480Y-75232150D01*
X150080970Y-75254329D01*
X150089235Y-75277428D01*
X150095196Y-75301227D01*
X150098796Y-75325495D01*
X150100000Y-75349999D01*
X150100000Y-76000001D01*
X150098796Y-76024505D01*
X150095196Y-76048773D01*
X150089235Y-76072572D01*
X150080970Y-76095671D01*
X150070480Y-76117850D01*
X150057868Y-76138893D01*
X150043253Y-76158599D01*
X150026777Y-76176777D01*
X150008599Y-76193253D01*
X149988893Y-76207868D01*
X149967850Y-76220480D01*
X149945671Y-76230970D01*
X149922572Y-76239235D01*
X149898773Y-76245196D01*
X149874505Y-76248796D01*
X149850001Y-76250000D01*
X148949999Y-76250000D01*
X148925495Y-76248796D01*
X148901227Y-76245196D01*
X148877428Y-76239235D01*
X148854329Y-76230970D01*
X148832150Y-76220480D01*
X148811107Y-76207868D01*
X148791401Y-76193253D01*
X148773223Y-76176777D01*
X148756747Y-76158599D01*
X148742132Y-76138893D01*
X148729520Y-76117850D01*
X148719030Y-76095671D01*
X148710765Y-76072572D01*
X148704804Y-76048773D01*
X148701204Y-76024505D01*
X148700000Y-76000001D01*
X148700000Y-75349999D01*
X148701204Y-75325495D01*
X148704804Y-75301227D01*
X148710765Y-75277428D01*
X148719030Y-75254329D01*
X148729520Y-75232150D01*
X148742132Y-75211107D01*
X148756747Y-75191401D01*
X148773223Y-75173223D01*
X148791401Y-75156747D01*
X148811107Y-75142132D01*
X148832150Y-75129520D01*
X148854329Y-75119030D01*
X148877428Y-75110765D01*
X148901227Y-75104804D01*
X148925495Y-75101204D01*
X148949999Y-75100000D01*
X149850001Y-75100000D01*
X149874505Y-75101204D01*
X149874505Y-75101204D01*
G37*
D11*
X149400000Y-75675000D03*
D10*
G36*
X149874505Y-77151204D02*
X149898773Y-77154804D01*
X149922572Y-77160765D01*
X149945671Y-77169030D01*
X149967850Y-77179520D01*
X149988893Y-77192132D01*
X150008599Y-77206747D01*
X150026777Y-77223223D01*
X150043253Y-77241401D01*
X150057868Y-77261107D01*
X150070480Y-77282150D01*
X150080970Y-77304329D01*
X150089235Y-77327428D01*
X150095196Y-77351227D01*
X150098796Y-77375495D01*
X150100000Y-77399999D01*
X150100000Y-78050001D01*
X150098796Y-78074505D01*
X150095196Y-78098773D01*
X150089235Y-78122572D01*
X150080970Y-78145671D01*
X150070480Y-78167850D01*
X150057868Y-78188893D01*
X150043253Y-78208599D01*
X150026777Y-78226777D01*
X150008599Y-78243253D01*
X149988893Y-78257868D01*
X149967850Y-78270480D01*
X149945671Y-78280970D01*
X149922572Y-78289235D01*
X149898773Y-78295196D01*
X149874505Y-78298796D01*
X149850001Y-78300000D01*
X148949999Y-78300000D01*
X148925495Y-78298796D01*
X148901227Y-78295196D01*
X148877428Y-78289235D01*
X148854329Y-78280970D01*
X148832150Y-78270480D01*
X148811107Y-78257868D01*
X148791401Y-78243253D01*
X148773223Y-78226777D01*
X148756747Y-78208599D01*
X148742132Y-78188893D01*
X148729520Y-78167850D01*
X148719030Y-78145671D01*
X148710765Y-78122572D01*
X148704804Y-78098773D01*
X148701204Y-78074505D01*
X148700000Y-78050001D01*
X148700000Y-77399999D01*
X148701204Y-77375495D01*
X148704804Y-77351227D01*
X148710765Y-77327428D01*
X148719030Y-77304329D01*
X148729520Y-77282150D01*
X148742132Y-77261107D01*
X148756747Y-77241401D01*
X148773223Y-77223223D01*
X148791401Y-77206747D01*
X148811107Y-77192132D01*
X148832150Y-77179520D01*
X148854329Y-77169030D01*
X148877428Y-77160765D01*
X148901227Y-77154804D01*
X148925495Y-77151204D01*
X148949999Y-77150000D01*
X149850001Y-77150000D01*
X149874505Y-77151204D01*
X149874505Y-77151204D01*
G37*
D11*
X149400000Y-77725000D03*
G04 #@! TD*
D12*
G04 #@! TO.C,U1*
X148400000Y-80890000D03*
X148400000Y-82160000D03*
X148400000Y-83430000D03*
X148400000Y-84700000D03*
X148400000Y-85970000D03*
X148400000Y-87240000D03*
X148400000Y-88510000D03*
X153800000Y-88510000D03*
X153800000Y-87240000D03*
X153800000Y-85970000D03*
X153800000Y-84700000D03*
X153800000Y-83430000D03*
X153800000Y-82160000D03*
X153800000Y-80890000D03*
G04 #@! TD*
D13*
G04 #@! TO.C,U2*
X156550000Y-76100000D03*
X158450000Y-76100000D03*
X157500000Y-74100000D03*
G04 #@! TD*
M02*
