M48
;DRILL file {KiCad 5.0.2+dfsg1-1} date Mon 22 Apr 2019 18:48:59 BST
;FORMAT={-:-/ absolute / metric / decimal}
FMAT,2
METRIC,TZ
T1C0.750
T2C1.000
T3C1.100
T4C2.000
%
G90
G05
T1
X144.5Y-74.
X144.5Y-76.
T2
X157.48Y-81.28
X157.48Y-83.82
X157.48Y-86.36
X157.48Y-88.9
X144.78Y-81.28
X144.78Y-83.82
X144.78Y-86.36
X144.78Y-88.9
X148.52Y-91.7
X148.52Y-94.24
X151.06Y-91.7
X151.06Y-94.24
X153.6Y-91.7
X153.6Y-94.24
T3
X147.9Y-64.5
X147.9Y-69.
X154.4Y-64.5
X154.4Y-69.
T4
X144.1Y-64.4
X158.1Y-94.3
X158.1Y-64.4
X144.1Y-94.3
T0
M30
