G04 #@! TF.GenerationSoftware,KiCad,Pcbnew,5.0.2+dfsg1-1*
G04 #@! TF.CreationDate,2019-04-22T18:48:39+01:00*
G04 #@! TF.ProjectId,hawk,6861776b-2e6b-4696-9361-645f70636258,rev?*
G04 #@! TF.SameCoordinates,Original*
G04 #@! TF.FileFunction,Copper,L1,Top*
G04 #@! TF.FilePolarity,Positive*
%FSLAX46Y46*%
G04 Gerber Fmt 4.6, Leading zero omitted, Abs format (unit mm)*
G04 Created by KiCad (PCBNEW 5.0.2+dfsg1-1) date Mon 22 Apr 2019 18:48:39 BST*
%MOMM*%
%LPD*%
G01*
G04 APERTURE LIST*
G04 #@! TA.AperFunction,ComponentPad*
%ADD10C,3.000000*%
G04 #@! TD*
G04 #@! TA.AperFunction,Conductor*
%ADD11C,0.100000*%
G04 #@! TD*
G04 #@! TA.AperFunction,SMDPad,CuDef*
%ADD12C,1.150000*%
G04 #@! TD*
G04 #@! TA.AperFunction,ComponentPad*
%ADD13R,1.700000X1.700000*%
G04 #@! TD*
G04 #@! TA.AperFunction,ComponentPad*
%ADD14O,1.700000X1.700000*%
G04 #@! TD*
G04 #@! TA.AperFunction,ComponentPad*
%ADD15C,1.200000*%
G04 #@! TD*
G04 #@! TA.AperFunction,ComponentPad*
%ADD16O,1.750000X1.200000*%
G04 #@! TD*
G04 #@! TA.AperFunction,ComponentPad*
%ADD17C,2.000000*%
G04 #@! TD*
G04 #@! TA.AperFunction,SMDPad,CuDef*
%ADD18R,1.500000X0.600000*%
G04 #@! TD*
G04 #@! TA.AperFunction,SMDPad,CuDef*
%ADD19R,0.800000X0.900000*%
G04 #@! TD*
G04 #@! TA.AperFunction,Conductor*
%ADD20C,0.250000*%
G04 #@! TD*
G04 APERTURE END LIST*
D10*
G04 #@! TO.P,REF\002A\002A,1*
G04 #@! TO.N,N/C*
X158100000Y-94300000D03*
G04 #@! TD*
G04 #@! TO.P,REF\002A\002A,1*
G04 #@! TO.N,N/C*
X144100000Y-94300000D03*
G04 #@! TD*
G04 #@! TO.P,REF\002A\002A,1*
G04 #@! TO.N,N/C*
X144100000Y-64400000D03*
G04 #@! TD*
D11*
G04 #@! TO.N,+3V3*
G04 #@! TO.C,C1*
G36*
X154124505Y-77501204D02*
X154148773Y-77504804D01*
X154172572Y-77510765D01*
X154195671Y-77519030D01*
X154217850Y-77529520D01*
X154238893Y-77542132D01*
X154258599Y-77556747D01*
X154276777Y-77573223D01*
X154293253Y-77591401D01*
X154307868Y-77611107D01*
X154320480Y-77632150D01*
X154330970Y-77654329D01*
X154339235Y-77677428D01*
X154345196Y-77701227D01*
X154348796Y-77725495D01*
X154350000Y-77749999D01*
X154350000Y-78650001D01*
X154348796Y-78674505D01*
X154345196Y-78698773D01*
X154339235Y-78722572D01*
X154330970Y-78745671D01*
X154320480Y-78767850D01*
X154307868Y-78788893D01*
X154293253Y-78808599D01*
X154276777Y-78826777D01*
X154258599Y-78843253D01*
X154238893Y-78857868D01*
X154217850Y-78870480D01*
X154195671Y-78880970D01*
X154172572Y-78889235D01*
X154148773Y-78895196D01*
X154124505Y-78898796D01*
X154100001Y-78900000D01*
X153449999Y-78900000D01*
X153425495Y-78898796D01*
X153401227Y-78895196D01*
X153377428Y-78889235D01*
X153354329Y-78880970D01*
X153332150Y-78870480D01*
X153311107Y-78857868D01*
X153291401Y-78843253D01*
X153273223Y-78826777D01*
X153256747Y-78808599D01*
X153242132Y-78788893D01*
X153229520Y-78767850D01*
X153219030Y-78745671D01*
X153210765Y-78722572D01*
X153204804Y-78698773D01*
X153201204Y-78674505D01*
X153200000Y-78650001D01*
X153200000Y-77749999D01*
X153201204Y-77725495D01*
X153204804Y-77701227D01*
X153210765Y-77677428D01*
X153219030Y-77654329D01*
X153229520Y-77632150D01*
X153242132Y-77611107D01*
X153256747Y-77591401D01*
X153273223Y-77573223D01*
X153291401Y-77556747D01*
X153311107Y-77542132D01*
X153332150Y-77529520D01*
X153354329Y-77519030D01*
X153377428Y-77510765D01*
X153401227Y-77504804D01*
X153425495Y-77501204D01*
X153449999Y-77500000D01*
X154100001Y-77500000D01*
X154124505Y-77501204D01*
X154124505Y-77501204D01*
G37*
D12*
G04 #@! TD*
G04 #@! TO.P,C1,1*
G04 #@! TO.N,+3V3*
X153775000Y-78200000D03*
D11*
G04 #@! TO.N,GND*
G04 #@! TO.C,C1*
G36*
X156174505Y-77501204D02*
X156198773Y-77504804D01*
X156222572Y-77510765D01*
X156245671Y-77519030D01*
X156267850Y-77529520D01*
X156288893Y-77542132D01*
X156308599Y-77556747D01*
X156326777Y-77573223D01*
X156343253Y-77591401D01*
X156357868Y-77611107D01*
X156370480Y-77632150D01*
X156380970Y-77654329D01*
X156389235Y-77677428D01*
X156395196Y-77701227D01*
X156398796Y-77725495D01*
X156400000Y-77749999D01*
X156400000Y-78650001D01*
X156398796Y-78674505D01*
X156395196Y-78698773D01*
X156389235Y-78722572D01*
X156380970Y-78745671D01*
X156370480Y-78767850D01*
X156357868Y-78788893D01*
X156343253Y-78808599D01*
X156326777Y-78826777D01*
X156308599Y-78843253D01*
X156288893Y-78857868D01*
X156267850Y-78870480D01*
X156245671Y-78880970D01*
X156222572Y-78889235D01*
X156198773Y-78895196D01*
X156174505Y-78898796D01*
X156150001Y-78900000D01*
X155499999Y-78900000D01*
X155475495Y-78898796D01*
X155451227Y-78895196D01*
X155427428Y-78889235D01*
X155404329Y-78880970D01*
X155382150Y-78870480D01*
X155361107Y-78857868D01*
X155341401Y-78843253D01*
X155323223Y-78826777D01*
X155306747Y-78808599D01*
X155292132Y-78788893D01*
X155279520Y-78767850D01*
X155269030Y-78745671D01*
X155260765Y-78722572D01*
X155254804Y-78698773D01*
X155251204Y-78674505D01*
X155250000Y-78650001D01*
X155250000Y-77749999D01*
X155251204Y-77725495D01*
X155254804Y-77701227D01*
X155260765Y-77677428D01*
X155269030Y-77654329D01*
X155279520Y-77632150D01*
X155292132Y-77611107D01*
X155306747Y-77591401D01*
X155323223Y-77573223D01*
X155341401Y-77556747D01*
X155361107Y-77542132D01*
X155382150Y-77529520D01*
X155404329Y-77519030D01*
X155427428Y-77510765D01*
X155451227Y-77504804D01*
X155475495Y-77501204D01*
X155499999Y-77500000D01*
X156150001Y-77500000D01*
X156174505Y-77501204D01*
X156174505Y-77501204D01*
G37*
D12*
G04 #@! TD*
G04 #@! TO.P,C1,2*
G04 #@! TO.N,GND*
X155825000Y-78200000D03*
D11*
G04 #@! TO.N,GND*
G04 #@! TO.C,C2*
G36*
X154774505Y-73401204D02*
X154798773Y-73404804D01*
X154822572Y-73410765D01*
X154845671Y-73419030D01*
X154867850Y-73429520D01*
X154888893Y-73442132D01*
X154908599Y-73456747D01*
X154926777Y-73473223D01*
X154943253Y-73491401D01*
X154957868Y-73511107D01*
X154970480Y-73532150D01*
X154980970Y-73554329D01*
X154989235Y-73577428D01*
X154995196Y-73601227D01*
X154998796Y-73625495D01*
X155000000Y-73649999D01*
X155000000Y-74300001D01*
X154998796Y-74324505D01*
X154995196Y-74348773D01*
X154989235Y-74372572D01*
X154980970Y-74395671D01*
X154970480Y-74417850D01*
X154957868Y-74438893D01*
X154943253Y-74458599D01*
X154926777Y-74476777D01*
X154908599Y-74493253D01*
X154888893Y-74507868D01*
X154867850Y-74520480D01*
X154845671Y-74530970D01*
X154822572Y-74539235D01*
X154798773Y-74545196D01*
X154774505Y-74548796D01*
X154750001Y-74550000D01*
X153849999Y-74550000D01*
X153825495Y-74548796D01*
X153801227Y-74545196D01*
X153777428Y-74539235D01*
X153754329Y-74530970D01*
X153732150Y-74520480D01*
X153711107Y-74507868D01*
X153691401Y-74493253D01*
X153673223Y-74476777D01*
X153656747Y-74458599D01*
X153642132Y-74438893D01*
X153629520Y-74417850D01*
X153619030Y-74395671D01*
X153610765Y-74372572D01*
X153604804Y-74348773D01*
X153601204Y-74324505D01*
X153600000Y-74300001D01*
X153600000Y-73649999D01*
X153601204Y-73625495D01*
X153604804Y-73601227D01*
X153610765Y-73577428D01*
X153619030Y-73554329D01*
X153629520Y-73532150D01*
X153642132Y-73511107D01*
X153656747Y-73491401D01*
X153673223Y-73473223D01*
X153691401Y-73456747D01*
X153711107Y-73442132D01*
X153732150Y-73429520D01*
X153754329Y-73419030D01*
X153777428Y-73410765D01*
X153801227Y-73404804D01*
X153825495Y-73401204D01*
X153849999Y-73400000D01*
X154750001Y-73400000D01*
X154774505Y-73401204D01*
X154774505Y-73401204D01*
G37*
D12*
G04 #@! TD*
G04 #@! TO.P,C2,2*
G04 #@! TO.N,GND*
X154300000Y-73975000D03*
D11*
G04 #@! TO.N,+BATT*
G04 #@! TO.C,C2*
G36*
X154774505Y-75451204D02*
X154798773Y-75454804D01*
X154822572Y-75460765D01*
X154845671Y-75469030D01*
X154867850Y-75479520D01*
X154888893Y-75492132D01*
X154908599Y-75506747D01*
X154926777Y-75523223D01*
X154943253Y-75541401D01*
X154957868Y-75561107D01*
X154970480Y-75582150D01*
X154980970Y-75604329D01*
X154989235Y-75627428D01*
X154995196Y-75651227D01*
X154998796Y-75675495D01*
X155000000Y-75699999D01*
X155000000Y-76350001D01*
X154998796Y-76374505D01*
X154995196Y-76398773D01*
X154989235Y-76422572D01*
X154980970Y-76445671D01*
X154970480Y-76467850D01*
X154957868Y-76488893D01*
X154943253Y-76508599D01*
X154926777Y-76526777D01*
X154908599Y-76543253D01*
X154888893Y-76557868D01*
X154867850Y-76570480D01*
X154845671Y-76580970D01*
X154822572Y-76589235D01*
X154798773Y-76595196D01*
X154774505Y-76598796D01*
X154750001Y-76600000D01*
X153849999Y-76600000D01*
X153825495Y-76598796D01*
X153801227Y-76595196D01*
X153777428Y-76589235D01*
X153754329Y-76580970D01*
X153732150Y-76570480D01*
X153711107Y-76557868D01*
X153691401Y-76543253D01*
X153673223Y-76526777D01*
X153656747Y-76508599D01*
X153642132Y-76488893D01*
X153629520Y-76467850D01*
X153619030Y-76445671D01*
X153610765Y-76422572D01*
X153604804Y-76398773D01*
X153601204Y-76374505D01*
X153600000Y-76350001D01*
X153600000Y-75699999D01*
X153601204Y-75675495D01*
X153604804Y-75651227D01*
X153610765Y-75627428D01*
X153619030Y-75604329D01*
X153629520Y-75582150D01*
X153642132Y-75561107D01*
X153656747Y-75541401D01*
X153673223Y-75523223D01*
X153691401Y-75506747D01*
X153711107Y-75492132D01*
X153732150Y-75479520D01*
X153754329Y-75469030D01*
X153777428Y-75460765D01*
X153801227Y-75454804D01*
X153825495Y-75451204D01*
X153849999Y-75450000D01*
X154750001Y-75450000D01*
X154774505Y-75451204D01*
X154774505Y-75451204D01*
G37*
D12*
G04 #@! TD*
G04 #@! TO.P,C2,1*
G04 #@! TO.N,+BATT*
X154300000Y-76025000D03*
D11*
G04 #@! TO.N,+3V3*
G04 #@! TO.C,C3*
G36*
X158774505Y-71301204D02*
X158798773Y-71304804D01*
X158822572Y-71310765D01*
X158845671Y-71319030D01*
X158867850Y-71329520D01*
X158888893Y-71342132D01*
X158908599Y-71356747D01*
X158926777Y-71373223D01*
X158943253Y-71391401D01*
X158957868Y-71411107D01*
X158970480Y-71432150D01*
X158980970Y-71454329D01*
X158989235Y-71477428D01*
X158995196Y-71501227D01*
X158998796Y-71525495D01*
X159000000Y-71549999D01*
X159000000Y-72450001D01*
X158998796Y-72474505D01*
X158995196Y-72498773D01*
X158989235Y-72522572D01*
X158980970Y-72545671D01*
X158970480Y-72567850D01*
X158957868Y-72588893D01*
X158943253Y-72608599D01*
X158926777Y-72626777D01*
X158908599Y-72643253D01*
X158888893Y-72657868D01*
X158867850Y-72670480D01*
X158845671Y-72680970D01*
X158822572Y-72689235D01*
X158798773Y-72695196D01*
X158774505Y-72698796D01*
X158750001Y-72700000D01*
X158099999Y-72700000D01*
X158075495Y-72698796D01*
X158051227Y-72695196D01*
X158027428Y-72689235D01*
X158004329Y-72680970D01*
X157982150Y-72670480D01*
X157961107Y-72657868D01*
X157941401Y-72643253D01*
X157923223Y-72626777D01*
X157906747Y-72608599D01*
X157892132Y-72588893D01*
X157879520Y-72567850D01*
X157869030Y-72545671D01*
X157860765Y-72522572D01*
X157854804Y-72498773D01*
X157851204Y-72474505D01*
X157850000Y-72450001D01*
X157850000Y-71549999D01*
X157851204Y-71525495D01*
X157854804Y-71501227D01*
X157860765Y-71477428D01*
X157869030Y-71454329D01*
X157879520Y-71432150D01*
X157892132Y-71411107D01*
X157906747Y-71391401D01*
X157923223Y-71373223D01*
X157941401Y-71356747D01*
X157961107Y-71342132D01*
X157982150Y-71329520D01*
X158004329Y-71319030D01*
X158027428Y-71310765D01*
X158051227Y-71304804D01*
X158075495Y-71301204D01*
X158099999Y-71300000D01*
X158750001Y-71300000D01*
X158774505Y-71301204D01*
X158774505Y-71301204D01*
G37*
D12*
G04 #@! TD*
G04 #@! TO.P,C3,1*
G04 #@! TO.N,+3V3*
X158425000Y-72000000D03*
D11*
G04 #@! TO.N,GND*
G04 #@! TO.C,C3*
G36*
X156724505Y-71301204D02*
X156748773Y-71304804D01*
X156772572Y-71310765D01*
X156795671Y-71319030D01*
X156817850Y-71329520D01*
X156838893Y-71342132D01*
X156858599Y-71356747D01*
X156876777Y-71373223D01*
X156893253Y-71391401D01*
X156907868Y-71411107D01*
X156920480Y-71432150D01*
X156930970Y-71454329D01*
X156939235Y-71477428D01*
X156945196Y-71501227D01*
X156948796Y-71525495D01*
X156950000Y-71549999D01*
X156950000Y-72450001D01*
X156948796Y-72474505D01*
X156945196Y-72498773D01*
X156939235Y-72522572D01*
X156930970Y-72545671D01*
X156920480Y-72567850D01*
X156907868Y-72588893D01*
X156893253Y-72608599D01*
X156876777Y-72626777D01*
X156858599Y-72643253D01*
X156838893Y-72657868D01*
X156817850Y-72670480D01*
X156795671Y-72680970D01*
X156772572Y-72689235D01*
X156748773Y-72695196D01*
X156724505Y-72698796D01*
X156700001Y-72700000D01*
X156049999Y-72700000D01*
X156025495Y-72698796D01*
X156001227Y-72695196D01*
X155977428Y-72689235D01*
X155954329Y-72680970D01*
X155932150Y-72670480D01*
X155911107Y-72657868D01*
X155891401Y-72643253D01*
X155873223Y-72626777D01*
X155856747Y-72608599D01*
X155842132Y-72588893D01*
X155829520Y-72567850D01*
X155819030Y-72545671D01*
X155810765Y-72522572D01*
X155804804Y-72498773D01*
X155801204Y-72474505D01*
X155800000Y-72450001D01*
X155800000Y-71549999D01*
X155801204Y-71525495D01*
X155804804Y-71501227D01*
X155810765Y-71477428D01*
X155819030Y-71454329D01*
X155829520Y-71432150D01*
X155842132Y-71411107D01*
X155856747Y-71391401D01*
X155873223Y-71373223D01*
X155891401Y-71356747D01*
X155911107Y-71342132D01*
X155932150Y-71329520D01*
X155954329Y-71319030D01*
X155977428Y-71310765D01*
X156001227Y-71304804D01*
X156025495Y-71301204D01*
X156049999Y-71300000D01*
X156700001Y-71300000D01*
X156724505Y-71301204D01*
X156724505Y-71301204D01*
G37*
D12*
G04 #@! TD*
G04 #@! TO.P,C3,2*
G04 #@! TO.N,GND*
X156375000Y-72000000D03*
D11*
G04 #@! TO.N,Net-(D1-Pad1)*
G04 #@! TO.C,D1*
G36*
X152174505Y-75101204D02*
X152198773Y-75104804D01*
X152222572Y-75110765D01*
X152245671Y-75119030D01*
X152267850Y-75129520D01*
X152288893Y-75142132D01*
X152308599Y-75156747D01*
X152326777Y-75173223D01*
X152343253Y-75191401D01*
X152357868Y-75211107D01*
X152370480Y-75232150D01*
X152380970Y-75254329D01*
X152389235Y-75277428D01*
X152395196Y-75301227D01*
X152398796Y-75325495D01*
X152400000Y-75349999D01*
X152400000Y-76000001D01*
X152398796Y-76024505D01*
X152395196Y-76048773D01*
X152389235Y-76072572D01*
X152380970Y-76095671D01*
X152370480Y-76117850D01*
X152357868Y-76138893D01*
X152343253Y-76158599D01*
X152326777Y-76176777D01*
X152308599Y-76193253D01*
X152288893Y-76207868D01*
X152267850Y-76220480D01*
X152245671Y-76230970D01*
X152222572Y-76239235D01*
X152198773Y-76245196D01*
X152174505Y-76248796D01*
X152150001Y-76250000D01*
X151249999Y-76250000D01*
X151225495Y-76248796D01*
X151201227Y-76245196D01*
X151177428Y-76239235D01*
X151154329Y-76230970D01*
X151132150Y-76220480D01*
X151111107Y-76207868D01*
X151091401Y-76193253D01*
X151073223Y-76176777D01*
X151056747Y-76158599D01*
X151042132Y-76138893D01*
X151029520Y-76117850D01*
X151019030Y-76095671D01*
X151010765Y-76072572D01*
X151004804Y-76048773D01*
X151001204Y-76024505D01*
X151000000Y-76000001D01*
X151000000Y-75349999D01*
X151001204Y-75325495D01*
X151004804Y-75301227D01*
X151010765Y-75277428D01*
X151019030Y-75254329D01*
X151029520Y-75232150D01*
X151042132Y-75211107D01*
X151056747Y-75191401D01*
X151073223Y-75173223D01*
X151091401Y-75156747D01*
X151111107Y-75142132D01*
X151132150Y-75129520D01*
X151154329Y-75119030D01*
X151177428Y-75110765D01*
X151201227Y-75104804D01*
X151225495Y-75101204D01*
X151249999Y-75100000D01*
X152150001Y-75100000D01*
X152174505Y-75101204D01*
X152174505Y-75101204D01*
G37*
D12*
G04 #@! TD*
G04 #@! TO.P,D1,1*
G04 #@! TO.N,Net-(D1-Pad1)*
X151700000Y-75675000D03*
D11*
G04 #@! TO.N,LED*
G04 #@! TO.C,D1*
G36*
X152174505Y-77151204D02*
X152198773Y-77154804D01*
X152222572Y-77160765D01*
X152245671Y-77169030D01*
X152267850Y-77179520D01*
X152288893Y-77192132D01*
X152308599Y-77206747D01*
X152326777Y-77223223D01*
X152343253Y-77241401D01*
X152357868Y-77261107D01*
X152370480Y-77282150D01*
X152380970Y-77304329D01*
X152389235Y-77327428D01*
X152395196Y-77351227D01*
X152398796Y-77375495D01*
X152400000Y-77399999D01*
X152400000Y-78050001D01*
X152398796Y-78074505D01*
X152395196Y-78098773D01*
X152389235Y-78122572D01*
X152380970Y-78145671D01*
X152370480Y-78167850D01*
X152357868Y-78188893D01*
X152343253Y-78208599D01*
X152326777Y-78226777D01*
X152308599Y-78243253D01*
X152288893Y-78257868D01*
X152267850Y-78270480D01*
X152245671Y-78280970D01*
X152222572Y-78289235D01*
X152198773Y-78295196D01*
X152174505Y-78298796D01*
X152150001Y-78300000D01*
X151249999Y-78300000D01*
X151225495Y-78298796D01*
X151201227Y-78295196D01*
X151177428Y-78289235D01*
X151154329Y-78280970D01*
X151132150Y-78270480D01*
X151111107Y-78257868D01*
X151091401Y-78243253D01*
X151073223Y-78226777D01*
X151056747Y-78208599D01*
X151042132Y-78188893D01*
X151029520Y-78167850D01*
X151019030Y-78145671D01*
X151010765Y-78122572D01*
X151004804Y-78098773D01*
X151001204Y-78074505D01*
X151000000Y-78050001D01*
X151000000Y-77399999D01*
X151001204Y-77375495D01*
X151004804Y-77351227D01*
X151010765Y-77327428D01*
X151019030Y-77304329D01*
X151029520Y-77282150D01*
X151042132Y-77261107D01*
X151056747Y-77241401D01*
X151073223Y-77223223D01*
X151091401Y-77206747D01*
X151111107Y-77192132D01*
X151132150Y-77179520D01*
X151154329Y-77169030D01*
X151177428Y-77160765D01*
X151201227Y-77154804D01*
X151225495Y-77151204D01*
X151249999Y-77150000D01*
X152150001Y-77150000D01*
X152174505Y-77151204D01*
X152174505Y-77151204D01*
G37*
D12*
G04 #@! TD*
G04 #@! TO.P,D1,2*
G04 #@! TO.N,LED*
X151700000Y-77725000D03*
D13*
G04 #@! TO.P,J0,1*
G04 #@! TO.N,SWDIO*
X153600000Y-91700000D03*
D14*
G04 #@! TO.P,J0,2*
G04 #@! TO.N,+3V3*
X153600000Y-94240000D03*
G04 #@! TO.P,J0,3*
G04 #@! TO.N,SWCLK*
X151060000Y-91700000D03*
G04 #@! TO.P,J0,4*
G04 #@! TO.N,Net-(J0-Pad4)*
X151060000Y-94240000D03*
G04 #@! TO.P,J0,5*
G04 #@! TO.N,reset*
X148520000Y-91700000D03*
G04 #@! TO.P,J0,6*
G04 #@! TO.N,GND*
X148520000Y-94240000D03*
G04 #@! TD*
D13*
G04 #@! TO.P,J1,1*
G04 #@! TO.N,GPIO_1*
X144780000Y-81280000D03*
D14*
G04 #@! TO.P,J1,2*
G04 #@! TO.N,GPIO_2*
X144780000Y-83820000D03*
G04 #@! TO.P,J1,3*
G04 #@! TO.N,GPIO_3*
X144780000Y-86360000D03*
G04 #@! TO.P,J1,4*
G04 #@! TO.N,GPIO_4*
X144780000Y-88900000D03*
G04 #@! TD*
G04 #@! TO.P,J2,4*
G04 #@! TO.N,GPIO_8*
X157480000Y-88900000D03*
G04 #@! TO.P,J2,3*
G04 #@! TO.N,GPIO_7*
X157480000Y-86360000D03*
G04 #@! TO.P,J2,2*
G04 #@! TO.N,GPIO_6*
X157480000Y-83820000D03*
D13*
G04 #@! TO.P,J2,1*
G04 #@! TO.N,GPIO_5*
X157480000Y-81280000D03*
G04 #@! TD*
D11*
G04 #@! TO.N,+BATT*
G04 #@! TO.C,J3*
G36*
X145149505Y-75401204D02*
X145173773Y-75404804D01*
X145197572Y-75410765D01*
X145220671Y-75419030D01*
X145242850Y-75429520D01*
X145263893Y-75442132D01*
X145283599Y-75456747D01*
X145301777Y-75473223D01*
X145318253Y-75491401D01*
X145332868Y-75511107D01*
X145345480Y-75532150D01*
X145355970Y-75554329D01*
X145364235Y-75577428D01*
X145370196Y-75601227D01*
X145373796Y-75625495D01*
X145375000Y-75649999D01*
X145375000Y-76350001D01*
X145373796Y-76374505D01*
X145370196Y-76398773D01*
X145364235Y-76422572D01*
X145355970Y-76445671D01*
X145345480Y-76467850D01*
X145332868Y-76488893D01*
X145318253Y-76508599D01*
X145301777Y-76526777D01*
X145283599Y-76543253D01*
X145263893Y-76557868D01*
X145242850Y-76570480D01*
X145220671Y-76580970D01*
X145197572Y-76589235D01*
X145173773Y-76595196D01*
X145149505Y-76598796D01*
X145125001Y-76600000D01*
X143874999Y-76600000D01*
X143850495Y-76598796D01*
X143826227Y-76595196D01*
X143802428Y-76589235D01*
X143779329Y-76580970D01*
X143757150Y-76570480D01*
X143736107Y-76557868D01*
X143716401Y-76543253D01*
X143698223Y-76526777D01*
X143681747Y-76508599D01*
X143667132Y-76488893D01*
X143654520Y-76467850D01*
X143644030Y-76445671D01*
X143635765Y-76422572D01*
X143629804Y-76398773D01*
X143626204Y-76374505D01*
X143625000Y-76350001D01*
X143625000Y-75649999D01*
X143626204Y-75625495D01*
X143629804Y-75601227D01*
X143635765Y-75577428D01*
X143644030Y-75554329D01*
X143654520Y-75532150D01*
X143667132Y-75511107D01*
X143681747Y-75491401D01*
X143698223Y-75473223D01*
X143716401Y-75456747D01*
X143736107Y-75442132D01*
X143757150Y-75429520D01*
X143779329Y-75419030D01*
X143802428Y-75410765D01*
X143826227Y-75404804D01*
X143850495Y-75401204D01*
X143874999Y-75400000D01*
X145125001Y-75400000D01*
X145149505Y-75401204D01*
X145149505Y-75401204D01*
G37*
D15*
G04 #@! TD*
G04 #@! TO.P,J3,1*
G04 #@! TO.N,+BATT*
X144500000Y-76000000D03*
D16*
G04 #@! TO.P,J3,2*
G04 #@! TO.N,GND*
X144500000Y-74000000D03*
G04 #@! TD*
D11*
G04 #@! TO.N,+3V3*
G04 #@! TO.C,R1*
G36*
X158774505Y-69051204D02*
X158798773Y-69054804D01*
X158822572Y-69060765D01*
X158845671Y-69069030D01*
X158867850Y-69079520D01*
X158888893Y-69092132D01*
X158908599Y-69106747D01*
X158926777Y-69123223D01*
X158943253Y-69141401D01*
X158957868Y-69161107D01*
X158970480Y-69182150D01*
X158980970Y-69204329D01*
X158989235Y-69227428D01*
X158995196Y-69251227D01*
X158998796Y-69275495D01*
X159000000Y-69299999D01*
X159000000Y-69950001D01*
X158998796Y-69974505D01*
X158995196Y-69998773D01*
X158989235Y-70022572D01*
X158980970Y-70045671D01*
X158970480Y-70067850D01*
X158957868Y-70088893D01*
X158943253Y-70108599D01*
X158926777Y-70126777D01*
X158908599Y-70143253D01*
X158888893Y-70157868D01*
X158867850Y-70170480D01*
X158845671Y-70180970D01*
X158822572Y-70189235D01*
X158798773Y-70195196D01*
X158774505Y-70198796D01*
X158750001Y-70200000D01*
X157849999Y-70200000D01*
X157825495Y-70198796D01*
X157801227Y-70195196D01*
X157777428Y-70189235D01*
X157754329Y-70180970D01*
X157732150Y-70170480D01*
X157711107Y-70157868D01*
X157691401Y-70143253D01*
X157673223Y-70126777D01*
X157656747Y-70108599D01*
X157642132Y-70088893D01*
X157629520Y-70067850D01*
X157619030Y-70045671D01*
X157610765Y-70022572D01*
X157604804Y-69998773D01*
X157601204Y-69974505D01*
X157600000Y-69950001D01*
X157600000Y-69299999D01*
X157601204Y-69275495D01*
X157604804Y-69251227D01*
X157610765Y-69227428D01*
X157619030Y-69204329D01*
X157629520Y-69182150D01*
X157642132Y-69161107D01*
X157656747Y-69141401D01*
X157673223Y-69123223D01*
X157691401Y-69106747D01*
X157711107Y-69092132D01*
X157732150Y-69079520D01*
X157754329Y-69069030D01*
X157777428Y-69060765D01*
X157801227Y-69054804D01*
X157825495Y-69051204D01*
X157849999Y-69050000D01*
X158750001Y-69050000D01*
X158774505Y-69051204D01*
X158774505Y-69051204D01*
G37*
D12*
G04 #@! TD*
G04 #@! TO.P,R1,1*
G04 #@! TO.N,+3V3*
X158300000Y-69625000D03*
D11*
G04 #@! TO.N,reset*
G04 #@! TO.C,R1*
G36*
X158774505Y-67001204D02*
X158798773Y-67004804D01*
X158822572Y-67010765D01*
X158845671Y-67019030D01*
X158867850Y-67029520D01*
X158888893Y-67042132D01*
X158908599Y-67056747D01*
X158926777Y-67073223D01*
X158943253Y-67091401D01*
X158957868Y-67111107D01*
X158970480Y-67132150D01*
X158980970Y-67154329D01*
X158989235Y-67177428D01*
X158995196Y-67201227D01*
X158998796Y-67225495D01*
X159000000Y-67249999D01*
X159000000Y-67900001D01*
X158998796Y-67924505D01*
X158995196Y-67948773D01*
X158989235Y-67972572D01*
X158980970Y-67995671D01*
X158970480Y-68017850D01*
X158957868Y-68038893D01*
X158943253Y-68058599D01*
X158926777Y-68076777D01*
X158908599Y-68093253D01*
X158888893Y-68107868D01*
X158867850Y-68120480D01*
X158845671Y-68130970D01*
X158822572Y-68139235D01*
X158798773Y-68145196D01*
X158774505Y-68148796D01*
X158750001Y-68150000D01*
X157849999Y-68150000D01*
X157825495Y-68148796D01*
X157801227Y-68145196D01*
X157777428Y-68139235D01*
X157754329Y-68130970D01*
X157732150Y-68120480D01*
X157711107Y-68107868D01*
X157691401Y-68093253D01*
X157673223Y-68076777D01*
X157656747Y-68058599D01*
X157642132Y-68038893D01*
X157629520Y-68017850D01*
X157619030Y-67995671D01*
X157610765Y-67972572D01*
X157604804Y-67948773D01*
X157601204Y-67924505D01*
X157600000Y-67900001D01*
X157600000Y-67249999D01*
X157601204Y-67225495D01*
X157604804Y-67201227D01*
X157610765Y-67177428D01*
X157619030Y-67154329D01*
X157629520Y-67132150D01*
X157642132Y-67111107D01*
X157656747Y-67091401D01*
X157673223Y-67073223D01*
X157691401Y-67056747D01*
X157711107Y-67042132D01*
X157732150Y-67029520D01*
X157754329Y-67019030D01*
X157777428Y-67010765D01*
X157801227Y-67004804D01*
X157825495Y-67001204D01*
X157849999Y-67000000D01*
X158750001Y-67000000D01*
X158774505Y-67001204D01*
X158774505Y-67001204D01*
G37*
D12*
G04 #@! TD*
G04 #@! TO.P,R1,2*
G04 #@! TO.N,reset*
X158300000Y-67575000D03*
D11*
G04 #@! TO.N,Net-(D1-Pad1)*
G04 #@! TO.C,R2*
G36*
X149874505Y-75101204D02*
X149898773Y-75104804D01*
X149922572Y-75110765D01*
X149945671Y-75119030D01*
X149967850Y-75129520D01*
X149988893Y-75142132D01*
X150008599Y-75156747D01*
X150026777Y-75173223D01*
X150043253Y-75191401D01*
X150057868Y-75211107D01*
X150070480Y-75232150D01*
X150080970Y-75254329D01*
X150089235Y-75277428D01*
X150095196Y-75301227D01*
X150098796Y-75325495D01*
X150100000Y-75349999D01*
X150100000Y-76000001D01*
X150098796Y-76024505D01*
X150095196Y-76048773D01*
X150089235Y-76072572D01*
X150080970Y-76095671D01*
X150070480Y-76117850D01*
X150057868Y-76138893D01*
X150043253Y-76158599D01*
X150026777Y-76176777D01*
X150008599Y-76193253D01*
X149988893Y-76207868D01*
X149967850Y-76220480D01*
X149945671Y-76230970D01*
X149922572Y-76239235D01*
X149898773Y-76245196D01*
X149874505Y-76248796D01*
X149850001Y-76250000D01*
X148949999Y-76250000D01*
X148925495Y-76248796D01*
X148901227Y-76245196D01*
X148877428Y-76239235D01*
X148854329Y-76230970D01*
X148832150Y-76220480D01*
X148811107Y-76207868D01*
X148791401Y-76193253D01*
X148773223Y-76176777D01*
X148756747Y-76158599D01*
X148742132Y-76138893D01*
X148729520Y-76117850D01*
X148719030Y-76095671D01*
X148710765Y-76072572D01*
X148704804Y-76048773D01*
X148701204Y-76024505D01*
X148700000Y-76000001D01*
X148700000Y-75349999D01*
X148701204Y-75325495D01*
X148704804Y-75301227D01*
X148710765Y-75277428D01*
X148719030Y-75254329D01*
X148729520Y-75232150D01*
X148742132Y-75211107D01*
X148756747Y-75191401D01*
X148773223Y-75173223D01*
X148791401Y-75156747D01*
X148811107Y-75142132D01*
X148832150Y-75129520D01*
X148854329Y-75119030D01*
X148877428Y-75110765D01*
X148901227Y-75104804D01*
X148925495Y-75101204D01*
X148949999Y-75100000D01*
X149850001Y-75100000D01*
X149874505Y-75101204D01*
X149874505Y-75101204D01*
G37*
D12*
G04 #@! TD*
G04 #@! TO.P,R2,2*
G04 #@! TO.N,Net-(D1-Pad1)*
X149400000Y-75675000D03*
D11*
G04 #@! TO.N,GND*
G04 #@! TO.C,R2*
G36*
X149874505Y-77151204D02*
X149898773Y-77154804D01*
X149922572Y-77160765D01*
X149945671Y-77169030D01*
X149967850Y-77179520D01*
X149988893Y-77192132D01*
X150008599Y-77206747D01*
X150026777Y-77223223D01*
X150043253Y-77241401D01*
X150057868Y-77261107D01*
X150070480Y-77282150D01*
X150080970Y-77304329D01*
X150089235Y-77327428D01*
X150095196Y-77351227D01*
X150098796Y-77375495D01*
X150100000Y-77399999D01*
X150100000Y-78050001D01*
X150098796Y-78074505D01*
X150095196Y-78098773D01*
X150089235Y-78122572D01*
X150080970Y-78145671D01*
X150070480Y-78167850D01*
X150057868Y-78188893D01*
X150043253Y-78208599D01*
X150026777Y-78226777D01*
X150008599Y-78243253D01*
X149988893Y-78257868D01*
X149967850Y-78270480D01*
X149945671Y-78280970D01*
X149922572Y-78289235D01*
X149898773Y-78295196D01*
X149874505Y-78298796D01*
X149850001Y-78300000D01*
X148949999Y-78300000D01*
X148925495Y-78298796D01*
X148901227Y-78295196D01*
X148877428Y-78289235D01*
X148854329Y-78280970D01*
X148832150Y-78270480D01*
X148811107Y-78257868D01*
X148791401Y-78243253D01*
X148773223Y-78226777D01*
X148756747Y-78208599D01*
X148742132Y-78188893D01*
X148729520Y-78167850D01*
X148719030Y-78145671D01*
X148710765Y-78122572D01*
X148704804Y-78098773D01*
X148701204Y-78074505D01*
X148700000Y-78050001D01*
X148700000Y-77399999D01*
X148701204Y-77375495D01*
X148704804Y-77351227D01*
X148710765Y-77327428D01*
X148719030Y-77304329D01*
X148729520Y-77282150D01*
X148742132Y-77261107D01*
X148756747Y-77241401D01*
X148773223Y-77223223D01*
X148791401Y-77206747D01*
X148811107Y-77192132D01*
X148832150Y-77179520D01*
X148854329Y-77169030D01*
X148877428Y-77160765D01*
X148901227Y-77154804D01*
X148925495Y-77151204D01*
X148949999Y-77150000D01*
X149850001Y-77150000D01*
X149874505Y-77151204D01*
X149874505Y-77151204D01*
G37*
D12*
G04 #@! TD*
G04 #@! TO.P,R2,1*
G04 #@! TO.N,GND*
X149400000Y-77725000D03*
D17*
G04 #@! TO.P,SW1,2*
G04 #@! TO.N,GND*
X154400000Y-64500000D03*
G04 #@! TO.P,SW1,1*
G04 #@! TO.N,reset*
X154400000Y-69000000D03*
G04 #@! TO.P,SW1,2*
G04 #@! TO.N,GND*
X147900000Y-64500000D03*
G04 #@! TO.P,SW1,1*
G04 #@! TO.N,reset*
X147900000Y-69000000D03*
G04 #@! TD*
D18*
G04 #@! TO.P,U1,1*
G04 #@! TO.N,LED*
X148400000Y-80890000D03*
G04 #@! TO.P,U1,2*
G04 #@! TO.N,GPIO_1*
X148400000Y-82160000D03*
G04 #@! TO.P,U1,3*
G04 #@! TO.N,GPIO_2*
X148400000Y-83430000D03*
G04 #@! TO.P,U1,4*
G04 #@! TO.N,GPIO_3*
X148400000Y-84700000D03*
G04 #@! TO.P,U1,5*
G04 #@! TO.N,GPIO_4*
X148400000Y-85970000D03*
G04 #@! TO.P,U1,6*
G04 #@! TO.N,reset*
X148400000Y-87240000D03*
G04 #@! TO.P,U1,7*
G04 #@! TO.N,SWCLK*
X148400000Y-88510000D03*
G04 #@! TO.P,U1,8*
G04 #@! TO.N,SWDIO*
X153800000Y-88510000D03*
G04 #@! TO.P,U1,9*
G04 #@! TO.N,GPIO_8*
X153800000Y-87240000D03*
G04 #@! TO.P,U1,10*
G04 #@! TO.N,GPIO_7*
X153800000Y-85970000D03*
G04 #@! TO.P,U1,11*
G04 #@! TO.N,GND*
X153800000Y-84700000D03*
G04 #@! TO.P,U1,12*
G04 #@! TO.N,+3V3*
X153800000Y-83430000D03*
G04 #@! TO.P,U1,13*
G04 #@! TO.N,GPIO_6*
X153800000Y-82160000D03*
G04 #@! TO.P,U1,14*
G04 #@! TO.N,GPIO_5*
X153800000Y-80890000D03*
G04 #@! TD*
D19*
G04 #@! TO.P,U2,1*
G04 #@! TO.N,+BATT*
X156550000Y-76100000D03*
G04 #@! TO.P,U2,2*
G04 #@! TO.N,+3V3*
X158450000Y-76100000D03*
G04 #@! TO.P,U2,3*
G04 #@! TO.N,GND*
X157500000Y-74100000D03*
G04 #@! TD*
D10*
G04 #@! TO.P,REF\002A\002A,1*
G04 #@! TO.N,N/C*
X158100000Y-64400000D03*
G04 #@! TD*
D20*
G04 #@! TO.N,+3V3*
X158300000Y-71875000D02*
X158425000Y-72000000D01*
X158300000Y-69625000D02*
X158300000Y-71875000D01*
X158425000Y-76075000D02*
X158450000Y-76100000D01*
X158425000Y-72000000D02*
X158425000Y-76075000D01*
X154398372Y-77576628D02*
X153775000Y-78200000D01*
X154800010Y-77174990D02*
X154398372Y-77576628D01*
X158075010Y-77174990D02*
X154800010Y-77174990D01*
X158450000Y-76800000D02*
X158075010Y-77174990D01*
X158450000Y-76100000D02*
X158450000Y-76800000D01*
X152724999Y-82804999D02*
X153350000Y-83430000D01*
X153100000Y-78200000D02*
X152724999Y-78575001D01*
X152724999Y-78575001D02*
X152724999Y-82804999D01*
X153775000Y-78200000D02*
X153100000Y-78200000D01*
X152424999Y-93064999D02*
X152750001Y-93390001D01*
X152424999Y-84355001D02*
X152424999Y-93064999D01*
X152750001Y-93390001D02*
X153600000Y-94240000D01*
X153350000Y-83430000D02*
X152424999Y-84355001D01*
X153800000Y-83430000D02*
X153350000Y-83430000D01*
G04 #@! TO.N,+BATT*
X153676628Y-76648372D02*
X154300000Y-76025000D01*
X146123372Y-76648372D02*
X153676628Y-76648372D01*
X145475000Y-76000000D02*
X146123372Y-76648372D01*
X144500000Y-76000000D02*
X145475000Y-76000000D01*
X156475000Y-76025000D02*
X156550000Y-76100000D01*
X154300000Y-76025000D02*
X156475000Y-76025000D01*
G04 #@! TO.N,Net-(D1-Pad1)*
X149400000Y-75675000D02*
X151700000Y-75675000D01*
G04 #@! TO.N,LED*
X151700000Y-78040000D02*
X151700000Y-77725000D01*
X148850000Y-80890000D02*
X151700000Y-78040000D01*
X148400000Y-80890000D02*
X148850000Y-80890000D01*
G04 #@! TO.N,SWDIO*
X153800000Y-91500000D02*
X153600000Y-91700000D01*
X153800000Y-88510000D02*
X153800000Y-91500000D01*
G04 #@! TO.N,SWCLK*
X151040000Y-91700000D02*
X151060000Y-91700000D01*
X148400000Y-89060000D02*
X151040000Y-91700000D01*
X148400000Y-88510000D02*
X148400000Y-89060000D01*
G04 #@! TO.N,reset*
X147400000Y-87240000D02*
X147000000Y-87640000D01*
X148400000Y-87240000D02*
X147400000Y-87240000D01*
X147000000Y-90180000D02*
X148520000Y-91700000D01*
X147000000Y-87640000D02*
X147000000Y-90180000D01*
X155825000Y-67575000D02*
X154400000Y-69000000D01*
X158300000Y-67575000D02*
X155825000Y-67575000D01*
X143299990Y-73600010D02*
X146900001Y-69999999D01*
X146900001Y-69999999D02*
X147900000Y-69000000D01*
X143299990Y-89086950D02*
X143299990Y-73600010D01*
X145913040Y-91700000D02*
X143299990Y-89086950D01*
X148520000Y-91700000D02*
X145913040Y-91700000D01*
X147900000Y-69000000D02*
X154400000Y-69000000D01*
G04 #@! TO.N,GPIO_1*
X145660000Y-82160000D02*
X144780000Y-81280000D01*
X148400000Y-82160000D02*
X145660000Y-82160000D01*
G04 #@! TO.N,GPIO_2*
X145170000Y-83430000D02*
X144780000Y-83820000D01*
X148400000Y-83430000D02*
X145170000Y-83430000D01*
G04 #@! TO.N,GPIO_3*
X146440000Y-84700000D02*
X144780000Y-86360000D01*
X148400000Y-84700000D02*
X146440000Y-84700000D01*
G04 #@! TO.N,GPIO_4*
X145629999Y-88050001D02*
X144780000Y-88900000D01*
X147710000Y-85970000D02*
X145629999Y-88050001D01*
X148400000Y-85970000D02*
X147710000Y-85970000D01*
G04 #@! TO.N,GPIO_8*
X155820000Y-87240000D02*
X157480000Y-88900000D01*
X153800000Y-87240000D02*
X155820000Y-87240000D01*
G04 #@! TO.N,GPIO_7*
X157090000Y-85970000D02*
X157480000Y-86360000D01*
X153800000Y-85970000D02*
X157090000Y-85970000D01*
G04 #@! TO.N,GPIO_6*
X155820000Y-82160000D02*
X157480000Y-83820000D01*
X153800000Y-82160000D02*
X155820000Y-82160000D01*
G04 #@! TO.N,GPIO_5*
X157090000Y-80890000D02*
X157480000Y-81280000D01*
X153800000Y-80890000D02*
X157090000Y-80890000D01*
G04 #@! TD*
D11*
G04 #@! TO.N,GND*
G36*
X158323058Y-62650000D02*
X157751903Y-62650000D01*
X157108704Y-62916421D01*
X156616421Y-63408704D01*
X156350000Y-64051903D01*
X156350000Y-64748097D01*
X156616421Y-65391296D01*
X157108704Y-65883579D01*
X157751903Y-66150000D01*
X158448097Y-66150000D01*
X159091296Y-65883579D01*
X159583579Y-65391296D01*
X159838031Y-64776993D01*
X159838030Y-93923005D01*
X159583579Y-93308704D01*
X159091296Y-92816421D01*
X158448097Y-92550000D01*
X157751903Y-92550000D01*
X157108704Y-92816421D01*
X156616421Y-93308704D01*
X156350000Y-93951903D01*
X156350000Y-94648097D01*
X156616421Y-95291296D01*
X157108704Y-95783579D01*
X157751903Y-96050000D01*
X158448097Y-96050000D01*
X159091296Y-95783579D01*
X159548538Y-95326337D01*
X159502694Y-95405742D01*
X159258100Y-95677377D01*
X158962347Y-95892201D01*
X158628379Y-96040925D01*
X158270818Y-96116900D01*
X143905242Y-96116900D01*
X143547683Y-96040926D01*
X143213713Y-95892202D01*
X142917964Y-95677381D01*
X142673366Y-95405741D01*
X142490589Y-95089164D01*
X142377632Y-94741438D01*
X142373879Y-94705747D01*
X142616421Y-95291296D01*
X143108704Y-95783579D01*
X143751903Y-96050000D01*
X144448097Y-96050000D01*
X145091296Y-95783579D01*
X145583579Y-95291296D01*
X145850000Y-94648097D01*
X145850000Y-94610585D01*
X147484282Y-94610585D01*
X147704938Y-94978728D01*
X148049680Y-95234406D01*
X148149419Y-95275697D01*
X148316000Y-95257246D01*
X148316000Y-94444000D01*
X148724000Y-94444000D01*
X148724000Y-95257246D01*
X148890581Y-95275697D01*
X148990320Y-95234406D01*
X149335062Y-94978728D01*
X149555718Y-94610585D01*
X149538439Y-94444000D01*
X148724000Y-94444000D01*
X148316000Y-94444000D01*
X147501561Y-94444000D01*
X147484282Y-94610585D01*
X145850000Y-94610585D01*
X145850000Y-94240000D01*
X149938450Y-94240000D01*
X150023823Y-94669199D01*
X150266944Y-95033056D01*
X150630801Y-95276177D01*
X150951661Y-95340000D01*
X151168339Y-95340000D01*
X151489199Y-95276177D01*
X151853056Y-95033056D01*
X152096177Y-94669199D01*
X152181550Y-94240000D01*
X152096177Y-93810801D01*
X151853056Y-93446944D01*
X151489199Y-93203823D01*
X151168339Y-93140000D01*
X150951661Y-93140000D01*
X150630801Y-93203823D01*
X150266944Y-93446944D01*
X150023823Y-93810801D01*
X149938450Y-94240000D01*
X145850000Y-94240000D01*
X145850000Y-93951903D01*
X145815833Y-93869415D01*
X147484282Y-93869415D01*
X147501561Y-94036000D01*
X148316000Y-94036000D01*
X148316000Y-93222754D01*
X148724000Y-93222754D01*
X148724000Y-94036000D01*
X149538439Y-94036000D01*
X149555718Y-93869415D01*
X149335062Y-93501272D01*
X148990320Y-93245594D01*
X148890581Y-93204303D01*
X148724000Y-93222754D01*
X148316000Y-93222754D01*
X148149419Y-93204303D01*
X148049680Y-93245594D01*
X147704938Y-93501272D01*
X147484282Y-93869415D01*
X145815833Y-93869415D01*
X145583579Y-93308704D01*
X145091296Y-92816421D01*
X144448097Y-92550000D01*
X143751903Y-92550000D01*
X143108704Y-92816421D01*
X142616421Y-93308704D01*
X142350000Y-93951903D01*
X142350000Y-94478643D01*
X142338030Y-94364802D01*
X142338030Y-73600010D01*
X142917645Y-73600010D01*
X142924991Y-73636941D01*
X142924990Y-89050024D01*
X142917645Y-89086950D01*
X142924990Y-89123876D01*
X142924990Y-89123880D01*
X142946748Y-89233266D01*
X142946749Y-89233267D01*
X142946749Y-89233268D01*
X143002938Y-89317360D01*
X143029631Y-89357309D01*
X143060941Y-89378230D01*
X145621762Y-91939052D01*
X145642681Y-91970359D01*
X145673988Y-91991278D01*
X145673989Y-91991279D01*
X145728104Y-92027437D01*
X145766723Y-92053242D01*
X145876109Y-92075000D01*
X145876114Y-92075000D01*
X145913040Y-92082345D01*
X145949966Y-92075000D01*
X147473042Y-92075000D01*
X147483823Y-92129199D01*
X147726944Y-92493056D01*
X148090801Y-92736177D01*
X148411661Y-92800000D01*
X148628339Y-92800000D01*
X148949199Y-92736177D01*
X149313056Y-92493056D01*
X149556177Y-92129199D01*
X149641550Y-91700000D01*
X149556177Y-91270801D01*
X149313056Y-90906944D01*
X148949199Y-90663823D01*
X148628339Y-90600000D01*
X148411661Y-90600000D01*
X148090801Y-90663823D01*
X148044854Y-90694524D01*
X147375000Y-90024671D01*
X147375000Y-87795329D01*
X147461882Y-87708447D01*
X147469761Y-87720239D01*
X147552455Y-87775494D01*
X147650000Y-87794897D01*
X149150000Y-87794897D01*
X149247545Y-87775494D01*
X149330239Y-87720239D01*
X149385494Y-87637545D01*
X149404897Y-87540000D01*
X149404897Y-86940000D01*
X149385494Y-86842455D01*
X149330239Y-86759761D01*
X149247545Y-86704506D01*
X149150000Y-86685103D01*
X147650000Y-86685103D01*
X147552455Y-86704506D01*
X147469761Y-86759761D01*
X147414506Y-86842455D01*
X147411045Y-86859852D01*
X147399999Y-86857655D01*
X147363073Y-86865000D01*
X147363069Y-86865000D01*
X147340925Y-86869405D01*
X147685433Y-86524897D01*
X149150000Y-86524897D01*
X149247545Y-86505494D01*
X149330239Y-86450239D01*
X149385494Y-86367545D01*
X149404897Y-86270000D01*
X149404897Y-85670000D01*
X149385494Y-85572455D01*
X149330239Y-85489761D01*
X149247545Y-85434506D01*
X149150000Y-85415103D01*
X147650000Y-85415103D01*
X147552455Y-85434506D01*
X147469761Y-85489761D01*
X147414506Y-85572455D01*
X147395103Y-85670000D01*
X147395103Y-85754567D01*
X145390951Y-87758720D01*
X145390948Y-87758722D01*
X145255146Y-87894524D01*
X145209199Y-87863823D01*
X144888339Y-87800000D01*
X144671661Y-87800000D01*
X144350801Y-87863823D01*
X143986944Y-88106944D01*
X143743823Y-88470801D01*
X143674990Y-88816848D01*
X143674990Y-86443152D01*
X143743823Y-86789199D01*
X143986944Y-87153056D01*
X144350801Y-87396177D01*
X144671661Y-87460000D01*
X144888339Y-87460000D01*
X145209199Y-87396177D01*
X145573056Y-87153056D01*
X145816177Y-86789199D01*
X145901550Y-86360000D01*
X145816177Y-85930801D01*
X145785476Y-85884854D01*
X146595330Y-85075000D01*
X147410021Y-85075000D01*
X147414506Y-85097545D01*
X147469761Y-85180239D01*
X147552455Y-85235494D01*
X147650000Y-85254897D01*
X149150000Y-85254897D01*
X149247545Y-85235494D01*
X149330239Y-85180239D01*
X149385494Y-85097545D01*
X149404897Y-85000000D01*
X149404897Y-84400000D01*
X149385494Y-84302455D01*
X149330239Y-84219761D01*
X149247545Y-84164506D01*
X149150000Y-84145103D01*
X147650000Y-84145103D01*
X147552455Y-84164506D01*
X147469761Y-84219761D01*
X147414506Y-84302455D01*
X147410021Y-84325000D01*
X146476926Y-84325000D01*
X146440000Y-84317655D01*
X146403074Y-84325000D01*
X146403069Y-84325000D01*
X146293683Y-84346758D01*
X146293681Y-84346759D01*
X146293682Y-84346759D01*
X146200949Y-84408721D01*
X146200948Y-84408722D01*
X146169641Y-84429641D01*
X146148722Y-84460948D01*
X145255146Y-85354524D01*
X145209199Y-85323823D01*
X144888339Y-85260000D01*
X144671661Y-85260000D01*
X144350801Y-85323823D01*
X143986944Y-85566944D01*
X143743823Y-85930801D01*
X143674990Y-86276848D01*
X143674990Y-83903152D01*
X143743823Y-84249199D01*
X143986944Y-84613056D01*
X144350801Y-84856177D01*
X144671661Y-84920000D01*
X144888339Y-84920000D01*
X145209199Y-84856177D01*
X145573056Y-84613056D01*
X145816177Y-84249199D01*
X145901550Y-83820000D01*
X145898566Y-83805000D01*
X147410021Y-83805000D01*
X147414506Y-83827545D01*
X147469761Y-83910239D01*
X147552455Y-83965494D01*
X147650000Y-83984897D01*
X149150000Y-83984897D01*
X149247545Y-83965494D01*
X149330239Y-83910239D01*
X149385494Y-83827545D01*
X149404897Y-83730000D01*
X149404897Y-83130000D01*
X149385494Y-83032455D01*
X149330239Y-82949761D01*
X149247545Y-82894506D01*
X149150000Y-82875103D01*
X147650000Y-82875103D01*
X147552455Y-82894506D01*
X147469761Y-82949761D01*
X147414506Y-83032455D01*
X147410021Y-83055000D01*
X145591802Y-83055000D01*
X145573056Y-83026944D01*
X145209199Y-82783823D01*
X144888339Y-82720000D01*
X144671661Y-82720000D01*
X144350801Y-82783823D01*
X143986944Y-83026944D01*
X143743823Y-83390801D01*
X143674990Y-83736848D01*
X143674990Y-80430000D01*
X143675103Y-80430000D01*
X143675103Y-82130000D01*
X143694506Y-82227545D01*
X143749761Y-82310239D01*
X143832455Y-82365494D01*
X143930000Y-82384897D01*
X145354567Y-82384897D01*
X145368722Y-82399052D01*
X145389641Y-82430359D01*
X145420948Y-82451278D01*
X145420949Y-82451279D01*
X145513681Y-82513241D01*
X145513682Y-82513241D01*
X145513683Y-82513242D01*
X145623069Y-82535000D01*
X145623073Y-82535000D01*
X145660000Y-82542345D01*
X145696926Y-82535000D01*
X147410021Y-82535000D01*
X147414506Y-82557545D01*
X147469761Y-82640239D01*
X147552455Y-82695494D01*
X147650000Y-82714897D01*
X149150000Y-82714897D01*
X149247545Y-82695494D01*
X149330239Y-82640239D01*
X149385494Y-82557545D01*
X149404897Y-82460000D01*
X149404897Y-81860000D01*
X149385494Y-81762455D01*
X149330239Y-81679761D01*
X149247545Y-81624506D01*
X149150000Y-81605103D01*
X147650000Y-81605103D01*
X147552455Y-81624506D01*
X147469761Y-81679761D01*
X147414506Y-81762455D01*
X147410021Y-81785000D01*
X145884897Y-81785000D01*
X145884897Y-80430000D01*
X145865494Y-80332455D01*
X145810239Y-80249761D01*
X145727545Y-80194506D01*
X145630000Y-80175103D01*
X143930000Y-80175103D01*
X143832455Y-80194506D01*
X143749761Y-80249761D01*
X143694506Y-80332455D01*
X143675103Y-80430000D01*
X143674990Y-80430000D01*
X143674990Y-77991500D01*
X148450000Y-77991500D01*
X148450000Y-78349728D01*
X148488060Y-78441614D01*
X148558386Y-78511940D01*
X148650272Y-78550000D01*
X149133500Y-78550000D01*
X149196000Y-78487500D01*
X149196000Y-77929000D01*
X149604000Y-77929000D01*
X149604000Y-78487500D01*
X149666500Y-78550000D01*
X150149728Y-78550000D01*
X150241614Y-78511940D01*
X150311940Y-78441614D01*
X150350000Y-78349728D01*
X150350000Y-77991500D01*
X150287500Y-77929000D01*
X149604000Y-77929000D01*
X149196000Y-77929000D01*
X148512500Y-77929000D01*
X148450000Y-77991500D01*
X143674990Y-77991500D01*
X143674990Y-76811924D01*
X143681784Y-76816464D01*
X143874999Y-76854897D01*
X145125001Y-76854897D01*
X145318216Y-76816464D01*
X145482016Y-76707016D01*
X145549977Y-76605306D01*
X145832094Y-76887424D01*
X145853013Y-76918731D01*
X145884320Y-76939650D01*
X145977053Y-77001613D01*
X145977054Y-77001613D01*
X145977055Y-77001614D01*
X146086441Y-77023372D01*
X146086445Y-77023372D01*
X146123371Y-77030717D01*
X146160297Y-77023372D01*
X148481853Y-77023372D01*
X148450000Y-77100272D01*
X148450000Y-77458500D01*
X148512500Y-77521000D01*
X149196000Y-77521000D01*
X149196000Y-77501000D01*
X149604000Y-77501000D01*
X149604000Y-77521000D01*
X150287500Y-77521000D01*
X150350000Y-77458500D01*
X150350000Y-77100272D01*
X150318147Y-77023372D01*
X150922335Y-77023372D01*
X150892984Y-77042984D01*
X150783536Y-77206784D01*
X150745103Y-77399999D01*
X150745103Y-78050001D01*
X150783536Y-78243216D01*
X150856803Y-78352867D01*
X148874568Y-80335103D01*
X147650000Y-80335103D01*
X147552455Y-80354506D01*
X147469761Y-80409761D01*
X147414506Y-80492455D01*
X147395103Y-80590000D01*
X147395103Y-81190000D01*
X147414506Y-81287545D01*
X147469761Y-81370239D01*
X147552455Y-81425494D01*
X147650000Y-81444897D01*
X149150000Y-81444897D01*
X149247545Y-81425494D01*
X149330239Y-81370239D01*
X149385494Y-81287545D01*
X149404897Y-81190000D01*
X149404897Y-80865432D01*
X151715433Y-78554897D01*
X152150001Y-78554897D01*
X152343216Y-78516464D01*
X152355995Y-78507925D01*
X152349999Y-78538071D01*
X152349999Y-78538075D01*
X152342654Y-78575001D01*
X152349999Y-78611927D01*
X152350000Y-82768068D01*
X152342654Y-82804999D01*
X152371758Y-82951317D01*
X152433720Y-83044049D01*
X152433722Y-83044051D01*
X152454641Y-83075358D01*
X152485947Y-83096276D01*
X152795103Y-83405433D01*
X152795103Y-83454567D01*
X152185949Y-84063721D01*
X152154640Y-84084642D01*
X152133720Y-84115951D01*
X152101277Y-84164506D01*
X152071757Y-84208685D01*
X152049999Y-84318071D01*
X152049999Y-84318075D01*
X152042654Y-84355001D01*
X152049999Y-84391927D01*
X152050000Y-91201692D01*
X151853056Y-90906944D01*
X151489199Y-90663823D01*
X151168339Y-90600000D01*
X150951661Y-90600000D01*
X150630801Y-90663823D01*
X150572865Y-90702535D01*
X148935226Y-89064897D01*
X149150000Y-89064897D01*
X149247545Y-89045494D01*
X149330239Y-88990239D01*
X149385494Y-88907545D01*
X149404897Y-88810000D01*
X149404897Y-88210000D01*
X149385494Y-88112455D01*
X149330239Y-88029761D01*
X149247545Y-87974506D01*
X149150000Y-87955103D01*
X147650000Y-87955103D01*
X147552455Y-87974506D01*
X147469761Y-88029761D01*
X147414506Y-88112455D01*
X147395103Y-88210000D01*
X147395103Y-88810000D01*
X147414506Y-88907545D01*
X147469761Y-88990239D01*
X147552455Y-89045494D01*
X147650000Y-89064897D01*
X148018629Y-89064897D01*
X148046759Y-89206318D01*
X148108721Y-89299050D01*
X148108723Y-89299052D01*
X148129642Y-89330359D01*
X148160949Y-89351278D01*
X150046513Y-91236843D01*
X150023823Y-91270801D01*
X149938450Y-91700000D01*
X150023823Y-92129199D01*
X150266944Y-92493056D01*
X150630801Y-92736177D01*
X150951661Y-92800000D01*
X151168339Y-92800000D01*
X151489199Y-92736177D01*
X151853056Y-92493056D01*
X152050000Y-92198308D01*
X152050000Y-93028068D01*
X152042654Y-93064999D01*
X152071758Y-93211317D01*
X152133720Y-93304049D01*
X152133722Y-93304051D01*
X152154641Y-93335358D01*
X152185947Y-93356276D01*
X152510949Y-93681280D01*
X152510955Y-93681284D01*
X152594524Y-93764853D01*
X152563823Y-93810801D01*
X152478450Y-94240000D01*
X152563823Y-94669199D01*
X152806944Y-95033056D01*
X153170801Y-95276177D01*
X153491661Y-95340000D01*
X153708339Y-95340000D01*
X154029199Y-95276177D01*
X154393056Y-95033056D01*
X154636177Y-94669199D01*
X154721550Y-94240000D01*
X154636177Y-93810801D01*
X154393056Y-93446944D01*
X154029199Y-93203823D01*
X153708339Y-93140000D01*
X153491661Y-93140000D01*
X153170801Y-93203823D01*
X153124853Y-93234524D01*
X153041284Y-93150955D01*
X153041280Y-93150949D01*
X152799999Y-92909669D01*
X152799999Y-92804897D01*
X154450000Y-92804897D01*
X154547545Y-92785494D01*
X154630239Y-92730239D01*
X154685494Y-92647545D01*
X154704897Y-92550000D01*
X154704897Y-90850000D01*
X154685494Y-90752455D01*
X154630239Y-90669761D01*
X154547545Y-90614506D01*
X154450000Y-90595103D01*
X154175000Y-90595103D01*
X154175000Y-89064897D01*
X154550000Y-89064897D01*
X154647545Y-89045494D01*
X154730239Y-88990239D01*
X154785494Y-88907545D01*
X154804897Y-88810000D01*
X154804897Y-88210000D01*
X154785494Y-88112455D01*
X154730239Y-88029761D01*
X154647545Y-87974506D01*
X154550000Y-87955103D01*
X153050000Y-87955103D01*
X152952455Y-87974506D01*
X152869761Y-88029761D01*
X152814506Y-88112455D01*
X152799999Y-88185386D01*
X152799999Y-87564614D01*
X152814506Y-87637545D01*
X152869761Y-87720239D01*
X152952455Y-87775494D01*
X153050000Y-87794897D01*
X154550000Y-87794897D01*
X154647545Y-87775494D01*
X154730239Y-87720239D01*
X154785494Y-87637545D01*
X154789979Y-87615000D01*
X155664671Y-87615000D01*
X156474524Y-88424854D01*
X156443823Y-88470801D01*
X156358450Y-88900000D01*
X156443823Y-89329199D01*
X156686944Y-89693056D01*
X157050801Y-89936177D01*
X157371661Y-90000000D01*
X157588339Y-90000000D01*
X157909199Y-89936177D01*
X158273056Y-89693056D01*
X158516177Y-89329199D01*
X158601550Y-88900000D01*
X158516177Y-88470801D01*
X158273056Y-88106944D01*
X157909199Y-87863823D01*
X157588339Y-87800000D01*
X157371661Y-87800000D01*
X157050801Y-87863823D01*
X157004854Y-87894524D01*
X156111280Y-87000951D01*
X156090359Y-86969641D01*
X155966317Y-86886758D01*
X155856931Y-86865000D01*
X155856926Y-86865000D01*
X155820000Y-86857655D01*
X155783074Y-86865000D01*
X154789979Y-86865000D01*
X154785494Y-86842455D01*
X154730239Y-86759761D01*
X154647545Y-86704506D01*
X154550000Y-86685103D01*
X153050000Y-86685103D01*
X152952455Y-86704506D01*
X152869761Y-86759761D01*
X152814506Y-86842455D01*
X152799999Y-86915386D01*
X152799999Y-86294614D01*
X152814506Y-86367545D01*
X152869761Y-86450239D01*
X152952455Y-86505494D01*
X153050000Y-86524897D01*
X154550000Y-86524897D01*
X154647545Y-86505494D01*
X154730239Y-86450239D01*
X154785494Y-86367545D01*
X154789979Y-86345000D01*
X156361434Y-86345000D01*
X156358450Y-86360000D01*
X156443823Y-86789199D01*
X156686944Y-87153056D01*
X157050801Y-87396177D01*
X157371661Y-87460000D01*
X157588339Y-87460000D01*
X157909199Y-87396177D01*
X158273056Y-87153056D01*
X158516177Y-86789199D01*
X158601550Y-86360000D01*
X158516177Y-85930801D01*
X158273056Y-85566944D01*
X157909199Y-85323823D01*
X157588339Y-85260000D01*
X157371661Y-85260000D01*
X157050801Y-85323823D01*
X156686944Y-85566944D01*
X156668198Y-85595000D01*
X154789979Y-85595000D01*
X154785494Y-85572455D01*
X154730239Y-85489761D01*
X154647545Y-85434506D01*
X154550000Y-85415103D01*
X153050000Y-85415103D01*
X152952455Y-85434506D01*
X152869761Y-85489761D01*
X152814506Y-85572455D01*
X152799999Y-85645386D01*
X152799999Y-84912500D01*
X152800000Y-84912500D01*
X152800000Y-85049728D01*
X152838060Y-85141614D01*
X152908386Y-85211940D01*
X153000272Y-85250000D01*
X153533500Y-85250000D01*
X153596000Y-85187500D01*
X153596000Y-84850000D01*
X154004000Y-84850000D01*
X154004000Y-85187500D01*
X154066500Y-85250000D01*
X154599728Y-85250000D01*
X154691614Y-85211940D01*
X154761940Y-85141614D01*
X154800000Y-85049728D01*
X154800000Y-84912500D01*
X154737500Y-84850000D01*
X154004000Y-84850000D01*
X153596000Y-84850000D01*
X152862500Y-84850000D01*
X152800000Y-84912500D01*
X152799999Y-84912500D01*
X152799999Y-84510330D01*
X152811415Y-84498915D01*
X152862500Y-84550000D01*
X153596000Y-84550000D01*
X153596000Y-84212500D01*
X154004000Y-84212500D01*
X154004000Y-84550000D01*
X154737500Y-84550000D01*
X154800000Y-84487500D01*
X154800000Y-84350272D01*
X154761940Y-84258386D01*
X154691614Y-84188060D01*
X154599728Y-84150000D01*
X154066500Y-84150000D01*
X154004000Y-84212500D01*
X153596000Y-84212500D01*
X153533500Y-84150000D01*
X153160330Y-84150000D01*
X153325433Y-83984897D01*
X154550000Y-83984897D01*
X154647545Y-83965494D01*
X154730239Y-83910239D01*
X154785494Y-83827545D01*
X154804897Y-83730000D01*
X154804897Y-83130000D01*
X154785494Y-83032455D01*
X154730239Y-82949761D01*
X154647545Y-82894506D01*
X154550000Y-82875103D01*
X153325433Y-82875103D01*
X153165226Y-82714897D01*
X154550000Y-82714897D01*
X154647545Y-82695494D01*
X154730239Y-82640239D01*
X154785494Y-82557545D01*
X154789979Y-82535000D01*
X155664671Y-82535000D01*
X156474524Y-83344854D01*
X156443823Y-83390801D01*
X156358450Y-83820000D01*
X156443823Y-84249199D01*
X156686944Y-84613056D01*
X157050801Y-84856177D01*
X157371661Y-84920000D01*
X157588339Y-84920000D01*
X157909199Y-84856177D01*
X158273056Y-84613056D01*
X158516177Y-84249199D01*
X158601550Y-83820000D01*
X158516177Y-83390801D01*
X158273056Y-83026944D01*
X157909199Y-82783823D01*
X157588339Y-82720000D01*
X157371661Y-82720000D01*
X157050801Y-82783823D01*
X157004854Y-82814524D01*
X156561626Y-82371296D01*
X156630000Y-82384897D01*
X158330000Y-82384897D01*
X158427545Y-82365494D01*
X158510239Y-82310239D01*
X158565494Y-82227545D01*
X158584897Y-82130000D01*
X158584897Y-80430000D01*
X158565494Y-80332455D01*
X158510239Y-80249761D01*
X158427545Y-80194506D01*
X158330000Y-80175103D01*
X156630000Y-80175103D01*
X156532455Y-80194506D01*
X156449761Y-80249761D01*
X156394506Y-80332455D01*
X156375103Y-80430000D01*
X156375103Y-80515000D01*
X154789979Y-80515000D01*
X154785494Y-80492455D01*
X154730239Y-80409761D01*
X154647545Y-80354506D01*
X154550000Y-80335103D01*
X153099999Y-80335103D01*
X153099999Y-79011703D01*
X153256784Y-79116464D01*
X153449999Y-79154897D01*
X154100001Y-79154897D01*
X154293216Y-79116464D01*
X154457016Y-79007016D01*
X154566464Y-78843216D01*
X154604897Y-78650001D01*
X154604897Y-78466500D01*
X155000000Y-78466500D01*
X155000000Y-78949728D01*
X155038060Y-79041614D01*
X155108386Y-79111940D01*
X155200272Y-79150000D01*
X155558500Y-79150000D01*
X155621000Y-79087500D01*
X155621000Y-78404000D01*
X156029000Y-78404000D01*
X156029000Y-79087500D01*
X156091500Y-79150000D01*
X156449728Y-79150000D01*
X156541614Y-79111940D01*
X156611940Y-79041614D01*
X156650000Y-78949728D01*
X156650000Y-78466500D01*
X156587500Y-78404000D01*
X156029000Y-78404000D01*
X155621000Y-78404000D01*
X155062500Y-78404000D01*
X155000000Y-78466500D01*
X154604897Y-78466500D01*
X154604897Y-77900433D01*
X154689651Y-77815679D01*
X154689653Y-77815676D01*
X154955340Y-77549990D01*
X155000000Y-77549990D01*
X155000000Y-77933500D01*
X155062500Y-77996000D01*
X155621000Y-77996000D01*
X155621000Y-77976000D01*
X156029000Y-77976000D01*
X156029000Y-77996000D01*
X156587500Y-77996000D01*
X156650000Y-77933500D01*
X156650000Y-77549990D01*
X158038084Y-77549990D01*
X158075010Y-77557335D01*
X158111936Y-77549990D01*
X158111941Y-77549990D01*
X158221327Y-77528232D01*
X158345369Y-77445349D01*
X158366289Y-77414040D01*
X158689052Y-77091278D01*
X158720359Y-77070359D01*
X158746848Y-77030717D01*
X158803241Y-76946319D01*
X158803241Y-76946318D01*
X158803242Y-76946317D01*
X158825000Y-76836931D01*
X158825000Y-76836927D01*
X158831371Y-76804897D01*
X158850000Y-76804897D01*
X158947545Y-76785494D01*
X159030239Y-76730239D01*
X159085494Y-76647545D01*
X159104897Y-76550000D01*
X159104897Y-75650000D01*
X159085494Y-75552455D01*
X159030239Y-75469761D01*
X158947545Y-75414506D01*
X158850000Y-75395103D01*
X158800000Y-75395103D01*
X158800000Y-72944952D01*
X158943216Y-72916464D01*
X159107016Y-72807016D01*
X159216464Y-72643216D01*
X159254897Y-72450001D01*
X159254897Y-71549999D01*
X159216464Y-71356784D01*
X159107016Y-71192984D01*
X158943216Y-71083536D01*
X158750001Y-71045103D01*
X158675000Y-71045103D01*
X158675000Y-70454897D01*
X158750001Y-70454897D01*
X158943216Y-70416464D01*
X159107016Y-70307016D01*
X159216464Y-70143216D01*
X159254897Y-69950001D01*
X159254897Y-69299999D01*
X159216464Y-69106784D01*
X159107016Y-68942984D01*
X158943216Y-68833536D01*
X158750001Y-68795103D01*
X157849999Y-68795103D01*
X157656784Y-68833536D01*
X157492984Y-68942984D01*
X157383536Y-69106784D01*
X157345103Y-69299999D01*
X157345103Y-69950001D01*
X157383536Y-70143216D01*
X157492984Y-70307016D01*
X157656784Y-70416464D01*
X157849999Y-70454897D01*
X157925000Y-70454897D01*
X157925001Y-71079912D01*
X157906784Y-71083536D01*
X157742984Y-71192984D01*
X157633536Y-71356784D01*
X157595103Y-71549999D01*
X157595103Y-72450001D01*
X157633536Y-72643216D01*
X157742984Y-72807016D01*
X157906784Y-72916464D01*
X158050000Y-72944952D01*
X158050000Y-73446446D01*
X158041614Y-73438060D01*
X157949728Y-73400000D01*
X157762500Y-73400000D01*
X157700000Y-73462500D01*
X157700000Y-73896000D01*
X157724000Y-73896000D01*
X157724000Y-74304000D01*
X157700000Y-74304000D01*
X157700000Y-74737500D01*
X157762500Y-74800000D01*
X157949728Y-74800000D01*
X158041614Y-74761940D01*
X158050001Y-74753553D01*
X158050001Y-75395103D01*
X158050000Y-75395103D01*
X157952455Y-75414506D01*
X157869761Y-75469761D01*
X157814506Y-75552455D01*
X157795103Y-75650000D01*
X157795103Y-76550000D01*
X157814506Y-76647545D01*
X157869761Y-76730239D01*
X157941498Y-76778173D01*
X157919681Y-76799990D01*
X156974669Y-76799990D01*
X157047545Y-76785494D01*
X157130239Y-76730239D01*
X157185494Y-76647545D01*
X157204897Y-76550000D01*
X157204897Y-75650000D01*
X157185494Y-75552455D01*
X157130239Y-75469761D01*
X157047545Y-75414506D01*
X156950000Y-75395103D01*
X156150000Y-75395103D01*
X156052455Y-75414506D01*
X155969761Y-75469761D01*
X155914506Y-75552455D01*
X155895103Y-75650000D01*
X155244952Y-75650000D01*
X155216464Y-75506784D01*
X155107016Y-75342984D01*
X154943216Y-75233536D01*
X154750001Y-75195103D01*
X153849999Y-75195103D01*
X153656784Y-75233536D01*
X153492984Y-75342984D01*
X153383536Y-75506784D01*
X153345103Y-75699999D01*
X153345103Y-76273372D01*
X152562905Y-76273372D01*
X152616464Y-76193216D01*
X152654897Y-76000001D01*
X152654897Y-75349999D01*
X152616464Y-75156784D01*
X152507016Y-74992984D01*
X152343216Y-74883536D01*
X152150001Y-74845103D01*
X151249999Y-74845103D01*
X151056784Y-74883536D01*
X150892984Y-74992984D01*
X150783536Y-75156784D01*
X150755048Y-75300000D01*
X150344952Y-75300000D01*
X150316464Y-75156784D01*
X150207016Y-74992984D01*
X150043216Y-74883536D01*
X149850001Y-74845103D01*
X148949999Y-74845103D01*
X148756784Y-74883536D01*
X148592984Y-74992984D01*
X148483536Y-75156784D01*
X148445103Y-75349999D01*
X148445103Y-76000001D01*
X148483536Y-76193216D01*
X148537095Y-76273372D01*
X146278702Y-76273372D01*
X145766279Y-75760950D01*
X145745359Y-75729641D01*
X145629897Y-75652491D01*
X145629897Y-75649999D01*
X145591464Y-75456784D01*
X145482016Y-75292984D01*
X145318216Y-75183536D01*
X145125001Y-75145103D01*
X143874999Y-75145103D01*
X143681784Y-75183536D01*
X143674990Y-75188076D01*
X143674990Y-74642394D01*
X143836989Y-74769062D01*
X144160832Y-74859006D01*
X144296000Y-74795968D01*
X144296000Y-74204000D01*
X144704000Y-74204000D01*
X144704000Y-74795968D01*
X144839168Y-74859006D01*
X145163011Y-74769062D01*
X145427783Y-74562035D01*
X145558085Y-74330571D01*
X145542275Y-74241500D01*
X153350000Y-74241500D01*
X153350000Y-74599728D01*
X153388060Y-74691614D01*
X153458386Y-74761940D01*
X153550272Y-74800000D01*
X154033500Y-74800000D01*
X154096000Y-74737500D01*
X154096000Y-74179000D01*
X154504000Y-74179000D01*
X154504000Y-74737500D01*
X154566500Y-74800000D01*
X155049728Y-74800000D01*
X155141614Y-74761940D01*
X155211940Y-74691614D01*
X155250000Y-74599728D01*
X155250000Y-74366500D01*
X156850000Y-74366500D01*
X156850000Y-74599728D01*
X156888060Y-74691614D01*
X156958386Y-74761940D01*
X157050272Y-74800000D01*
X157237500Y-74800000D01*
X157300000Y-74737500D01*
X157300000Y-74304000D01*
X156912500Y-74304000D01*
X156850000Y-74366500D01*
X155250000Y-74366500D01*
X155250000Y-74241500D01*
X155187500Y-74179000D01*
X154504000Y-74179000D01*
X154096000Y-74179000D01*
X153412500Y-74179000D01*
X153350000Y-74241500D01*
X145542275Y-74241500D01*
X145535618Y-74204000D01*
X144704000Y-74204000D01*
X144296000Y-74204000D01*
X144276000Y-74204000D01*
X144276000Y-73796000D01*
X144296000Y-73796000D01*
X144296000Y-73204032D01*
X144704000Y-73204032D01*
X144704000Y-73796000D01*
X145535618Y-73796000D01*
X145558085Y-73669429D01*
X145427783Y-73437965D01*
X145315631Y-73350272D01*
X153350000Y-73350272D01*
X153350000Y-73708500D01*
X153412500Y-73771000D01*
X154096000Y-73771000D01*
X154096000Y-73212500D01*
X154504000Y-73212500D01*
X154504000Y-73771000D01*
X155187500Y-73771000D01*
X155250000Y-73708500D01*
X155250000Y-73600272D01*
X156850000Y-73600272D01*
X156850000Y-73833500D01*
X156912500Y-73896000D01*
X157300000Y-73896000D01*
X157300000Y-73462500D01*
X157237500Y-73400000D01*
X157050272Y-73400000D01*
X156958386Y-73438060D01*
X156888060Y-73508386D01*
X156850000Y-73600272D01*
X155250000Y-73600272D01*
X155250000Y-73350272D01*
X155211940Y-73258386D01*
X155141614Y-73188060D01*
X155049728Y-73150000D01*
X154566500Y-73150000D01*
X154504000Y-73212500D01*
X154096000Y-73212500D01*
X154033500Y-73150000D01*
X153550272Y-73150000D01*
X153458386Y-73188060D01*
X153388060Y-73258386D01*
X153350000Y-73350272D01*
X145315631Y-73350272D01*
X145163011Y-73230938D01*
X144839168Y-73140994D01*
X144704000Y-73204032D01*
X144296000Y-73204032D01*
X144248466Y-73181864D01*
X145163830Y-72266500D01*
X155550000Y-72266500D01*
X155550000Y-72749728D01*
X155588060Y-72841614D01*
X155658386Y-72911940D01*
X155750272Y-72950000D01*
X156108500Y-72950000D01*
X156171000Y-72887500D01*
X156171000Y-72204000D01*
X156579000Y-72204000D01*
X156579000Y-72887500D01*
X156641500Y-72950000D01*
X156999728Y-72950000D01*
X157091614Y-72911940D01*
X157161940Y-72841614D01*
X157200000Y-72749728D01*
X157200000Y-72266500D01*
X157137500Y-72204000D01*
X156579000Y-72204000D01*
X156171000Y-72204000D01*
X155612500Y-72204000D01*
X155550000Y-72266500D01*
X145163830Y-72266500D01*
X146180058Y-71250272D01*
X155550000Y-71250272D01*
X155550000Y-71733500D01*
X155612500Y-71796000D01*
X156171000Y-71796000D01*
X156171000Y-71112500D01*
X156579000Y-71112500D01*
X156579000Y-71796000D01*
X157137500Y-71796000D01*
X157200000Y-71733500D01*
X157200000Y-71250272D01*
X157161940Y-71158386D01*
X157091614Y-71088060D01*
X156999728Y-71050000D01*
X156641500Y-71050000D01*
X156579000Y-71112500D01*
X156171000Y-71112500D01*
X156108500Y-71050000D01*
X155750272Y-71050000D01*
X155658386Y-71088060D01*
X155588060Y-71158386D01*
X155550000Y-71250272D01*
X146180058Y-71250272D01*
X147191279Y-70239051D01*
X147191281Y-70239048D01*
X147318291Y-70112038D01*
X147651360Y-70250000D01*
X148148640Y-70250000D01*
X148608068Y-70059699D01*
X148959699Y-69708068D01*
X149097660Y-69375000D01*
X153202340Y-69375000D01*
X153340301Y-69708068D01*
X153691932Y-70059699D01*
X154151360Y-70250000D01*
X154648640Y-70250000D01*
X155108068Y-70059699D01*
X155459699Y-69708068D01*
X155650000Y-69248640D01*
X155650000Y-68751360D01*
X155512039Y-68418291D01*
X155980330Y-67950000D01*
X157355048Y-67950000D01*
X157383536Y-68093216D01*
X157492984Y-68257016D01*
X157656784Y-68366464D01*
X157849999Y-68404897D01*
X158750001Y-68404897D01*
X158943216Y-68366464D01*
X159107016Y-68257016D01*
X159216464Y-68093216D01*
X159254897Y-67900001D01*
X159254897Y-67249999D01*
X159216464Y-67056784D01*
X159107016Y-66892984D01*
X158943216Y-66783536D01*
X158750001Y-66745103D01*
X157849999Y-66745103D01*
X157656784Y-66783536D01*
X157492984Y-66892984D01*
X157383536Y-67056784D01*
X157355048Y-67200000D01*
X155861925Y-67200000D01*
X155824999Y-67192655D01*
X155788073Y-67200000D01*
X155788069Y-67200000D01*
X155678683Y-67221758D01*
X155678682Y-67221759D01*
X155678681Y-67221759D01*
X155585948Y-67283722D01*
X155554641Y-67304641D01*
X155533722Y-67335948D01*
X154981709Y-67887961D01*
X154648640Y-67750000D01*
X154151360Y-67750000D01*
X153691932Y-67940301D01*
X153340301Y-68291932D01*
X153202340Y-68625000D01*
X149097660Y-68625000D01*
X148959699Y-68291932D01*
X148608068Y-67940301D01*
X148148640Y-67750000D01*
X147651360Y-67750000D01*
X147191932Y-67940301D01*
X146840301Y-68291932D01*
X146650000Y-68751360D01*
X146650000Y-69248640D01*
X146787962Y-69581709D01*
X146660952Y-69708719D01*
X146660949Y-69708721D01*
X143060939Y-73308732D01*
X143029632Y-73329651D01*
X143008713Y-73360958D01*
X143008711Y-73360960D01*
X142946749Y-73453692D01*
X142917645Y-73600010D01*
X142338030Y-73600010D01*
X142338030Y-64390998D01*
X142350000Y-64277157D01*
X142350000Y-64748097D01*
X142616421Y-65391296D01*
X143108704Y-65883579D01*
X143751903Y-66150000D01*
X144448097Y-66150000D01*
X145091296Y-65883579D01*
X145485847Y-65489028D01*
X147199471Y-65489028D01*
X147325572Y-65637698D01*
X147804676Y-65770920D01*
X148298292Y-65710656D01*
X148474428Y-65637698D01*
X148600529Y-65489028D01*
X153699471Y-65489028D01*
X153825572Y-65637698D01*
X154304676Y-65770920D01*
X154798292Y-65710656D01*
X154974428Y-65637698D01*
X155100529Y-65489028D01*
X154400000Y-64788500D01*
X153699471Y-65489028D01*
X148600529Y-65489028D01*
X147900000Y-64788500D01*
X147199471Y-65489028D01*
X145485847Y-65489028D01*
X145583579Y-65391296D01*
X145850000Y-64748097D01*
X145850000Y-64404676D01*
X146629080Y-64404676D01*
X146689344Y-64898292D01*
X146762302Y-65074428D01*
X146910972Y-65200529D01*
X147611500Y-64500000D01*
X148188500Y-64500000D01*
X148889028Y-65200529D01*
X149037698Y-65074428D01*
X149170920Y-64595324D01*
X149147645Y-64404676D01*
X153129080Y-64404676D01*
X153189344Y-64898292D01*
X153262302Y-65074428D01*
X153410972Y-65200529D01*
X154111500Y-64500000D01*
X154688500Y-64500000D01*
X155389028Y-65200529D01*
X155537698Y-65074428D01*
X155670920Y-64595324D01*
X155610656Y-64101708D01*
X155537698Y-63925572D01*
X155389028Y-63799471D01*
X154688500Y-64500000D01*
X154111500Y-64500000D01*
X153410972Y-63799471D01*
X153262302Y-63925572D01*
X153129080Y-64404676D01*
X149147645Y-64404676D01*
X149110656Y-64101708D01*
X149037698Y-63925572D01*
X148889028Y-63799471D01*
X148188500Y-64500000D01*
X147611500Y-64500000D01*
X146910972Y-63799471D01*
X146762302Y-63925572D01*
X146629080Y-64404676D01*
X145850000Y-64404676D01*
X145850000Y-64051903D01*
X145625940Y-63510972D01*
X147199471Y-63510972D01*
X147900000Y-64211500D01*
X148600529Y-63510972D01*
X153699471Y-63510972D01*
X154400000Y-64211500D01*
X155100529Y-63510972D01*
X154974428Y-63362302D01*
X154495324Y-63229080D01*
X154001708Y-63289344D01*
X153825572Y-63362302D01*
X153699471Y-63510972D01*
X148600529Y-63510972D01*
X148474428Y-63362302D01*
X147995324Y-63229080D01*
X147501708Y-63289344D01*
X147325572Y-63362302D01*
X147199471Y-63510972D01*
X145625940Y-63510972D01*
X145583579Y-63408704D01*
X145091296Y-62916421D01*
X144448097Y-62650000D01*
X143853002Y-62650000D01*
X143905242Y-62638900D01*
X158270818Y-62638900D01*
X158323058Y-62650000D01*
X158323058Y-62650000D01*
G37*
X158323058Y-62650000D02*
X157751903Y-62650000D01*
X157108704Y-62916421D01*
X156616421Y-63408704D01*
X156350000Y-64051903D01*
X156350000Y-64748097D01*
X156616421Y-65391296D01*
X157108704Y-65883579D01*
X157751903Y-66150000D01*
X158448097Y-66150000D01*
X159091296Y-65883579D01*
X159583579Y-65391296D01*
X159838031Y-64776993D01*
X159838030Y-93923005D01*
X159583579Y-93308704D01*
X159091296Y-92816421D01*
X158448097Y-92550000D01*
X157751903Y-92550000D01*
X157108704Y-92816421D01*
X156616421Y-93308704D01*
X156350000Y-93951903D01*
X156350000Y-94648097D01*
X156616421Y-95291296D01*
X157108704Y-95783579D01*
X157751903Y-96050000D01*
X158448097Y-96050000D01*
X159091296Y-95783579D01*
X159548538Y-95326337D01*
X159502694Y-95405742D01*
X159258100Y-95677377D01*
X158962347Y-95892201D01*
X158628379Y-96040925D01*
X158270818Y-96116900D01*
X143905242Y-96116900D01*
X143547683Y-96040926D01*
X143213713Y-95892202D01*
X142917964Y-95677381D01*
X142673366Y-95405741D01*
X142490589Y-95089164D01*
X142377632Y-94741438D01*
X142373879Y-94705747D01*
X142616421Y-95291296D01*
X143108704Y-95783579D01*
X143751903Y-96050000D01*
X144448097Y-96050000D01*
X145091296Y-95783579D01*
X145583579Y-95291296D01*
X145850000Y-94648097D01*
X145850000Y-94610585D01*
X147484282Y-94610585D01*
X147704938Y-94978728D01*
X148049680Y-95234406D01*
X148149419Y-95275697D01*
X148316000Y-95257246D01*
X148316000Y-94444000D01*
X148724000Y-94444000D01*
X148724000Y-95257246D01*
X148890581Y-95275697D01*
X148990320Y-95234406D01*
X149335062Y-94978728D01*
X149555718Y-94610585D01*
X149538439Y-94444000D01*
X148724000Y-94444000D01*
X148316000Y-94444000D01*
X147501561Y-94444000D01*
X147484282Y-94610585D01*
X145850000Y-94610585D01*
X145850000Y-94240000D01*
X149938450Y-94240000D01*
X150023823Y-94669199D01*
X150266944Y-95033056D01*
X150630801Y-95276177D01*
X150951661Y-95340000D01*
X151168339Y-95340000D01*
X151489199Y-95276177D01*
X151853056Y-95033056D01*
X152096177Y-94669199D01*
X152181550Y-94240000D01*
X152096177Y-93810801D01*
X151853056Y-93446944D01*
X151489199Y-93203823D01*
X151168339Y-93140000D01*
X150951661Y-93140000D01*
X150630801Y-93203823D01*
X150266944Y-93446944D01*
X150023823Y-93810801D01*
X149938450Y-94240000D01*
X145850000Y-94240000D01*
X145850000Y-93951903D01*
X145815833Y-93869415D01*
X147484282Y-93869415D01*
X147501561Y-94036000D01*
X148316000Y-94036000D01*
X148316000Y-93222754D01*
X148724000Y-93222754D01*
X148724000Y-94036000D01*
X149538439Y-94036000D01*
X149555718Y-93869415D01*
X149335062Y-93501272D01*
X148990320Y-93245594D01*
X148890581Y-93204303D01*
X148724000Y-93222754D01*
X148316000Y-93222754D01*
X148149419Y-93204303D01*
X148049680Y-93245594D01*
X147704938Y-93501272D01*
X147484282Y-93869415D01*
X145815833Y-93869415D01*
X145583579Y-93308704D01*
X145091296Y-92816421D01*
X144448097Y-92550000D01*
X143751903Y-92550000D01*
X143108704Y-92816421D01*
X142616421Y-93308704D01*
X142350000Y-93951903D01*
X142350000Y-94478643D01*
X142338030Y-94364802D01*
X142338030Y-73600010D01*
X142917645Y-73600010D01*
X142924991Y-73636941D01*
X142924990Y-89050024D01*
X142917645Y-89086950D01*
X142924990Y-89123876D01*
X142924990Y-89123880D01*
X142946748Y-89233266D01*
X142946749Y-89233267D01*
X142946749Y-89233268D01*
X143002938Y-89317360D01*
X143029631Y-89357309D01*
X143060941Y-89378230D01*
X145621762Y-91939052D01*
X145642681Y-91970359D01*
X145673988Y-91991278D01*
X145673989Y-91991279D01*
X145728104Y-92027437D01*
X145766723Y-92053242D01*
X145876109Y-92075000D01*
X145876114Y-92075000D01*
X145913040Y-92082345D01*
X145949966Y-92075000D01*
X147473042Y-92075000D01*
X147483823Y-92129199D01*
X147726944Y-92493056D01*
X148090801Y-92736177D01*
X148411661Y-92800000D01*
X148628339Y-92800000D01*
X148949199Y-92736177D01*
X149313056Y-92493056D01*
X149556177Y-92129199D01*
X149641550Y-91700000D01*
X149556177Y-91270801D01*
X149313056Y-90906944D01*
X148949199Y-90663823D01*
X148628339Y-90600000D01*
X148411661Y-90600000D01*
X148090801Y-90663823D01*
X148044854Y-90694524D01*
X147375000Y-90024671D01*
X147375000Y-87795329D01*
X147461882Y-87708447D01*
X147469761Y-87720239D01*
X147552455Y-87775494D01*
X147650000Y-87794897D01*
X149150000Y-87794897D01*
X149247545Y-87775494D01*
X149330239Y-87720239D01*
X149385494Y-87637545D01*
X149404897Y-87540000D01*
X149404897Y-86940000D01*
X149385494Y-86842455D01*
X149330239Y-86759761D01*
X149247545Y-86704506D01*
X149150000Y-86685103D01*
X147650000Y-86685103D01*
X147552455Y-86704506D01*
X147469761Y-86759761D01*
X147414506Y-86842455D01*
X147411045Y-86859852D01*
X147399999Y-86857655D01*
X147363073Y-86865000D01*
X147363069Y-86865000D01*
X147340925Y-86869405D01*
X147685433Y-86524897D01*
X149150000Y-86524897D01*
X149247545Y-86505494D01*
X149330239Y-86450239D01*
X149385494Y-86367545D01*
X149404897Y-86270000D01*
X149404897Y-85670000D01*
X149385494Y-85572455D01*
X149330239Y-85489761D01*
X149247545Y-85434506D01*
X149150000Y-85415103D01*
X147650000Y-85415103D01*
X147552455Y-85434506D01*
X147469761Y-85489761D01*
X147414506Y-85572455D01*
X147395103Y-85670000D01*
X147395103Y-85754567D01*
X145390951Y-87758720D01*
X145390948Y-87758722D01*
X145255146Y-87894524D01*
X145209199Y-87863823D01*
X144888339Y-87800000D01*
X144671661Y-87800000D01*
X144350801Y-87863823D01*
X143986944Y-88106944D01*
X143743823Y-88470801D01*
X143674990Y-88816848D01*
X143674990Y-86443152D01*
X143743823Y-86789199D01*
X143986944Y-87153056D01*
X144350801Y-87396177D01*
X144671661Y-87460000D01*
X144888339Y-87460000D01*
X145209199Y-87396177D01*
X145573056Y-87153056D01*
X145816177Y-86789199D01*
X145901550Y-86360000D01*
X145816177Y-85930801D01*
X145785476Y-85884854D01*
X146595330Y-85075000D01*
X147410021Y-85075000D01*
X147414506Y-85097545D01*
X147469761Y-85180239D01*
X147552455Y-85235494D01*
X147650000Y-85254897D01*
X149150000Y-85254897D01*
X149247545Y-85235494D01*
X149330239Y-85180239D01*
X149385494Y-85097545D01*
X149404897Y-85000000D01*
X149404897Y-84400000D01*
X149385494Y-84302455D01*
X149330239Y-84219761D01*
X149247545Y-84164506D01*
X149150000Y-84145103D01*
X147650000Y-84145103D01*
X147552455Y-84164506D01*
X147469761Y-84219761D01*
X147414506Y-84302455D01*
X147410021Y-84325000D01*
X146476926Y-84325000D01*
X146440000Y-84317655D01*
X146403074Y-84325000D01*
X146403069Y-84325000D01*
X146293683Y-84346758D01*
X146293681Y-84346759D01*
X146293682Y-84346759D01*
X146200949Y-84408721D01*
X146200948Y-84408722D01*
X146169641Y-84429641D01*
X146148722Y-84460948D01*
X145255146Y-85354524D01*
X145209199Y-85323823D01*
X144888339Y-85260000D01*
X144671661Y-85260000D01*
X144350801Y-85323823D01*
X143986944Y-85566944D01*
X143743823Y-85930801D01*
X143674990Y-86276848D01*
X143674990Y-83903152D01*
X143743823Y-84249199D01*
X143986944Y-84613056D01*
X144350801Y-84856177D01*
X144671661Y-84920000D01*
X144888339Y-84920000D01*
X145209199Y-84856177D01*
X145573056Y-84613056D01*
X145816177Y-84249199D01*
X145901550Y-83820000D01*
X145898566Y-83805000D01*
X147410021Y-83805000D01*
X147414506Y-83827545D01*
X147469761Y-83910239D01*
X147552455Y-83965494D01*
X147650000Y-83984897D01*
X149150000Y-83984897D01*
X149247545Y-83965494D01*
X149330239Y-83910239D01*
X149385494Y-83827545D01*
X149404897Y-83730000D01*
X149404897Y-83130000D01*
X149385494Y-83032455D01*
X149330239Y-82949761D01*
X149247545Y-82894506D01*
X149150000Y-82875103D01*
X147650000Y-82875103D01*
X147552455Y-82894506D01*
X147469761Y-82949761D01*
X147414506Y-83032455D01*
X147410021Y-83055000D01*
X145591802Y-83055000D01*
X145573056Y-83026944D01*
X145209199Y-82783823D01*
X144888339Y-82720000D01*
X144671661Y-82720000D01*
X144350801Y-82783823D01*
X143986944Y-83026944D01*
X143743823Y-83390801D01*
X143674990Y-83736848D01*
X143674990Y-80430000D01*
X143675103Y-80430000D01*
X143675103Y-82130000D01*
X143694506Y-82227545D01*
X143749761Y-82310239D01*
X143832455Y-82365494D01*
X143930000Y-82384897D01*
X145354567Y-82384897D01*
X145368722Y-82399052D01*
X145389641Y-82430359D01*
X145420948Y-82451278D01*
X145420949Y-82451279D01*
X145513681Y-82513241D01*
X145513682Y-82513241D01*
X145513683Y-82513242D01*
X145623069Y-82535000D01*
X145623073Y-82535000D01*
X145660000Y-82542345D01*
X145696926Y-82535000D01*
X147410021Y-82535000D01*
X147414506Y-82557545D01*
X147469761Y-82640239D01*
X147552455Y-82695494D01*
X147650000Y-82714897D01*
X149150000Y-82714897D01*
X149247545Y-82695494D01*
X149330239Y-82640239D01*
X149385494Y-82557545D01*
X149404897Y-82460000D01*
X149404897Y-81860000D01*
X149385494Y-81762455D01*
X149330239Y-81679761D01*
X149247545Y-81624506D01*
X149150000Y-81605103D01*
X147650000Y-81605103D01*
X147552455Y-81624506D01*
X147469761Y-81679761D01*
X147414506Y-81762455D01*
X147410021Y-81785000D01*
X145884897Y-81785000D01*
X145884897Y-80430000D01*
X145865494Y-80332455D01*
X145810239Y-80249761D01*
X145727545Y-80194506D01*
X145630000Y-80175103D01*
X143930000Y-80175103D01*
X143832455Y-80194506D01*
X143749761Y-80249761D01*
X143694506Y-80332455D01*
X143675103Y-80430000D01*
X143674990Y-80430000D01*
X143674990Y-77991500D01*
X148450000Y-77991500D01*
X148450000Y-78349728D01*
X148488060Y-78441614D01*
X148558386Y-78511940D01*
X148650272Y-78550000D01*
X149133500Y-78550000D01*
X149196000Y-78487500D01*
X149196000Y-77929000D01*
X149604000Y-77929000D01*
X149604000Y-78487500D01*
X149666500Y-78550000D01*
X150149728Y-78550000D01*
X150241614Y-78511940D01*
X150311940Y-78441614D01*
X150350000Y-78349728D01*
X150350000Y-77991500D01*
X150287500Y-77929000D01*
X149604000Y-77929000D01*
X149196000Y-77929000D01*
X148512500Y-77929000D01*
X148450000Y-77991500D01*
X143674990Y-77991500D01*
X143674990Y-76811924D01*
X143681784Y-76816464D01*
X143874999Y-76854897D01*
X145125001Y-76854897D01*
X145318216Y-76816464D01*
X145482016Y-76707016D01*
X145549977Y-76605306D01*
X145832094Y-76887424D01*
X145853013Y-76918731D01*
X145884320Y-76939650D01*
X145977053Y-77001613D01*
X145977054Y-77001613D01*
X145977055Y-77001614D01*
X146086441Y-77023372D01*
X146086445Y-77023372D01*
X146123371Y-77030717D01*
X146160297Y-77023372D01*
X148481853Y-77023372D01*
X148450000Y-77100272D01*
X148450000Y-77458500D01*
X148512500Y-77521000D01*
X149196000Y-77521000D01*
X149196000Y-77501000D01*
X149604000Y-77501000D01*
X149604000Y-77521000D01*
X150287500Y-77521000D01*
X150350000Y-77458500D01*
X150350000Y-77100272D01*
X150318147Y-77023372D01*
X150922335Y-77023372D01*
X150892984Y-77042984D01*
X150783536Y-77206784D01*
X150745103Y-77399999D01*
X150745103Y-78050001D01*
X150783536Y-78243216D01*
X150856803Y-78352867D01*
X148874568Y-80335103D01*
X147650000Y-80335103D01*
X147552455Y-80354506D01*
X147469761Y-80409761D01*
X147414506Y-80492455D01*
X147395103Y-80590000D01*
X147395103Y-81190000D01*
X147414506Y-81287545D01*
X147469761Y-81370239D01*
X147552455Y-81425494D01*
X147650000Y-81444897D01*
X149150000Y-81444897D01*
X149247545Y-81425494D01*
X149330239Y-81370239D01*
X149385494Y-81287545D01*
X149404897Y-81190000D01*
X149404897Y-80865432D01*
X151715433Y-78554897D01*
X152150001Y-78554897D01*
X152343216Y-78516464D01*
X152355995Y-78507925D01*
X152349999Y-78538071D01*
X152349999Y-78538075D01*
X152342654Y-78575001D01*
X152349999Y-78611927D01*
X152350000Y-82768068D01*
X152342654Y-82804999D01*
X152371758Y-82951317D01*
X152433720Y-83044049D01*
X152433722Y-83044051D01*
X152454641Y-83075358D01*
X152485947Y-83096276D01*
X152795103Y-83405433D01*
X152795103Y-83454567D01*
X152185949Y-84063721D01*
X152154640Y-84084642D01*
X152133720Y-84115951D01*
X152101277Y-84164506D01*
X152071757Y-84208685D01*
X152049999Y-84318071D01*
X152049999Y-84318075D01*
X152042654Y-84355001D01*
X152049999Y-84391927D01*
X152050000Y-91201692D01*
X151853056Y-90906944D01*
X151489199Y-90663823D01*
X151168339Y-90600000D01*
X150951661Y-90600000D01*
X150630801Y-90663823D01*
X150572865Y-90702535D01*
X148935226Y-89064897D01*
X149150000Y-89064897D01*
X149247545Y-89045494D01*
X149330239Y-88990239D01*
X149385494Y-88907545D01*
X149404897Y-88810000D01*
X149404897Y-88210000D01*
X149385494Y-88112455D01*
X149330239Y-88029761D01*
X149247545Y-87974506D01*
X149150000Y-87955103D01*
X147650000Y-87955103D01*
X147552455Y-87974506D01*
X147469761Y-88029761D01*
X147414506Y-88112455D01*
X147395103Y-88210000D01*
X147395103Y-88810000D01*
X147414506Y-88907545D01*
X147469761Y-88990239D01*
X147552455Y-89045494D01*
X147650000Y-89064897D01*
X148018629Y-89064897D01*
X148046759Y-89206318D01*
X148108721Y-89299050D01*
X148108723Y-89299052D01*
X148129642Y-89330359D01*
X148160949Y-89351278D01*
X150046513Y-91236843D01*
X150023823Y-91270801D01*
X149938450Y-91700000D01*
X150023823Y-92129199D01*
X150266944Y-92493056D01*
X150630801Y-92736177D01*
X150951661Y-92800000D01*
X151168339Y-92800000D01*
X151489199Y-92736177D01*
X151853056Y-92493056D01*
X152050000Y-92198308D01*
X152050000Y-93028068D01*
X152042654Y-93064999D01*
X152071758Y-93211317D01*
X152133720Y-93304049D01*
X152133722Y-93304051D01*
X152154641Y-93335358D01*
X152185947Y-93356276D01*
X152510949Y-93681280D01*
X152510955Y-93681284D01*
X152594524Y-93764853D01*
X152563823Y-93810801D01*
X152478450Y-94240000D01*
X152563823Y-94669199D01*
X152806944Y-95033056D01*
X153170801Y-95276177D01*
X153491661Y-95340000D01*
X153708339Y-95340000D01*
X154029199Y-95276177D01*
X154393056Y-95033056D01*
X154636177Y-94669199D01*
X154721550Y-94240000D01*
X154636177Y-93810801D01*
X154393056Y-93446944D01*
X154029199Y-93203823D01*
X153708339Y-93140000D01*
X153491661Y-93140000D01*
X153170801Y-93203823D01*
X153124853Y-93234524D01*
X153041284Y-93150955D01*
X153041280Y-93150949D01*
X152799999Y-92909669D01*
X152799999Y-92804897D01*
X154450000Y-92804897D01*
X154547545Y-92785494D01*
X154630239Y-92730239D01*
X154685494Y-92647545D01*
X154704897Y-92550000D01*
X154704897Y-90850000D01*
X154685494Y-90752455D01*
X154630239Y-90669761D01*
X154547545Y-90614506D01*
X154450000Y-90595103D01*
X154175000Y-90595103D01*
X154175000Y-89064897D01*
X154550000Y-89064897D01*
X154647545Y-89045494D01*
X154730239Y-88990239D01*
X154785494Y-88907545D01*
X154804897Y-88810000D01*
X154804897Y-88210000D01*
X154785494Y-88112455D01*
X154730239Y-88029761D01*
X154647545Y-87974506D01*
X154550000Y-87955103D01*
X153050000Y-87955103D01*
X152952455Y-87974506D01*
X152869761Y-88029761D01*
X152814506Y-88112455D01*
X152799999Y-88185386D01*
X152799999Y-87564614D01*
X152814506Y-87637545D01*
X152869761Y-87720239D01*
X152952455Y-87775494D01*
X153050000Y-87794897D01*
X154550000Y-87794897D01*
X154647545Y-87775494D01*
X154730239Y-87720239D01*
X154785494Y-87637545D01*
X154789979Y-87615000D01*
X155664671Y-87615000D01*
X156474524Y-88424854D01*
X156443823Y-88470801D01*
X156358450Y-88900000D01*
X156443823Y-89329199D01*
X156686944Y-89693056D01*
X157050801Y-89936177D01*
X157371661Y-90000000D01*
X157588339Y-90000000D01*
X157909199Y-89936177D01*
X158273056Y-89693056D01*
X158516177Y-89329199D01*
X158601550Y-88900000D01*
X158516177Y-88470801D01*
X158273056Y-88106944D01*
X157909199Y-87863823D01*
X157588339Y-87800000D01*
X157371661Y-87800000D01*
X157050801Y-87863823D01*
X157004854Y-87894524D01*
X156111280Y-87000951D01*
X156090359Y-86969641D01*
X155966317Y-86886758D01*
X155856931Y-86865000D01*
X155856926Y-86865000D01*
X155820000Y-86857655D01*
X155783074Y-86865000D01*
X154789979Y-86865000D01*
X154785494Y-86842455D01*
X154730239Y-86759761D01*
X154647545Y-86704506D01*
X154550000Y-86685103D01*
X153050000Y-86685103D01*
X152952455Y-86704506D01*
X152869761Y-86759761D01*
X152814506Y-86842455D01*
X152799999Y-86915386D01*
X152799999Y-86294614D01*
X152814506Y-86367545D01*
X152869761Y-86450239D01*
X152952455Y-86505494D01*
X153050000Y-86524897D01*
X154550000Y-86524897D01*
X154647545Y-86505494D01*
X154730239Y-86450239D01*
X154785494Y-86367545D01*
X154789979Y-86345000D01*
X156361434Y-86345000D01*
X156358450Y-86360000D01*
X156443823Y-86789199D01*
X156686944Y-87153056D01*
X157050801Y-87396177D01*
X157371661Y-87460000D01*
X157588339Y-87460000D01*
X157909199Y-87396177D01*
X158273056Y-87153056D01*
X158516177Y-86789199D01*
X158601550Y-86360000D01*
X158516177Y-85930801D01*
X158273056Y-85566944D01*
X157909199Y-85323823D01*
X157588339Y-85260000D01*
X157371661Y-85260000D01*
X157050801Y-85323823D01*
X156686944Y-85566944D01*
X156668198Y-85595000D01*
X154789979Y-85595000D01*
X154785494Y-85572455D01*
X154730239Y-85489761D01*
X154647545Y-85434506D01*
X154550000Y-85415103D01*
X153050000Y-85415103D01*
X152952455Y-85434506D01*
X152869761Y-85489761D01*
X152814506Y-85572455D01*
X152799999Y-85645386D01*
X152799999Y-84912500D01*
X152800000Y-84912500D01*
X152800000Y-85049728D01*
X152838060Y-85141614D01*
X152908386Y-85211940D01*
X153000272Y-85250000D01*
X153533500Y-85250000D01*
X153596000Y-85187500D01*
X153596000Y-84850000D01*
X154004000Y-84850000D01*
X154004000Y-85187500D01*
X154066500Y-85250000D01*
X154599728Y-85250000D01*
X154691614Y-85211940D01*
X154761940Y-85141614D01*
X154800000Y-85049728D01*
X154800000Y-84912500D01*
X154737500Y-84850000D01*
X154004000Y-84850000D01*
X153596000Y-84850000D01*
X152862500Y-84850000D01*
X152800000Y-84912500D01*
X152799999Y-84912500D01*
X152799999Y-84510330D01*
X152811415Y-84498915D01*
X152862500Y-84550000D01*
X153596000Y-84550000D01*
X153596000Y-84212500D01*
X154004000Y-84212500D01*
X154004000Y-84550000D01*
X154737500Y-84550000D01*
X154800000Y-84487500D01*
X154800000Y-84350272D01*
X154761940Y-84258386D01*
X154691614Y-84188060D01*
X154599728Y-84150000D01*
X154066500Y-84150000D01*
X154004000Y-84212500D01*
X153596000Y-84212500D01*
X153533500Y-84150000D01*
X153160330Y-84150000D01*
X153325433Y-83984897D01*
X154550000Y-83984897D01*
X154647545Y-83965494D01*
X154730239Y-83910239D01*
X154785494Y-83827545D01*
X154804897Y-83730000D01*
X154804897Y-83130000D01*
X154785494Y-83032455D01*
X154730239Y-82949761D01*
X154647545Y-82894506D01*
X154550000Y-82875103D01*
X153325433Y-82875103D01*
X153165226Y-82714897D01*
X154550000Y-82714897D01*
X154647545Y-82695494D01*
X154730239Y-82640239D01*
X154785494Y-82557545D01*
X154789979Y-82535000D01*
X155664671Y-82535000D01*
X156474524Y-83344854D01*
X156443823Y-83390801D01*
X156358450Y-83820000D01*
X156443823Y-84249199D01*
X156686944Y-84613056D01*
X157050801Y-84856177D01*
X157371661Y-84920000D01*
X157588339Y-84920000D01*
X157909199Y-84856177D01*
X158273056Y-84613056D01*
X158516177Y-84249199D01*
X158601550Y-83820000D01*
X158516177Y-83390801D01*
X158273056Y-83026944D01*
X157909199Y-82783823D01*
X157588339Y-82720000D01*
X157371661Y-82720000D01*
X157050801Y-82783823D01*
X157004854Y-82814524D01*
X156561626Y-82371296D01*
X156630000Y-82384897D01*
X158330000Y-82384897D01*
X158427545Y-82365494D01*
X158510239Y-82310239D01*
X158565494Y-82227545D01*
X158584897Y-82130000D01*
X158584897Y-80430000D01*
X158565494Y-80332455D01*
X158510239Y-80249761D01*
X158427545Y-80194506D01*
X158330000Y-80175103D01*
X156630000Y-80175103D01*
X156532455Y-80194506D01*
X156449761Y-80249761D01*
X156394506Y-80332455D01*
X156375103Y-80430000D01*
X156375103Y-80515000D01*
X154789979Y-80515000D01*
X154785494Y-80492455D01*
X154730239Y-80409761D01*
X154647545Y-80354506D01*
X154550000Y-80335103D01*
X153099999Y-80335103D01*
X153099999Y-79011703D01*
X153256784Y-79116464D01*
X153449999Y-79154897D01*
X154100001Y-79154897D01*
X154293216Y-79116464D01*
X154457016Y-79007016D01*
X154566464Y-78843216D01*
X154604897Y-78650001D01*
X154604897Y-78466500D01*
X155000000Y-78466500D01*
X155000000Y-78949728D01*
X155038060Y-79041614D01*
X155108386Y-79111940D01*
X155200272Y-79150000D01*
X155558500Y-79150000D01*
X155621000Y-79087500D01*
X155621000Y-78404000D01*
X156029000Y-78404000D01*
X156029000Y-79087500D01*
X156091500Y-79150000D01*
X156449728Y-79150000D01*
X156541614Y-79111940D01*
X156611940Y-79041614D01*
X156650000Y-78949728D01*
X156650000Y-78466500D01*
X156587500Y-78404000D01*
X156029000Y-78404000D01*
X155621000Y-78404000D01*
X155062500Y-78404000D01*
X155000000Y-78466500D01*
X154604897Y-78466500D01*
X154604897Y-77900433D01*
X154689651Y-77815679D01*
X154689653Y-77815676D01*
X154955340Y-77549990D01*
X155000000Y-77549990D01*
X155000000Y-77933500D01*
X155062500Y-77996000D01*
X155621000Y-77996000D01*
X155621000Y-77976000D01*
X156029000Y-77976000D01*
X156029000Y-77996000D01*
X156587500Y-77996000D01*
X156650000Y-77933500D01*
X156650000Y-77549990D01*
X158038084Y-77549990D01*
X158075010Y-77557335D01*
X158111936Y-77549990D01*
X158111941Y-77549990D01*
X158221327Y-77528232D01*
X158345369Y-77445349D01*
X158366289Y-77414040D01*
X158689052Y-77091278D01*
X158720359Y-77070359D01*
X158746848Y-77030717D01*
X158803241Y-76946319D01*
X158803241Y-76946318D01*
X158803242Y-76946317D01*
X158825000Y-76836931D01*
X158825000Y-76836927D01*
X158831371Y-76804897D01*
X158850000Y-76804897D01*
X158947545Y-76785494D01*
X159030239Y-76730239D01*
X159085494Y-76647545D01*
X159104897Y-76550000D01*
X159104897Y-75650000D01*
X159085494Y-75552455D01*
X159030239Y-75469761D01*
X158947545Y-75414506D01*
X158850000Y-75395103D01*
X158800000Y-75395103D01*
X158800000Y-72944952D01*
X158943216Y-72916464D01*
X159107016Y-72807016D01*
X159216464Y-72643216D01*
X159254897Y-72450001D01*
X159254897Y-71549999D01*
X159216464Y-71356784D01*
X159107016Y-71192984D01*
X158943216Y-71083536D01*
X158750001Y-71045103D01*
X158675000Y-71045103D01*
X158675000Y-70454897D01*
X158750001Y-70454897D01*
X158943216Y-70416464D01*
X159107016Y-70307016D01*
X159216464Y-70143216D01*
X159254897Y-69950001D01*
X159254897Y-69299999D01*
X159216464Y-69106784D01*
X159107016Y-68942984D01*
X158943216Y-68833536D01*
X158750001Y-68795103D01*
X157849999Y-68795103D01*
X157656784Y-68833536D01*
X157492984Y-68942984D01*
X157383536Y-69106784D01*
X157345103Y-69299999D01*
X157345103Y-69950001D01*
X157383536Y-70143216D01*
X157492984Y-70307016D01*
X157656784Y-70416464D01*
X157849999Y-70454897D01*
X157925000Y-70454897D01*
X157925001Y-71079912D01*
X157906784Y-71083536D01*
X157742984Y-71192984D01*
X157633536Y-71356784D01*
X157595103Y-71549999D01*
X157595103Y-72450001D01*
X157633536Y-72643216D01*
X157742984Y-72807016D01*
X157906784Y-72916464D01*
X158050000Y-72944952D01*
X158050000Y-73446446D01*
X158041614Y-73438060D01*
X157949728Y-73400000D01*
X157762500Y-73400000D01*
X157700000Y-73462500D01*
X157700000Y-73896000D01*
X157724000Y-73896000D01*
X157724000Y-74304000D01*
X157700000Y-74304000D01*
X157700000Y-74737500D01*
X157762500Y-74800000D01*
X157949728Y-74800000D01*
X158041614Y-74761940D01*
X158050001Y-74753553D01*
X158050001Y-75395103D01*
X158050000Y-75395103D01*
X157952455Y-75414506D01*
X157869761Y-75469761D01*
X157814506Y-75552455D01*
X157795103Y-75650000D01*
X157795103Y-76550000D01*
X157814506Y-76647545D01*
X157869761Y-76730239D01*
X157941498Y-76778173D01*
X157919681Y-76799990D01*
X156974669Y-76799990D01*
X157047545Y-76785494D01*
X157130239Y-76730239D01*
X157185494Y-76647545D01*
X157204897Y-76550000D01*
X157204897Y-75650000D01*
X157185494Y-75552455D01*
X157130239Y-75469761D01*
X157047545Y-75414506D01*
X156950000Y-75395103D01*
X156150000Y-75395103D01*
X156052455Y-75414506D01*
X155969761Y-75469761D01*
X155914506Y-75552455D01*
X155895103Y-75650000D01*
X155244952Y-75650000D01*
X155216464Y-75506784D01*
X155107016Y-75342984D01*
X154943216Y-75233536D01*
X154750001Y-75195103D01*
X153849999Y-75195103D01*
X153656784Y-75233536D01*
X153492984Y-75342984D01*
X153383536Y-75506784D01*
X153345103Y-75699999D01*
X153345103Y-76273372D01*
X152562905Y-76273372D01*
X152616464Y-76193216D01*
X152654897Y-76000001D01*
X152654897Y-75349999D01*
X152616464Y-75156784D01*
X152507016Y-74992984D01*
X152343216Y-74883536D01*
X152150001Y-74845103D01*
X151249999Y-74845103D01*
X151056784Y-74883536D01*
X150892984Y-74992984D01*
X150783536Y-75156784D01*
X150755048Y-75300000D01*
X150344952Y-75300000D01*
X150316464Y-75156784D01*
X150207016Y-74992984D01*
X150043216Y-74883536D01*
X149850001Y-74845103D01*
X148949999Y-74845103D01*
X148756784Y-74883536D01*
X148592984Y-74992984D01*
X148483536Y-75156784D01*
X148445103Y-75349999D01*
X148445103Y-76000001D01*
X148483536Y-76193216D01*
X148537095Y-76273372D01*
X146278702Y-76273372D01*
X145766279Y-75760950D01*
X145745359Y-75729641D01*
X145629897Y-75652491D01*
X145629897Y-75649999D01*
X145591464Y-75456784D01*
X145482016Y-75292984D01*
X145318216Y-75183536D01*
X145125001Y-75145103D01*
X143874999Y-75145103D01*
X143681784Y-75183536D01*
X143674990Y-75188076D01*
X143674990Y-74642394D01*
X143836989Y-74769062D01*
X144160832Y-74859006D01*
X144296000Y-74795968D01*
X144296000Y-74204000D01*
X144704000Y-74204000D01*
X144704000Y-74795968D01*
X144839168Y-74859006D01*
X145163011Y-74769062D01*
X145427783Y-74562035D01*
X145558085Y-74330571D01*
X145542275Y-74241500D01*
X153350000Y-74241500D01*
X153350000Y-74599728D01*
X153388060Y-74691614D01*
X153458386Y-74761940D01*
X153550272Y-74800000D01*
X154033500Y-74800000D01*
X154096000Y-74737500D01*
X154096000Y-74179000D01*
X154504000Y-74179000D01*
X154504000Y-74737500D01*
X154566500Y-74800000D01*
X155049728Y-74800000D01*
X155141614Y-74761940D01*
X155211940Y-74691614D01*
X155250000Y-74599728D01*
X155250000Y-74366500D01*
X156850000Y-74366500D01*
X156850000Y-74599728D01*
X156888060Y-74691614D01*
X156958386Y-74761940D01*
X157050272Y-74800000D01*
X157237500Y-74800000D01*
X157300000Y-74737500D01*
X157300000Y-74304000D01*
X156912500Y-74304000D01*
X156850000Y-74366500D01*
X155250000Y-74366500D01*
X155250000Y-74241500D01*
X155187500Y-74179000D01*
X154504000Y-74179000D01*
X154096000Y-74179000D01*
X153412500Y-74179000D01*
X153350000Y-74241500D01*
X145542275Y-74241500D01*
X145535618Y-74204000D01*
X144704000Y-74204000D01*
X144296000Y-74204000D01*
X144276000Y-74204000D01*
X144276000Y-73796000D01*
X144296000Y-73796000D01*
X144296000Y-73204032D01*
X144704000Y-73204032D01*
X144704000Y-73796000D01*
X145535618Y-73796000D01*
X145558085Y-73669429D01*
X145427783Y-73437965D01*
X145315631Y-73350272D01*
X153350000Y-73350272D01*
X153350000Y-73708500D01*
X153412500Y-73771000D01*
X154096000Y-73771000D01*
X154096000Y-73212500D01*
X154504000Y-73212500D01*
X154504000Y-73771000D01*
X155187500Y-73771000D01*
X155250000Y-73708500D01*
X155250000Y-73600272D01*
X156850000Y-73600272D01*
X156850000Y-73833500D01*
X156912500Y-73896000D01*
X157300000Y-73896000D01*
X157300000Y-73462500D01*
X157237500Y-73400000D01*
X157050272Y-73400000D01*
X156958386Y-73438060D01*
X156888060Y-73508386D01*
X156850000Y-73600272D01*
X155250000Y-73600272D01*
X155250000Y-73350272D01*
X155211940Y-73258386D01*
X155141614Y-73188060D01*
X155049728Y-73150000D01*
X154566500Y-73150000D01*
X154504000Y-73212500D01*
X154096000Y-73212500D01*
X154033500Y-73150000D01*
X153550272Y-73150000D01*
X153458386Y-73188060D01*
X153388060Y-73258386D01*
X153350000Y-73350272D01*
X145315631Y-73350272D01*
X145163011Y-73230938D01*
X144839168Y-73140994D01*
X144704000Y-73204032D01*
X144296000Y-73204032D01*
X144248466Y-73181864D01*
X145163830Y-72266500D01*
X155550000Y-72266500D01*
X155550000Y-72749728D01*
X155588060Y-72841614D01*
X155658386Y-72911940D01*
X155750272Y-72950000D01*
X156108500Y-72950000D01*
X156171000Y-72887500D01*
X156171000Y-72204000D01*
X156579000Y-72204000D01*
X156579000Y-72887500D01*
X156641500Y-72950000D01*
X156999728Y-72950000D01*
X157091614Y-72911940D01*
X157161940Y-72841614D01*
X157200000Y-72749728D01*
X157200000Y-72266500D01*
X157137500Y-72204000D01*
X156579000Y-72204000D01*
X156171000Y-72204000D01*
X155612500Y-72204000D01*
X155550000Y-72266500D01*
X145163830Y-72266500D01*
X146180058Y-71250272D01*
X155550000Y-71250272D01*
X155550000Y-71733500D01*
X155612500Y-71796000D01*
X156171000Y-71796000D01*
X156171000Y-71112500D01*
X156579000Y-71112500D01*
X156579000Y-71796000D01*
X157137500Y-71796000D01*
X157200000Y-71733500D01*
X157200000Y-71250272D01*
X157161940Y-71158386D01*
X157091614Y-71088060D01*
X156999728Y-71050000D01*
X156641500Y-71050000D01*
X156579000Y-71112500D01*
X156171000Y-71112500D01*
X156108500Y-71050000D01*
X155750272Y-71050000D01*
X155658386Y-71088060D01*
X155588060Y-71158386D01*
X155550000Y-71250272D01*
X146180058Y-71250272D01*
X147191279Y-70239051D01*
X147191281Y-70239048D01*
X147318291Y-70112038D01*
X147651360Y-70250000D01*
X148148640Y-70250000D01*
X148608068Y-70059699D01*
X148959699Y-69708068D01*
X149097660Y-69375000D01*
X153202340Y-69375000D01*
X153340301Y-69708068D01*
X153691932Y-70059699D01*
X154151360Y-70250000D01*
X154648640Y-70250000D01*
X155108068Y-70059699D01*
X155459699Y-69708068D01*
X155650000Y-69248640D01*
X155650000Y-68751360D01*
X155512039Y-68418291D01*
X155980330Y-67950000D01*
X157355048Y-67950000D01*
X157383536Y-68093216D01*
X157492984Y-68257016D01*
X157656784Y-68366464D01*
X157849999Y-68404897D01*
X158750001Y-68404897D01*
X158943216Y-68366464D01*
X159107016Y-68257016D01*
X159216464Y-68093216D01*
X159254897Y-67900001D01*
X159254897Y-67249999D01*
X159216464Y-67056784D01*
X159107016Y-66892984D01*
X158943216Y-66783536D01*
X158750001Y-66745103D01*
X157849999Y-66745103D01*
X157656784Y-66783536D01*
X157492984Y-66892984D01*
X157383536Y-67056784D01*
X157355048Y-67200000D01*
X155861925Y-67200000D01*
X155824999Y-67192655D01*
X155788073Y-67200000D01*
X155788069Y-67200000D01*
X155678683Y-67221758D01*
X155678682Y-67221759D01*
X155678681Y-67221759D01*
X155585948Y-67283722D01*
X155554641Y-67304641D01*
X155533722Y-67335948D01*
X154981709Y-67887961D01*
X154648640Y-67750000D01*
X154151360Y-67750000D01*
X153691932Y-67940301D01*
X153340301Y-68291932D01*
X153202340Y-68625000D01*
X149097660Y-68625000D01*
X148959699Y-68291932D01*
X148608068Y-67940301D01*
X148148640Y-67750000D01*
X147651360Y-67750000D01*
X147191932Y-67940301D01*
X146840301Y-68291932D01*
X146650000Y-68751360D01*
X146650000Y-69248640D01*
X146787962Y-69581709D01*
X146660952Y-69708719D01*
X146660949Y-69708721D01*
X143060939Y-73308732D01*
X143029632Y-73329651D01*
X143008713Y-73360958D01*
X143008711Y-73360960D01*
X142946749Y-73453692D01*
X142917645Y-73600010D01*
X142338030Y-73600010D01*
X142338030Y-64390998D01*
X142350000Y-64277157D01*
X142350000Y-64748097D01*
X142616421Y-65391296D01*
X143108704Y-65883579D01*
X143751903Y-66150000D01*
X144448097Y-66150000D01*
X145091296Y-65883579D01*
X145485847Y-65489028D01*
X147199471Y-65489028D01*
X147325572Y-65637698D01*
X147804676Y-65770920D01*
X148298292Y-65710656D01*
X148474428Y-65637698D01*
X148600529Y-65489028D01*
X153699471Y-65489028D01*
X153825572Y-65637698D01*
X154304676Y-65770920D01*
X154798292Y-65710656D01*
X154974428Y-65637698D01*
X155100529Y-65489028D01*
X154400000Y-64788500D01*
X153699471Y-65489028D01*
X148600529Y-65489028D01*
X147900000Y-64788500D01*
X147199471Y-65489028D01*
X145485847Y-65489028D01*
X145583579Y-65391296D01*
X145850000Y-64748097D01*
X145850000Y-64404676D01*
X146629080Y-64404676D01*
X146689344Y-64898292D01*
X146762302Y-65074428D01*
X146910972Y-65200529D01*
X147611500Y-64500000D01*
X148188500Y-64500000D01*
X148889028Y-65200529D01*
X149037698Y-65074428D01*
X149170920Y-64595324D01*
X149147645Y-64404676D01*
X153129080Y-64404676D01*
X153189344Y-64898292D01*
X153262302Y-65074428D01*
X153410972Y-65200529D01*
X154111500Y-64500000D01*
X154688500Y-64500000D01*
X155389028Y-65200529D01*
X155537698Y-65074428D01*
X155670920Y-64595324D01*
X155610656Y-64101708D01*
X155537698Y-63925572D01*
X155389028Y-63799471D01*
X154688500Y-64500000D01*
X154111500Y-64500000D01*
X153410972Y-63799471D01*
X153262302Y-63925572D01*
X153129080Y-64404676D01*
X149147645Y-64404676D01*
X149110656Y-64101708D01*
X149037698Y-63925572D01*
X148889028Y-63799471D01*
X148188500Y-64500000D01*
X147611500Y-64500000D01*
X146910972Y-63799471D01*
X146762302Y-63925572D01*
X146629080Y-64404676D01*
X145850000Y-64404676D01*
X145850000Y-64051903D01*
X145625940Y-63510972D01*
X147199471Y-63510972D01*
X147900000Y-64211500D01*
X148600529Y-63510972D01*
X153699471Y-63510972D01*
X154400000Y-64211500D01*
X155100529Y-63510972D01*
X154974428Y-63362302D01*
X154495324Y-63229080D01*
X154001708Y-63289344D01*
X153825572Y-63362302D01*
X153699471Y-63510972D01*
X148600529Y-63510972D01*
X148474428Y-63362302D01*
X147995324Y-63229080D01*
X147501708Y-63289344D01*
X147325572Y-63362302D01*
X147199471Y-63510972D01*
X145625940Y-63510972D01*
X145583579Y-63408704D01*
X145091296Y-62916421D01*
X144448097Y-62650000D01*
X143853002Y-62650000D01*
X143905242Y-62638900D01*
X158270818Y-62638900D01*
X158323058Y-62650000D01*
G04 #@! TD*
M02*
