G04 #@! TF.GenerationSoftware,KiCad,Pcbnew,5.0.2+dfsg1-1*
G04 #@! TF.CreationDate,2019-04-22T18:48:39+01:00*
G04 #@! TF.ProjectId,hawk,6861776b-2e6b-4696-9361-645f70636258,rev?*
G04 #@! TF.SameCoordinates,Original*
G04 #@! TF.FileFunction,Profile,NP*
%FSLAX46Y46*%
G04 Gerber Fmt 4.6, Leading zero omitted, Abs format (unit mm)*
G04 Created by KiCad (PCBNEW 5.0.2+dfsg1-1) date Mon 22 Apr 2019 18:48:39 BST*
%MOMM*%
%LPD*%
G01*
G04 APERTURE LIST*
%ADD10C,0.200000*%
G04 APERTURE END LIST*
D10*
X160044310Y-63962100D02*
X159915120Y-63564400D01*
X158297080Y-96366900D02*
X158706060Y-96280000D01*
X142260940Y-95191400D02*
X142470000Y-95553500D01*
X142088030Y-64377900D02*
X142088030Y-94377900D01*
X142470000Y-63202300D02*
X142260940Y-63564400D01*
X142131750Y-63962100D02*
X142088030Y-64377900D01*
X160088030Y-94377900D02*
X160088030Y-64377900D01*
X160088030Y-64377900D02*
X160044310Y-63962100D01*
X159706060Y-63202300D02*
X159426290Y-62891600D01*
X143470000Y-62475800D02*
X143088030Y-62645900D01*
X158706060Y-62475800D02*
X158297080Y-62388900D01*
X143088030Y-96109900D02*
X143470000Y-96280000D01*
X142470000Y-95553500D02*
X142749770Y-95864200D01*
X142088030Y-94377900D02*
X142131750Y-94793700D01*
X159426290Y-62891600D02*
X159088030Y-62645900D01*
X159915120Y-95191400D02*
X160044310Y-94793700D01*
X142749770Y-62891600D02*
X142470000Y-63202300D01*
X160044310Y-94793700D02*
X160088030Y-94377900D01*
X142131750Y-94793700D02*
X142260940Y-95191400D01*
X143088030Y-62645900D02*
X142749770Y-62891600D01*
X143878980Y-62388900D02*
X143470000Y-62475800D01*
X158297080Y-62388900D02*
X143878980Y-62388900D01*
X159088030Y-62645900D02*
X158706060Y-62475800D01*
X159088030Y-96109900D02*
X159426290Y-95864200D01*
X143878980Y-96366900D02*
X158297080Y-96366900D01*
X142260940Y-63564400D02*
X142131750Y-63962100D01*
X159706060Y-95553500D02*
X159915120Y-95191400D01*
X159915120Y-63564400D02*
X159706060Y-63202300D01*
X159426290Y-95864200D02*
X159706060Y-95553500D01*
X142749770Y-95864200D02*
X143088030Y-96109900D01*
X158706060Y-96280000D02*
X159088030Y-96109900D01*
X143470000Y-96280000D02*
X143878980Y-96366900D01*
M02*
