G04 #@! TF.GenerationSoftware,KiCad,Pcbnew,5.0.2+dfsg1-1*
G04 #@! TF.CreationDate,2019-04-22T18:48:39+01:00*
G04 #@! TF.ProjectId,hawk,6861776b-2e6b-4696-9361-645f70636258,rev?*
G04 #@! TF.SameCoordinates,Original*
G04 #@! TF.FileFunction,Copper,L2,Bot*
G04 #@! TF.FilePolarity,Positive*
%FSLAX46Y46*%
G04 Gerber Fmt 4.6, Leading zero omitted, Abs format (unit mm)*
G04 Created by KiCad (PCBNEW 5.0.2+dfsg1-1) date Mon 22 Apr 2019 18:48:39 BST*
%MOMM*%
%LPD*%
G01*
G04 APERTURE LIST*
G04 #@! TA.AperFunction,ComponentPad*
%ADD10C,3.000000*%
G04 #@! TD*
G04 #@! TA.AperFunction,ComponentPad*
%ADD11R,1.700000X1.700000*%
G04 #@! TD*
G04 #@! TA.AperFunction,ComponentPad*
%ADD12O,1.700000X1.700000*%
G04 #@! TD*
G04 #@! TA.AperFunction,Conductor*
%ADD13C,0.100000*%
G04 #@! TD*
G04 #@! TA.AperFunction,ComponentPad*
%ADD14C,1.200000*%
G04 #@! TD*
G04 #@! TA.AperFunction,ComponentPad*
%ADD15O,1.750000X1.200000*%
G04 #@! TD*
G04 #@! TA.AperFunction,ComponentPad*
%ADD16C,2.000000*%
G04 #@! TD*
G04 APERTURE END LIST*
D10*
G04 #@! TO.P,REF\002A\002A,1*
G04 #@! TO.N,N/C*
X158100000Y-94300000D03*
G04 #@! TD*
G04 #@! TO.P,REF\002A\002A,1*
G04 #@! TO.N,N/C*
X144100000Y-94300000D03*
G04 #@! TD*
G04 #@! TO.P,REF\002A\002A,1*
G04 #@! TO.N,N/C*
X144100000Y-64400000D03*
G04 #@! TD*
D11*
G04 #@! TO.P,J0,1*
G04 #@! TO.N,SWDIO*
X153600000Y-91700000D03*
D12*
G04 #@! TO.P,J0,2*
G04 #@! TO.N,+3V3*
X153600000Y-94240000D03*
G04 #@! TO.P,J0,3*
G04 #@! TO.N,SWCLK*
X151060000Y-91700000D03*
G04 #@! TO.P,J0,4*
G04 #@! TO.N,Net-(J0-Pad4)*
X151060000Y-94240000D03*
G04 #@! TO.P,J0,5*
G04 #@! TO.N,reset*
X148520000Y-91700000D03*
G04 #@! TO.P,J0,6*
G04 #@! TO.N,GND*
X148520000Y-94240000D03*
G04 #@! TD*
D11*
G04 #@! TO.P,J1,1*
G04 #@! TO.N,GPIO_1*
X144780000Y-81280000D03*
D12*
G04 #@! TO.P,J1,2*
G04 #@! TO.N,GPIO_2*
X144780000Y-83820000D03*
G04 #@! TO.P,J1,3*
G04 #@! TO.N,GPIO_3*
X144780000Y-86360000D03*
G04 #@! TO.P,J1,4*
G04 #@! TO.N,GPIO_4*
X144780000Y-88900000D03*
G04 #@! TD*
G04 #@! TO.P,J2,4*
G04 #@! TO.N,GPIO_8*
X157480000Y-88900000D03*
G04 #@! TO.P,J2,3*
G04 #@! TO.N,GPIO_7*
X157480000Y-86360000D03*
G04 #@! TO.P,J2,2*
G04 #@! TO.N,GPIO_6*
X157480000Y-83820000D03*
D11*
G04 #@! TO.P,J2,1*
G04 #@! TO.N,GPIO_5*
X157480000Y-81280000D03*
G04 #@! TD*
D13*
G04 #@! TO.N,+BATT*
G04 #@! TO.C,J3*
G36*
X145149505Y-75401204D02*
X145173773Y-75404804D01*
X145197572Y-75410765D01*
X145220671Y-75419030D01*
X145242850Y-75429520D01*
X145263893Y-75442132D01*
X145283599Y-75456747D01*
X145301777Y-75473223D01*
X145318253Y-75491401D01*
X145332868Y-75511107D01*
X145345480Y-75532150D01*
X145355970Y-75554329D01*
X145364235Y-75577428D01*
X145370196Y-75601227D01*
X145373796Y-75625495D01*
X145375000Y-75649999D01*
X145375000Y-76350001D01*
X145373796Y-76374505D01*
X145370196Y-76398773D01*
X145364235Y-76422572D01*
X145355970Y-76445671D01*
X145345480Y-76467850D01*
X145332868Y-76488893D01*
X145318253Y-76508599D01*
X145301777Y-76526777D01*
X145283599Y-76543253D01*
X145263893Y-76557868D01*
X145242850Y-76570480D01*
X145220671Y-76580970D01*
X145197572Y-76589235D01*
X145173773Y-76595196D01*
X145149505Y-76598796D01*
X145125001Y-76600000D01*
X143874999Y-76600000D01*
X143850495Y-76598796D01*
X143826227Y-76595196D01*
X143802428Y-76589235D01*
X143779329Y-76580970D01*
X143757150Y-76570480D01*
X143736107Y-76557868D01*
X143716401Y-76543253D01*
X143698223Y-76526777D01*
X143681747Y-76508599D01*
X143667132Y-76488893D01*
X143654520Y-76467850D01*
X143644030Y-76445671D01*
X143635765Y-76422572D01*
X143629804Y-76398773D01*
X143626204Y-76374505D01*
X143625000Y-76350001D01*
X143625000Y-75649999D01*
X143626204Y-75625495D01*
X143629804Y-75601227D01*
X143635765Y-75577428D01*
X143644030Y-75554329D01*
X143654520Y-75532150D01*
X143667132Y-75511107D01*
X143681747Y-75491401D01*
X143698223Y-75473223D01*
X143716401Y-75456747D01*
X143736107Y-75442132D01*
X143757150Y-75429520D01*
X143779329Y-75419030D01*
X143802428Y-75410765D01*
X143826227Y-75404804D01*
X143850495Y-75401204D01*
X143874999Y-75400000D01*
X145125001Y-75400000D01*
X145149505Y-75401204D01*
X145149505Y-75401204D01*
G37*
D14*
G04 #@! TD*
G04 #@! TO.P,J3,1*
G04 #@! TO.N,+BATT*
X144500000Y-76000000D03*
D15*
G04 #@! TO.P,J3,2*
G04 #@! TO.N,GND*
X144500000Y-74000000D03*
G04 #@! TD*
D16*
G04 #@! TO.P,SW1,2*
G04 #@! TO.N,GND*
X154400000Y-64500000D03*
G04 #@! TO.P,SW1,1*
G04 #@! TO.N,reset*
X154400000Y-69000000D03*
G04 #@! TO.P,SW1,2*
G04 #@! TO.N,GND*
X147900000Y-64500000D03*
G04 #@! TO.P,SW1,1*
G04 #@! TO.N,reset*
X147900000Y-69000000D03*
G04 #@! TD*
D10*
G04 #@! TO.P,REF\002A\002A,1*
G04 #@! TO.N,N/C*
X158100000Y-64400000D03*
G04 #@! TD*
M02*
