G04 #@! TF.GenerationSoftware,KiCad,Pcbnew,5.0.2+dfsg1-1*
G04 #@! TF.CreationDate,2019-04-22T18:48:39+01:00*
G04 #@! TF.ProjectId,hawk,6861776b-2e6b-4696-9361-645f70636258,rev?*
G04 #@! TF.SameCoordinates,Original*
G04 #@! TF.FileFunction,Soldermask,Bot*
G04 #@! TF.FilePolarity,Negative*
%FSLAX46Y46*%
G04 Gerber Fmt 4.6, Leading zero omitted, Abs format (unit mm)*
G04 Created by KiCad (PCBNEW 5.0.2+dfsg1-1) date Mon 22 Apr 2019 18:48:39 BST*
%MOMM*%
%LPD*%
G01*
G04 APERTURE LIST*
%ADD10C,0.100000*%
G04 APERTURE END LIST*
D10*
G36*
X158452527Y-92788736D02*
X158552410Y-92808604D01*
X158834674Y-92925521D01*
X159088705Y-93095259D01*
X159304741Y-93311295D01*
X159474479Y-93565326D01*
X159591396Y-93847590D01*
X159651000Y-94147240D01*
X159651000Y-94452760D01*
X159591396Y-94752410D01*
X159474479Y-95034674D01*
X159304741Y-95288705D01*
X159088705Y-95504741D01*
X158834674Y-95674479D01*
X158552410Y-95791396D01*
X158452527Y-95811264D01*
X158252762Y-95851000D01*
X157947238Y-95851000D01*
X157747473Y-95811264D01*
X157647590Y-95791396D01*
X157365326Y-95674479D01*
X157111295Y-95504741D01*
X156895259Y-95288705D01*
X156725521Y-95034674D01*
X156608604Y-94752410D01*
X156549000Y-94452760D01*
X156549000Y-94147240D01*
X156608604Y-93847590D01*
X156725521Y-93565326D01*
X156895259Y-93311295D01*
X157111295Y-93095259D01*
X157365326Y-92925521D01*
X157647590Y-92808604D01*
X157747473Y-92788736D01*
X157947238Y-92749000D01*
X158252762Y-92749000D01*
X158452527Y-92788736D01*
X158452527Y-92788736D01*
G37*
G36*
X144452527Y-92788736D02*
X144552410Y-92808604D01*
X144834674Y-92925521D01*
X145088705Y-93095259D01*
X145304741Y-93311295D01*
X145474479Y-93565326D01*
X145591396Y-93847590D01*
X145651000Y-94147240D01*
X145651000Y-94452760D01*
X145591396Y-94752410D01*
X145474479Y-95034674D01*
X145304741Y-95288705D01*
X145088705Y-95504741D01*
X144834674Y-95674479D01*
X144552410Y-95791396D01*
X144452527Y-95811264D01*
X144252762Y-95851000D01*
X143947238Y-95851000D01*
X143747473Y-95811264D01*
X143647590Y-95791396D01*
X143365326Y-95674479D01*
X143111295Y-95504741D01*
X142895259Y-95288705D01*
X142725521Y-95034674D01*
X142608604Y-94752410D01*
X142549000Y-94452760D01*
X142549000Y-94147240D01*
X142608604Y-93847590D01*
X142725521Y-93565326D01*
X142895259Y-93311295D01*
X143111295Y-93095259D01*
X143365326Y-92925521D01*
X143647590Y-92808604D01*
X143747473Y-92788736D01*
X143947238Y-92749000D01*
X144252762Y-92749000D01*
X144452527Y-92788736D01*
X144452527Y-92788736D01*
G37*
G36*
X148630443Y-93345519D02*
X148696627Y-93352037D01*
X148809853Y-93386384D01*
X148866467Y-93403557D01*
X149005087Y-93477652D01*
X149022991Y-93487222D01*
X149058729Y-93516552D01*
X149160186Y-93599814D01*
X149243448Y-93701271D01*
X149272778Y-93737009D01*
X149272779Y-93737011D01*
X149356443Y-93893533D01*
X149356443Y-93893534D01*
X149407963Y-94063373D01*
X149425359Y-94240000D01*
X149407963Y-94416627D01*
X149373616Y-94529853D01*
X149356443Y-94586467D01*
X149282348Y-94725087D01*
X149272778Y-94742991D01*
X149243448Y-94778729D01*
X149160186Y-94880186D01*
X149058729Y-94963448D01*
X149022991Y-94992778D01*
X149022989Y-94992779D01*
X148866467Y-95076443D01*
X148809853Y-95093616D01*
X148696627Y-95127963D01*
X148630443Y-95134481D01*
X148564260Y-95141000D01*
X148475740Y-95141000D01*
X148409557Y-95134481D01*
X148343373Y-95127963D01*
X148230147Y-95093616D01*
X148173533Y-95076443D01*
X148017011Y-94992779D01*
X148017009Y-94992778D01*
X147981271Y-94963448D01*
X147879814Y-94880186D01*
X147796552Y-94778729D01*
X147767222Y-94742991D01*
X147757652Y-94725087D01*
X147683557Y-94586467D01*
X147666384Y-94529853D01*
X147632037Y-94416627D01*
X147614641Y-94240000D01*
X147632037Y-94063373D01*
X147683557Y-93893534D01*
X147683557Y-93893533D01*
X147767221Y-93737011D01*
X147767222Y-93737009D01*
X147796552Y-93701271D01*
X147879814Y-93599814D01*
X147981271Y-93516552D01*
X148017009Y-93487222D01*
X148034913Y-93477652D01*
X148173533Y-93403557D01*
X148230147Y-93386384D01*
X148343373Y-93352037D01*
X148409558Y-93345518D01*
X148475740Y-93339000D01*
X148564260Y-93339000D01*
X148630443Y-93345519D01*
X148630443Y-93345519D01*
G37*
G36*
X151170443Y-93345519D02*
X151236627Y-93352037D01*
X151349853Y-93386384D01*
X151406467Y-93403557D01*
X151545087Y-93477652D01*
X151562991Y-93487222D01*
X151598729Y-93516552D01*
X151700186Y-93599814D01*
X151783448Y-93701271D01*
X151812778Y-93737009D01*
X151812779Y-93737011D01*
X151896443Y-93893533D01*
X151896443Y-93893534D01*
X151947963Y-94063373D01*
X151965359Y-94240000D01*
X151947963Y-94416627D01*
X151913616Y-94529853D01*
X151896443Y-94586467D01*
X151822348Y-94725087D01*
X151812778Y-94742991D01*
X151783448Y-94778729D01*
X151700186Y-94880186D01*
X151598729Y-94963448D01*
X151562991Y-94992778D01*
X151562989Y-94992779D01*
X151406467Y-95076443D01*
X151349853Y-95093616D01*
X151236627Y-95127963D01*
X151170443Y-95134481D01*
X151104260Y-95141000D01*
X151015740Y-95141000D01*
X150949557Y-95134481D01*
X150883373Y-95127963D01*
X150770147Y-95093616D01*
X150713533Y-95076443D01*
X150557011Y-94992779D01*
X150557009Y-94992778D01*
X150521271Y-94963448D01*
X150419814Y-94880186D01*
X150336552Y-94778729D01*
X150307222Y-94742991D01*
X150297652Y-94725087D01*
X150223557Y-94586467D01*
X150206384Y-94529853D01*
X150172037Y-94416627D01*
X150154641Y-94240000D01*
X150172037Y-94063373D01*
X150223557Y-93893534D01*
X150223557Y-93893533D01*
X150307221Y-93737011D01*
X150307222Y-93737009D01*
X150336552Y-93701271D01*
X150419814Y-93599814D01*
X150521271Y-93516552D01*
X150557009Y-93487222D01*
X150574913Y-93477652D01*
X150713533Y-93403557D01*
X150770147Y-93386384D01*
X150883373Y-93352037D01*
X150949558Y-93345518D01*
X151015740Y-93339000D01*
X151104260Y-93339000D01*
X151170443Y-93345519D01*
X151170443Y-93345519D01*
G37*
G36*
X153710443Y-93345519D02*
X153776627Y-93352037D01*
X153889853Y-93386384D01*
X153946467Y-93403557D01*
X154085087Y-93477652D01*
X154102991Y-93487222D01*
X154138729Y-93516552D01*
X154240186Y-93599814D01*
X154323448Y-93701271D01*
X154352778Y-93737009D01*
X154352779Y-93737011D01*
X154436443Y-93893533D01*
X154436443Y-93893534D01*
X154487963Y-94063373D01*
X154505359Y-94240000D01*
X154487963Y-94416627D01*
X154453616Y-94529853D01*
X154436443Y-94586467D01*
X154362348Y-94725087D01*
X154352778Y-94742991D01*
X154323448Y-94778729D01*
X154240186Y-94880186D01*
X154138729Y-94963448D01*
X154102991Y-94992778D01*
X154102989Y-94992779D01*
X153946467Y-95076443D01*
X153889853Y-95093616D01*
X153776627Y-95127963D01*
X153710443Y-95134481D01*
X153644260Y-95141000D01*
X153555740Y-95141000D01*
X153489557Y-95134481D01*
X153423373Y-95127963D01*
X153310147Y-95093616D01*
X153253533Y-95076443D01*
X153097011Y-94992779D01*
X153097009Y-94992778D01*
X153061271Y-94963448D01*
X152959814Y-94880186D01*
X152876552Y-94778729D01*
X152847222Y-94742991D01*
X152837652Y-94725087D01*
X152763557Y-94586467D01*
X152746384Y-94529853D01*
X152712037Y-94416627D01*
X152694641Y-94240000D01*
X152712037Y-94063373D01*
X152763557Y-93893534D01*
X152763557Y-93893533D01*
X152847221Y-93737011D01*
X152847222Y-93737009D01*
X152876552Y-93701271D01*
X152959814Y-93599814D01*
X153061271Y-93516552D01*
X153097009Y-93487222D01*
X153114913Y-93477652D01*
X153253533Y-93403557D01*
X153310147Y-93386384D01*
X153423373Y-93352037D01*
X153489558Y-93345518D01*
X153555740Y-93339000D01*
X153644260Y-93339000D01*
X153710443Y-93345519D01*
X153710443Y-93345519D01*
G37*
G36*
X148630442Y-90805518D02*
X148696627Y-90812037D01*
X148809853Y-90846384D01*
X148866467Y-90863557D01*
X149005087Y-90937652D01*
X149022991Y-90947222D01*
X149058729Y-90976552D01*
X149160186Y-91059814D01*
X149243448Y-91161271D01*
X149272778Y-91197009D01*
X149272779Y-91197011D01*
X149356443Y-91353533D01*
X149356443Y-91353534D01*
X149407963Y-91523373D01*
X149425359Y-91700000D01*
X149407963Y-91876627D01*
X149373616Y-91989853D01*
X149356443Y-92046467D01*
X149282348Y-92185087D01*
X149272778Y-92202991D01*
X149243448Y-92238729D01*
X149160186Y-92340186D01*
X149058729Y-92423448D01*
X149022991Y-92452778D01*
X149022989Y-92452779D01*
X148866467Y-92536443D01*
X148809853Y-92553616D01*
X148696627Y-92587963D01*
X148630442Y-92594482D01*
X148564260Y-92601000D01*
X148475740Y-92601000D01*
X148409558Y-92594482D01*
X148343373Y-92587963D01*
X148230147Y-92553616D01*
X148173533Y-92536443D01*
X148017011Y-92452779D01*
X148017009Y-92452778D01*
X147981271Y-92423448D01*
X147879814Y-92340186D01*
X147796552Y-92238729D01*
X147767222Y-92202991D01*
X147757652Y-92185087D01*
X147683557Y-92046467D01*
X147666384Y-91989853D01*
X147632037Y-91876627D01*
X147614641Y-91700000D01*
X147632037Y-91523373D01*
X147683557Y-91353534D01*
X147683557Y-91353533D01*
X147767221Y-91197011D01*
X147767222Y-91197009D01*
X147796552Y-91161271D01*
X147879814Y-91059814D01*
X147981271Y-90976552D01*
X148017009Y-90947222D01*
X148034913Y-90937652D01*
X148173533Y-90863557D01*
X148230147Y-90846384D01*
X148343373Y-90812037D01*
X148409558Y-90805518D01*
X148475740Y-90799000D01*
X148564260Y-90799000D01*
X148630442Y-90805518D01*
X148630442Y-90805518D01*
G37*
G36*
X154501000Y-92601000D02*
X152699000Y-92601000D01*
X152699000Y-90799000D01*
X154501000Y-90799000D01*
X154501000Y-92601000D01*
X154501000Y-92601000D01*
G37*
G36*
X151170442Y-90805518D02*
X151236627Y-90812037D01*
X151349853Y-90846384D01*
X151406467Y-90863557D01*
X151545087Y-90937652D01*
X151562991Y-90947222D01*
X151598729Y-90976552D01*
X151700186Y-91059814D01*
X151783448Y-91161271D01*
X151812778Y-91197009D01*
X151812779Y-91197011D01*
X151896443Y-91353533D01*
X151896443Y-91353534D01*
X151947963Y-91523373D01*
X151965359Y-91700000D01*
X151947963Y-91876627D01*
X151913616Y-91989853D01*
X151896443Y-92046467D01*
X151822348Y-92185087D01*
X151812778Y-92202991D01*
X151783448Y-92238729D01*
X151700186Y-92340186D01*
X151598729Y-92423448D01*
X151562991Y-92452778D01*
X151562989Y-92452779D01*
X151406467Y-92536443D01*
X151349853Y-92553616D01*
X151236627Y-92587963D01*
X151170442Y-92594482D01*
X151104260Y-92601000D01*
X151015740Y-92601000D01*
X150949558Y-92594482D01*
X150883373Y-92587963D01*
X150770147Y-92553616D01*
X150713533Y-92536443D01*
X150557011Y-92452779D01*
X150557009Y-92452778D01*
X150521271Y-92423448D01*
X150419814Y-92340186D01*
X150336552Y-92238729D01*
X150307222Y-92202991D01*
X150297652Y-92185087D01*
X150223557Y-92046467D01*
X150206384Y-91989853D01*
X150172037Y-91876627D01*
X150154641Y-91700000D01*
X150172037Y-91523373D01*
X150223557Y-91353534D01*
X150223557Y-91353533D01*
X150307221Y-91197011D01*
X150307222Y-91197009D01*
X150336552Y-91161271D01*
X150419814Y-91059814D01*
X150521271Y-90976552D01*
X150557009Y-90947222D01*
X150574913Y-90937652D01*
X150713533Y-90863557D01*
X150770147Y-90846384D01*
X150883373Y-90812037D01*
X150949558Y-90805518D01*
X151015740Y-90799000D01*
X151104260Y-90799000D01*
X151170442Y-90805518D01*
X151170442Y-90805518D01*
G37*
G36*
X144890443Y-88005519D02*
X144956627Y-88012037D01*
X145069853Y-88046384D01*
X145126467Y-88063557D01*
X145265087Y-88137652D01*
X145282991Y-88147222D01*
X145318729Y-88176552D01*
X145420186Y-88259814D01*
X145503448Y-88361271D01*
X145532778Y-88397009D01*
X145532779Y-88397011D01*
X145616443Y-88553533D01*
X145616443Y-88553534D01*
X145667963Y-88723373D01*
X145685359Y-88900000D01*
X145667963Y-89076627D01*
X145633616Y-89189853D01*
X145616443Y-89246467D01*
X145542348Y-89385087D01*
X145532778Y-89402991D01*
X145503448Y-89438729D01*
X145420186Y-89540186D01*
X145318729Y-89623448D01*
X145282991Y-89652778D01*
X145282989Y-89652779D01*
X145126467Y-89736443D01*
X145069853Y-89753616D01*
X144956627Y-89787963D01*
X144890443Y-89794481D01*
X144824260Y-89801000D01*
X144735740Y-89801000D01*
X144669557Y-89794481D01*
X144603373Y-89787963D01*
X144490147Y-89753616D01*
X144433533Y-89736443D01*
X144277011Y-89652779D01*
X144277009Y-89652778D01*
X144241271Y-89623448D01*
X144139814Y-89540186D01*
X144056552Y-89438729D01*
X144027222Y-89402991D01*
X144017652Y-89385087D01*
X143943557Y-89246467D01*
X143926384Y-89189853D01*
X143892037Y-89076627D01*
X143874641Y-88900000D01*
X143892037Y-88723373D01*
X143943557Y-88553534D01*
X143943557Y-88553533D01*
X144027221Y-88397011D01*
X144027222Y-88397009D01*
X144056552Y-88361271D01*
X144139814Y-88259814D01*
X144241271Y-88176552D01*
X144277009Y-88147222D01*
X144294913Y-88137652D01*
X144433533Y-88063557D01*
X144490147Y-88046384D01*
X144603373Y-88012037D01*
X144669557Y-88005519D01*
X144735740Y-87999000D01*
X144824260Y-87999000D01*
X144890443Y-88005519D01*
X144890443Y-88005519D01*
G37*
G36*
X157590443Y-88005519D02*
X157656627Y-88012037D01*
X157769853Y-88046384D01*
X157826467Y-88063557D01*
X157965087Y-88137652D01*
X157982991Y-88147222D01*
X158018729Y-88176552D01*
X158120186Y-88259814D01*
X158203448Y-88361271D01*
X158232778Y-88397009D01*
X158232779Y-88397011D01*
X158316443Y-88553533D01*
X158316443Y-88553534D01*
X158367963Y-88723373D01*
X158385359Y-88900000D01*
X158367963Y-89076627D01*
X158333616Y-89189853D01*
X158316443Y-89246467D01*
X158242348Y-89385087D01*
X158232778Y-89402991D01*
X158203448Y-89438729D01*
X158120186Y-89540186D01*
X158018729Y-89623448D01*
X157982991Y-89652778D01*
X157982989Y-89652779D01*
X157826467Y-89736443D01*
X157769853Y-89753616D01*
X157656627Y-89787963D01*
X157590443Y-89794481D01*
X157524260Y-89801000D01*
X157435740Y-89801000D01*
X157369557Y-89794481D01*
X157303373Y-89787963D01*
X157190147Y-89753616D01*
X157133533Y-89736443D01*
X156977011Y-89652779D01*
X156977009Y-89652778D01*
X156941271Y-89623448D01*
X156839814Y-89540186D01*
X156756552Y-89438729D01*
X156727222Y-89402991D01*
X156717652Y-89385087D01*
X156643557Y-89246467D01*
X156626384Y-89189853D01*
X156592037Y-89076627D01*
X156574641Y-88900000D01*
X156592037Y-88723373D01*
X156643557Y-88553534D01*
X156643557Y-88553533D01*
X156727221Y-88397011D01*
X156727222Y-88397009D01*
X156756552Y-88361271D01*
X156839814Y-88259814D01*
X156941271Y-88176552D01*
X156977009Y-88147222D01*
X156994913Y-88137652D01*
X157133533Y-88063557D01*
X157190147Y-88046384D01*
X157303373Y-88012037D01*
X157369557Y-88005519D01*
X157435740Y-87999000D01*
X157524260Y-87999000D01*
X157590443Y-88005519D01*
X157590443Y-88005519D01*
G37*
G36*
X157590442Y-85465518D02*
X157656627Y-85472037D01*
X157769853Y-85506384D01*
X157826467Y-85523557D01*
X157965087Y-85597652D01*
X157982991Y-85607222D01*
X158018729Y-85636552D01*
X158120186Y-85719814D01*
X158203448Y-85821271D01*
X158232778Y-85857009D01*
X158232779Y-85857011D01*
X158316443Y-86013533D01*
X158316443Y-86013534D01*
X158367963Y-86183373D01*
X158385359Y-86360000D01*
X158367963Y-86536627D01*
X158333616Y-86649853D01*
X158316443Y-86706467D01*
X158242348Y-86845087D01*
X158232778Y-86862991D01*
X158203448Y-86898729D01*
X158120186Y-87000186D01*
X158018729Y-87083448D01*
X157982991Y-87112778D01*
X157982989Y-87112779D01*
X157826467Y-87196443D01*
X157769853Y-87213616D01*
X157656627Y-87247963D01*
X157590442Y-87254482D01*
X157524260Y-87261000D01*
X157435740Y-87261000D01*
X157369558Y-87254482D01*
X157303373Y-87247963D01*
X157190147Y-87213616D01*
X157133533Y-87196443D01*
X156977011Y-87112779D01*
X156977009Y-87112778D01*
X156941271Y-87083448D01*
X156839814Y-87000186D01*
X156756552Y-86898729D01*
X156727222Y-86862991D01*
X156717652Y-86845087D01*
X156643557Y-86706467D01*
X156626384Y-86649853D01*
X156592037Y-86536627D01*
X156574641Y-86360000D01*
X156592037Y-86183373D01*
X156643557Y-86013534D01*
X156643557Y-86013533D01*
X156727221Y-85857011D01*
X156727222Y-85857009D01*
X156756552Y-85821271D01*
X156839814Y-85719814D01*
X156941271Y-85636552D01*
X156977009Y-85607222D01*
X156994913Y-85597652D01*
X157133533Y-85523557D01*
X157190147Y-85506384D01*
X157303373Y-85472037D01*
X157369558Y-85465518D01*
X157435740Y-85459000D01*
X157524260Y-85459000D01*
X157590442Y-85465518D01*
X157590442Y-85465518D01*
G37*
G36*
X144890442Y-85465518D02*
X144956627Y-85472037D01*
X145069853Y-85506384D01*
X145126467Y-85523557D01*
X145265087Y-85597652D01*
X145282991Y-85607222D01*
X145318729Y-85636552D01*
X145420186Y-85719814D01*
X145503448Y-85821271D01*
X145532778Y-85857009D01*
X145532779Y-85857011D01*
X145616443Y-86013533D01*
X145616443Y-86013534D01*
X145667963Y-86183373D01*
X145685359Y-86360000D01*
X145667963Y-86536627D01*
X145633616Y-86649853D01*
X145616443Y-86706467D01*
X145542348Y-86845087D01*
X145532778Y-86862991D01*
X145503448Y-86898729D01*
X145420186Y-87000186D01*
X145318729Y-87083448D01*
X145282991Y-87112778D01*
X145282989Y-87112779D01*
X145126467Y-87196443D01*
X145069853Y-87213616D01*
X144956627Y-87247963D01*
X144890442Y-87254482D01*
X144824260Y-87261000D01*
X144735740Y-87261000D01*
X144669558Y-87254482D01*
X144603373Y-87247963D01*
X144490147Y-87213616D01*
X144433533Y-87196443D01*
X144277011Y-87112779D01*
X144277009Y-87112778D01*
X144241271Y-87083448D01*
X144139814Y-87000186D01*
X144056552Y-86898729D01*
X144027222Y-86862991D01*
X144017652Y-86845087D01*
X143943557Y-86706467D01*
X143926384Y-86649853D01*
X143892037Y-86536627D01*
X143874641Y-86360000D01*
X143892037Y-86183373D01*
X143943557Y-86013534D01*
X143943557Y-86013533D01*
X144027221Y-85857011D01*
X144027222Y-85857009D01*
X144056552Y-85821271D01*
X144139814Y-85719814D01*
X144241271Y-85636552D01*
X144277009Y-85607222D01*
X144294913Y-85597652D01*
X144433533Y-85523557D01*
X144490147Y-85506384D01*
X144603373Y-85472037D01*
X144669558Y-85465518D01*
X144735740Y-85459000D01*
X144824260Y-85459000D01*
X144890442Y-85465518D01*
X144890442Y-85465518D01*
G37*
G36*
X157590443Y-82925519D02*
X157656627Y-82932037D01*
X157769853Y-82966384D01*
X157826467Y-82983557D01*
X157965087Y-83057652D01*
X157982991Y-83067222D01*
X158018729Y-83096552D01*
X158120186Y-83179814D01*
X158203448Y-83281271D01*
X158232778Y-83317009D01*
X158232779Y-83317011D01*
X158316443Y-83473533D01*
X158316443Y-83473534D01*
X158367963Y-83643373D01*
X158385359Y-83820000D01*
X158367963Y-83996627D01*
X158333616Y-84109853D01*
X158316443Y-84166467D01*
X158242348Y-84305087D01*
X158232778Y-84322991D01*
X158203448Y-84358729D01*
X158120186Y-84460186D01*
X158018729Y-84543448D01*
X157982991Y-84572778D01*
X157982989Y-84572779D01*
X157826467Y-84656443D01*
X157769853Y-84673616D01*
X157656627Y-84707963D01*
X157590443Y-84714481D01*
X157524260Y-84721000D01*
X157435740Y-84721000D01*
X157369557Y-84714481D01*
X157303373Y-84707963D01*
X157190147Y-84673616D01*
X157133533Y-84656443D01*
X156977011Y-84572779D01*
X156977009Y-84572778D01*
X156941271Y-84543448D01*
X156839814Y-84460186D01*
X156756552Y-84358729D01*
X156727222Y-84322991D01*
X156717652Y-84305087D01*
X156643557Y-84166467D01*
X156626384Y-84109853D01*
X156592037Y-83996627D01*
X156574641Y-83820000D01*
X156592037Y-83643373D01*
X156643557Y-83473534D01*
X156643557Y-83473533D01*
X156727221Y-83317011D01*
X156727222Y-83317009D01*
X156756552Y-83281271D01*
X156839814Y-83179814D01*
X156941271Y-83096552D01*
X156977009Y-83067222D01*
X156994913Y-83057652D01*
X157133533Y-82983557D01*
X157190147Y-82966384D01*
X157303373Y-82932037D01*
X157369557Y-82925519D01*
X157435740Y-82919000D01*
X157524260Y-82919000D01*
X157590443Y-82925519D01*
X157590443Y-82925519D01*
G37*
G36*
X144890443Y-82925519D02*
X144956627Y-82932037D01*
X145069853Y-82966384D01*
X145126467Y-82983557D01*
X145265087Y-83057652D01*
X145282991Y-83067222D01*
X145318729Y-83096552D01*
X145420186Y-83179814D01*
X145503448Y-83281271D01*
X145532778Y-83317009D01*
X145532779Y-83317011D01*
X145616443Y-83473533D01*
X145616443Y-83473534D01*
X145667963Y-83643373D01*
X145685359Y-83820000D01*
X145667963Y-83996627D01*
X145633616Y-84109853D01*
X145616443Y-84166467D01*
X145542348Y-84305087D01*
X145532778Y-84322991D01*
X145503448Y-84358729D01*
X145420186Y-84460186D01*
X145318729Y-84543448D01*
X145282991Y-84572778D01*
X145282989Y-84572779D01*
X145126467Y-84656443D01*
X145069853Y-84673616D01*
X144956627Y-84707963D01*
X144890443Y-84714481D01*
X144824260Y-84721000D01*
X144735740Y-84721000D01*
X144669557Y-84714481D01*
X144603373Y-84707963D01*
X144490147Y-84673616D01*
X144433533Y-84656443D01*
X144277011Y-84572779D01*
X144277009Y-84572778D01*
X144241271Y-84543448D01*
X144139814Y-84460186D01*
X144056552Y-84358729D01*
X144027222Y-84322991D01*
X144017652Y-84305087D01*
X143943557Y-84166467D01*
X143926384Y-84109853D01*
X143892037Y-83996627D01*
X143874641Y-83820000D01*
X143892037Y-83643373D01*
X143943557Y-83473534D01*
X143943557Y-83473533D01*
X144027221Y-83317011D01*
X144027222Y-83317009D01*
X144056552Y-83281271D01*
X144139814Y-83179814D01*
X144241271Y-83096552D01*
X144277009Y-83067222D01*
X144294913Y-83057652D01*
X144433533Y-82983557D01*
X144490147Y-82966384D01*
X144603373Y-82932037D01*
X144669557Y-82925519D01*
X144735740Y-82919000D01*
X144824260Y-82919000D01*
X144890443Y-82925519D01*
X144890443Y-82925519D01*
G37*
G36*
X145681000Y-82181000D02*
X143879000Y-82181000D01*
X143879000Y-80379000D01*
X145681000Y-80379000D01*
X145681000Y-82181000D01*
X145681000Y-82181000D01*
G37*
G36*
X158381000Y-82181000D02*
X156579000Y-82181000D01*
X156579000Y-80379000D01*
X158381000Y-80379000D01*
X158381000Y-82181000D01*
X158381000Y-82181000D01*
G37*
G36*
X145266242Y-75353404D02*
X145303339Y-75364657D01*
X145337520Y-75382927D01*
X145367482Y-75407518D01*
X145392073Y-75437480D01*
X145410343Y-75471661D01*
X145421596Y-75508758D01*
X145426000Y-75553473D01*
X145426000Y-76446527D01*
X145421596Y-76491242D01*
X145410343Y-76528339D01*
X145392073Y-76562520D01*
X145367482Y-76592482D01*
X145337520Y-76617073D01*
X145303339Y-76635343D01*
X145266242Y-76646596D01*
X145221527Y-76651000D01*
X143778473Y-76651000D01*
X143733758Y-76646596D01*
X143696661Y-76635343D01*
X143662480Y-76617073D01*
X143632518Y-76592482D01*
X143607927Y-76562520D01*
X143589657Y-76528339D01*
X143578404Y-76491242D01*
X143574000Y-76446527D01*
X143574000Y-75553473D01*
X143578404Y-75508758D01*
X143589657Y-75471661D01*
X143607927Y-75437480D01*
X143632518Y-75407518D01*
X143662480Y-75382927D01*
X143696661Y-75364657D01*
X143733758Y-75353404D01*
X143778473Y-75349000D01*
X145221527Y-75349000D01*
X145266242Y-75353404D01*
X145266242Y-75353404D01*
G37*
G36*
X144838855Y-73352140D02*
X144902618Y-73358420D01*
X144984427Y-73383237D01*
X145025333Y-73395645D01*
X145125491Y-73449181D01*
X145138426Y-73456095D01*
X145237553Y-73537447D01*
X145318905Y-73636574D01*
X145318906Y-73636576D01*
X145379355Y-73749667D01*
X145379355Y-73749668D01*
X145416580Y-73872382D01*
X145429149Y-74000000D01*
X145416580Y-74127618D01*
X145391763Y-74209427D01*
X145379355Y-74250333D01*
X145325819Y-74350491D01*
X145318905Y-74363426D01*
X145237553Y-74462553D01*
X145138426Y-74543905D01*
X145138424Y-74543906D01*
X145025333Y-74604355D01*
X144984427Y-74616763D01*
X144902618Y-74641580D01*
X144838855Y-74647860D01*
X144806974Y-74651000D01*
X144193026Y-74651000D01*
X144161145Y-74647860D01*
X144097382Y-74641580D01*
X144015573Y-74616763D01*
X143974667Y-74604355D01*
X143861576Y-74543906D01*
X143861574Y-74543905D01*
X143762447Y-74462553D01*
X143681095Y-74363426D01*
X143674181Y-74350491D01*
X143620645Y-74250333D01*
X143608237Y-74209427D01*
X143583420Y-74127618D01*
X143570851Y-74000000D01*
X143583420Y-73872382D01*
X143620645Y-73749668D01*
X143620645Y-73749667D01*
X143681094Y-73636576D01*
X143681095Y-73636574D01*
X143762447Y-73537447D01*
X143861574Y-73456095D01*
X143874509Y-73449181D01*
X143974667Y-73395645D01*
X144015573Y-73383237D01*
X144097382Y-73358420D01*
X144161145Y-73352140D01*
X144193026Y-73349000D01*
X144806974Y-73349000D01*
X144838855Y-73352140D01*
X144838855Y-73352140D01*
G37*
G36*
X154706565Y-67989389D02*
X154897834Y-68068615D01*
X155069976Y-68183637D01*
X155216363Y-68330024D01*
X155331385Y-68502166D01*
X155410611Y-68693435D01*
X155451000Y-68896484D01*
X155451000Y-69103516D01*
X155410611Y-69306565D01*
X155331385Y-69497834D01*
X155216363Y-69669976D01*
X155069976Y-69816363D01*
X154897834Y-69931385D01*
X154706565Y-70010611D01*
X154503516Y-70051000D01*
X154296484Y-70051000D01*
X154093435Y-70010611D01*
X153902166Y-69931385D01*
X153730024Y-69816363D01*
X153583637Y-69669976D01*
X153468615Y-69497834D01*
X153389389Y-69306565D01*
X153349000Y-69103516D01*
X153349000Y-68896484D01*
X153389389Y-68693435D01*
X153468615Y-68502166D01*
X153583637Y-68330024D01*
X153730024Y-68183637D01*
X153902166Y-68068615D01*
X154093435Y-67989389D01*
X154296484Y-67949000D01*
X154503516Y-67949000D01*
X154706565Y-67989389D01*
X154706565Y-67989389D01*
G37*
G36*
X148206565Y-67989389D02*
X148397834Y-68068615D01*
X148569976Y-68183637D01*
X148716363Y-68330024D01*
X148831385Y-68502166D01*
X148910611Y-68693435D01*
X148951000Y-68896484D01*
X148951000Y-69103516D01*
X148910611Y-69306565D01*
X148831385Y-69497834D01*
X148716363Y-69669976D01*
X148569976Y-69816363D01*
X148397834Y-69931385D01*
X148206565Y-70010611D01*
X148003516Y-70051000D01*
X147796484Y-70051000D01*
X147593435Y-70010611D01*
X147402166Y-69931385D01*
X147230024Y-69816363D01*
X147083637Y-69669976D01*
X146968615Y-69497834D01*
X146889389Y-69306565D01*
X146849000Y-69103516D01*
X146849000Y-68896484D01*
X146889389Y-68693435D01*
X146968615Y-68502166D01*
X147083637Y-68330024D01*
X147230024Y-68183637D01*
X147402166Y-68068615D01*
X147593435Y-67989389D01*
X147796484Y-67949000D01*
X148003516Y-67949000D01*
X148206565Y-67989389D01*
X148206565Y-67989389D01*
G37*
G36*
X158452527Y-62888736D02*
X158552410Y-62908604D01*
X158834674Y-63025521D01*
X159088705Y-63195259D01*
X159304741Y-63411295D01*
X159474479Y-63665326D01*
X159591396Y-63947590D01*
X159591396Y-63947591D01*
X159651000Y-64247238D01*
X159651000Y-64552762D01*
X159640904Y-64603516D01*
X159591396Y-64852410D01*
X159474479Y-65134674D01*
X159304741Y-65388705D01*
X159088705Y-65604741D01*
X158834674Y-65774479D01*
X158552410Y-65891396D01*
X158452527Y-65911264D01*
X158252762Y-65951000D01*
X157947238Y-65951000D01*
X157747473Y-65911264D01*
X157647590Y-65891396D01*
X157365326Y-65774479D01*
X157111295Y-65604741D01*
X156895259Y-65388705D01*
X156725521Y-65134674D01*
X156608604Y-64852410D01*
X156559096Y-64603516D01*
X156549000Y-64552762D01*
X156549000Y-64247238D01*
X156608604Y-63947591D01*
X156608604Y-63947590D01*
X156725521Y-63665326D01*
X156895259Y-63411295D01*
X157111295Y-63195259D01*
X157365326Y-63025521D01*
X157647590Y-62908604D01*
X157747473Y-62888736D01*
X157947238Y-62849000D01*
X158252762Y-62849000D01*
X158452527Y-62888736D01*
X158452527Y-62888736D01*
G37*
G36*
X144452527Y-62888736D02*
X144552410Y-62908604D01*
X144834674Y-63025521D01*
X145088705Y-63195259D01*
X145304741Y-63411295D01*
X145474479Y-63665326D01*
X145591396Y-63947590D01*
X145591396Y-63947591D01*
X145651000Y-64247238D01*
X145651000Y-64552762D01*
X145640904Y-64603516D01*
X145591396Y-64852410D01*
X145474479Y-65134674D01*
X145304741Y-65388705D01*
X145088705Y-65604741D01*
X144834674Y-65774479D01*
X144552410Y-65891396D01*
X144452527Y-65911264D01*
X144252762Y-65951000D01*
X143947238Y-65951000D01*
X143747473Y-65911264D01*
X143647590Y-65891396D01*
X143365326Y-65774479D01*
X143111295Y-65604741D01*
X142895259Y-65388705D01*
X142725521Y-65134674D01*
X142608604Y-64852410D01*
X142559096Y-64603516D01*
X142549000Y-64552762D01*
X142549000Y-64247238D01*
X142608604Y-63947591D01*
X142608604Y-63947590D01*
X142725521Y-63665326D01*
X142895259Y-63411295D01*
X143111295Y-63195259D01*
X143365326Y-63025521D01*
X143647590Y-62908604D01*
X143747473Y-62888736D01*
X143947238Y-62849000D01*
X144252762Y-62849000D01*
X144452527Y-62888736D01*
X144452527Y-62888736D01*
G37*
G36*
X154706565Y-63489389D02*
X154897834Y-63568615D01*
X155069976Y-63683637D01*
X155216363Y-63830024D01*
X155331385Y-64002166D01*
X155410611Y-64193435D01*
X155451000Y-64396484D01*
X155451000Y-64603516D01*
X155410611Y-64806565D01*
X155331385Y-64997834D01*
X155216363Y-65169976D01*
X155069976Y-65316363D01*
X154897834Y-65431385D01*
X154706565Y-65510611D01*
X154503516Y-65551000D01*
X154296484Y-65551000D01*
X154093435Y-65510611D01*
X153902166Y-65431385D01*
X153730024Y-65316363D01*
X153583637Y-65169976D01*
X153468615Y-64997834D01*
X153389389Y-64806565D01*
X153349000Y-64603516D01*
X153349000Y-64396484D01*
X153389389Y-64193435D01*
X153468615Y-64002166D01*
X153583637Y-63830024D01*
X153730024Y-63683637D01*
X153902166Y-63568615D01*
X154093435Y-63489389D01*
X154296484Y-63449000D01*
X154503516Y-63449000D01*
X154706565Y-63489389D01*
X154706565Y-63489389D01*
G37*
G36*
X148206565Y-63489389D02*
X148397834Y-63568615D01*
X148569976Y-63683637D01*
X148716363Y-63830024D01*
X148831385Y-64002166D01*
X148910611Y-64193435D01*
X148951000Y-64396484D01*
X148951000Y-64603516D01*
X148910611Y-64806565D01*
X148831385Y-64997834D01*
X148716363Y-65169976D01*
X148569976Y-65316363D01*
X148397834Y-65431385D01*
X148206565Y-65510611D01*
X148003516Y-65551000D01*
X147796484Y-65551000D01*
X147593435Y-65510611D01*
X147402166Y-65431385D01*
X147230024Y-65316363D01*
X147083637Y-65169976D01*
X146968615Y-64997834D01*
X146889389Y-64806565D01*
X146849000Y-64603516D01*
X146849000Y-64396484D01*
X146889389Y-64193435D01*
X146968615Y-64002166D01*
X147083637Y-63830024D01*
X147230024Y-63683637D01*
X147402166Y-63568615D01*
X147593435Y-63489389D01*
X147796484Y-63449000D01*
X148003516Y-63449000D01*
X148206565Y-63489389D01*
X148206565Y-63489389D01*
G37*
M02*
